{"glyphs":{"0":{"ha":561,"x_min":0,"x_max":0,"o":"m 504 889 b 281 1107 504 1025 404 1107 b 57 889 156 1107 57 1025 l 57 199 b 281 -19 57 63 156 -19 b 504 199 404 -19 504 63 z m 183 888 b 281 983 183 950 224 983 b 378 888 338 983 378 950 l 378 200 b 281 104 378 138 338 104 b 183 200 224 104 183 138 z "},"1":{"ha":329,"x_min":0,"x_max":0,"o":"m 21 997 l 21 890 l 138 890 l 138 0 l 265 0 l 265 1088 l 138 1088 b 74 997 138 1032 119 997 z "},"2":{"ha":504,"x_min":0,"x_max":0,"o":"m 257 1107 b 40 892 119 1107 40 1025 l 40 856 l 158 856 l 158 889 b 254 983 158 951 193 983 b 346 871 314 983 346 954 b 304 719 346 821 336 775 b 106 428 256 636 153 511 b 50 214 63 353 50 283 l 50 0 l 472 0 l 472 124 l 178 124 l 178 214 b 228 393 178 294 188 326 b 422 683 282 481 374 601 b 472 867 454 740 472 789 b 257 1107 472 1036 386 1107 z "},"3":{"ha":535,"x_min":0,"x_max":0,"o":"m 257 1107 b 46 892 128 1107 46 1025 l 46 856 l 164 856 l 164 883 b 256 983 164 947 193 983 b 351 874 324 983 351 942 l 351 717 b 254 615 351 642 325 615 l 186 615 l 186 506 l 263 506 b 363 399 336 506 363 476 l 363 199 b 263 104 363 136 324 104 b 164 199 203 104 164 136 l 164 221 l 46 251 l 46 196 b 264 -19 46 63 138 -19 b 489 194 390 -19 489 63 l 489 397 b 397 564 489 493 456 542 b 476 721 450 586 476 632 l 476 872 b 257 1107 476 1007 401 1107 z "},"4":{"ha":542,"x_min":0,"x_max":0,"o":"m 321 1088 l 321 478 l 146 478 l 278 878 l 165 878 l 31 469 l 31 353 l 321 353 l 321 0 l 439 0 l 439 353 l 511 353 l 511 478 l 439 478 l 439 1088 z "},"5":{"ha":528,"x_min":0,"x_max":0,"o":"m 76 1088 l 46 682 l 149 647 b 271 718 174 686 214 718 b 347 635 318 718 347 696 l 347 199 b 253 104 347 138 308 104 b 160 199 200 104 160 138 l 160 221 l 42 251 l 42 196 b 260 -19 42 63 139 -19 b 474 196 379 -19 474 63 l 474 633 b 310 828 474 785 397 828 b 167 781 250 828 203 807 l 185 964 l 467 964 l 467 1088 z "},"6":{"ha":546,"x_min":0,"x_max":0,"o":"m 183 889 b 279 983 183 951 221 983 b 371 889 336 983 371 951 l 371 856 l 489 856 l 489 892 b 278 1107 489 1025 407 1107 b 57 892 149 1107 57 1025 l 57 196 b 271 -19 57 63 151 -19 b 489 196 392 -19 489 63 l 489 560 b 319 757 489 693 414 757 b 183 704 265 757 219 736 z m 286 640 b 371 535 349 640 371 600 l 371 199 b 276 104 371 136 332 104 b 183 199 221 104 183 136 l 183 588 b 286 640 211 621 243 640 z "},"7":{"ha":454,"x_min":0,"x_max":0,"o":"m 31 1088 l 31 964 l 304 964 l 81 0 l 214 0 l 424 978 l 424 1088 z "},"8":{"ha":539,"x_min":0,"x_max":0,"o":"m 51 740 b 139 565 51 646 81 592 b 39 388 75 542 39 489 l 39 194 b 267 -19 39 63 135 -19 b 493 194 397 -19 493 63 l 493 388 b 393 565 493 489 456 542 b 481 740 450 592 481 644 l 481 872 b 267 1107 481 1007 407 1107 b 51 872 125 1107 51 1007 z m 157 401 b 267 508 157 479 193 508 b 376 401 339 508 376 479 l 376 208 b 267 100 376 136 329 100 b 157 208 204 100 157 136 z m 168 878 b 267 988 168 946 200 988 b 364 878 332 988 364 946 l 364 713 b 267 613 364 639 335 613 b 168 713 197 613 168 639 z "},"9":{"ha":546,"x_min":0,"x_max":0,"o":"m 267 104 b 175 199 210 104 175 136 l 175 221 l 57 251 l 57 196 b 268 -19 57 63 139 -19 b 489 196 397 -19 489 63 l 489 892 b 275 1107 489 1025 394 1107 b 57 892 154 1107 57 1025 l 57 564 b 226 367 57 431 132 367 b 363 419 279 367 326 386 l 363 199 b 267 104 363 136 325 104 z m 175 889 b 269 983 175 951 214 983 b 363 889 325 983 363 951 l 363 536 b 260 483 333 501 301 483 b 175 589 197 483 175 524 z "},"\u0017":{"ha":258,"x_min":0,"x_max":0,"o":""}," ":{"ha":258,"x_min":0,"x_max":0,"o":""},"!":{"ha":254,"x_min":0,"x_max":0,"o":"m 53 1107 l 93 290 l 163 290 l 201 1107 z m 126 149 b 56 72 79 149 56 115 b 126 -4 56 31 79 -4 b 200 72 176 -4 200 31 b 126 149 200 115 176 149 z "},"\"":{"ha":381,"x_min":0,"x_max":0,"o":"m 228 1107 l 244 753 l 326 753 l 342 1107 z m 39 1107 l 56 753 l 138 753 l 153 1107 z "},"#":{"ha":721,"x_min":0,"x_max":0,"o":"m 44 418 l 31 321 l 156 321 l 110 0 l 207 0 l 253 321 l 403 321 l 357 0 l 454 0 l 500 321 l 625 321 l 639 418 l 514 418 l 550 671 l 675 671 l 689 768 l 564 768 l 611 1088 l 514 1088 l 467 768 l 317 768 l 364 1088 l 267 1088 l 219 768 l 94 768 l 81 671 l 206 671 l 169 418 z m 303 671 l 453 671 l 417 418 l 267 418 z "},"$":{"ha":546,"x_min":0,"x_max":0,"o":"m 254 1115 l 254 976 b 64 786 138 968 64 901 b 131 617 64 732 81 676 b 324 428 179 560 261 500 b 372 321 361 385 372 360 b 274 225 372 257 340 225 b 169 314 204 225 169 260 l 169 371 l 57 400 l 57 304 b 254 107 57 186 131 114 l 254 -28 l 304 -28 l 304 108 b 488 317 431 119 488 201 b 428 488 488 372 474 431 b 235 676 379 549 286 619 b 183 779 193 721 183 750 b 278 861 183 829 214 861 b 371 775 339 861 371 831 l 371 736 l 483 736 l 483 792 b 304 976 483 888 428 968 l 304 1115 z "},"%":{"ha":850,"x_min":0,"x_max":0,"o":"m 632 1088 l 128 0 l 219 0 l 721 1088 z m 785 489 b 650 608 785 564 725 608 b 514 489 574 608 514 564 l 514 110 b 650 -11 514 35 574 -11 b 785 110 725 -11 785 35 z m 594 488 b 650 536 594 519 617 536 b 706 488 683 536 706 519 l 706 110 b 650 60 706 78 683 60 b 594 110 617 60 594 78 z m 335 978 b 200 1097 335 1053 275 1097 b 64 978 124 1097 64 1053 l 64 599 b 200 478 64 524 124 478 b 335 599 275 478 335 524 z m 144 976 b 200 1025 144 1008 167 1025 b 256 976 233 1025 256 1008 l 256 599 b 200 549 256 567 233 549 b 144 599 167 549 144 567 z "},"&":{"ha":594,"x_min":0,"x_max":0,"o":"m 178 922 b 272 1021 178 983 211 1021 b 363 928 328 1021 363 988 l 363 899 l 475 899 l 475 935 b 267 1143 475 1064 386 1143 b 58 929 144 1143 58 1058 l 58 728 b 136 575 58 640 85 596 b 46 413 78 554 46 507 l 46 194 b 229 -14 46 65 131 -14 b 372 42 289 -14 338 7 b 483 -11 396 10 432 -11 b 581 22 521 -11 554 0 l 560 128 b 511 106 543 113 528 106 b 457 185 475 106 457 132 l 457 519 l 561 519 l 561 625 l 272 625 b 178 722 204 625 178 650 z m 338 132 b 249 108 318 117 290 108 b 165 201 206 108 165 142 l 165 417 b 265 519 165 490 193 519 l 335 519 l 335 171 b 338 132 335 157 335 144 z "},"'":{"ha":192,"x_min":0,"x_max":0,"o":"m 39 1107 l 56 753 l 138 753 l 153 1107 z "},"(":{"ha":399,"x_min":0,"x_max":0,"o":"m 379 1332 b 121 1018 231 1314 121 1229 l 121 22 b 379 -292 121 -189 231 -274 l 379 -190 b 222 24 272 -171 222 -129 l 222 1017 b 379 1231 222 1169 272 1211 z "},")":{"ha":399,"x_min":0,"x_max":0,"o":"m 19 -292 b 278 22 168 -274 278 -189 l 278 1018 b 19 1332 278 1229 168 1314 l 19 1231 b 176 1017 126 1211 176 1169 l 176 24 b 19 -190 176 -129 126 -171 z "},"*":{"ha":613,"x_min":0,"x_max":0,"o":"m 83 981 l 44 911 l 249 807 l 46 701 l 86 632 l 279 758 l 268 531 l 347 531 l 336 760 l 529 635 l 568 704 l 364 808 l 568 914 l 528 983 l 333 860 l 344 1088 l 265 1088 l 276 857 z "},"+":{"ha":738,"x_min":0,"x_max":0,"o":"m 317 832 l 317 578 l 64 578 l 64 476 l 317 476 l 317 222 l 419 222 l 419 476 l 674 476 l 674 578 l 419 578 l 419 832 z "},",":{"ha":222,"x_min":0,"x_max":0,"o":"m 168 17 b 183 74 179 40 183 56 b 110 149 183 114 160 149 b 39 72 63 149 40 117 l 26 -207 l 71 -207 z "},"-":{"ha":425,"x_min":0,"x_max":0,"o":"m 38 578 l 38 476 l 386 476 l 386 578 z "},".":{"ha":222,"x_min":0,"x_max":0,"o":"m 110 149 b 39 72 63 149 39 115 b 110 -4 39 31 63 -4 b 183 72 160 -4 183 31 b 110 149 183 115 160 149 z "},"/":{"ha":490,"x_min":0,"x_max":0,"o":"m 379 1207 l 8 -167 l 111 -167 l 482 1207 z "},":":{"ha":286,"x_min":0,"x_max":0,"o":"m 142 613 b 71 536 94 613 71 579 b 142 460 71 494 94 460 b 215 536 192 460 215 494 b 142 613 215 579 192 613 z m 142 218 b 71 142 94 218 71 185 b 142 65 71 100 94 65 b 215 142 192 65 215 100 b 142 218 215 185 192 218 z "},";":{"ha":286,"x_min":0,"x_max":0,"o":"m 200 86 b 215 143 211 110 215 125 b 142 218 215 183 192 218 b 71 142 94 218 72 186 l 58 -137 l 103 -137 z m 142 613 b 71 536 94 613 71 579 b 142 460 71 494 94 460 b 215 536 192 460 215 494 b 142 613 215 579 192 613 z "},"<":{"ha":738,"x_min":0,"x_max":0,"o":"m 64 576 l 64 476 l 674 253 l 674 358 l 183 526 l 674 694 l 674 800 z "},"=":{"ha":738,"x_min":0,"x_max":0,"o":"m 64 715 l 64 614 l 674 614 l 674 715 z m 64 439 l 64 338 l 674 338 l 674 439 z "},">":{"ha":738,"x_min":0,"x_max":0,"o":"m 674 476 l 674 576 l 64 800 l 64 694 l 554 526 l 64 358 l 64 253 z "},"?":{"ha":496,"x_min":0,"x_max":0,"o":"m 257 1115 b 36 910 132 1115 36 1038 l 36 856 l 149 856 l 149 903 b 249 993 149 961 190 993 b 339 883 307 993 339 963 b 265 671 339 808 314 758 b 169 389 200 551 169 488 b 178 290 169 360 172 328 l 250 290 b 363 633 253 433 268 471 b 460 899 431 749 460 813 b 257 1115 460 1046 375 1115 z m 215 149 b 143 72 167 149 143 115 b 215 -4 143 31 167 -4 b 288 72 264 -4 288 31 b 215 149 288 115 264 149 z "},"@":{"ha":953,"x_min":0,"x_max":0,"o":"m 561 643 l 561 601 b 456 647 533 629 494 647 b 342 508 394 647 342 601 l 342 189 b 457 50 342 96 393 50 b 574 108 503 50 543 74 b 688 50 593 71 632 50 b 908 469 838 50 908 208 b 519 982 908 801 794 982 b 43 367 193 982 43 726 b 353 -262 43 1 197 -172 l 390 -187 b 119 367 256 -108 119 49 b 515 903 119 686 257 903 b 835 450 725 903 835 758 b 686 126 835 247 788 126 b 635 181 646 126 635 146 l 635 665 z m 418 500 b 471 571 418 543 431 571 b 561 519 504 571 535 551 l 561 176 b 474 126 538 144 511 126 b 418 197 429 126 418 154 z "},"A":{"ha":549,"x_min":0,"x_max":0,"o":"m 208 1088 l 25 0 l 149 0 l 172 157 l 375 157 l 400 0 l 524 0 l 335 1088 z m 272 808 l 358 264 l 189 264 z "},"B":{"ha":558,"x_min":0,"x_max":0,"o":"m 64 1088 l 64 0 l 296 0 b 513 224 429 0 513 81 l 513 397 b 421 564 513 493 479 542 b 500 721 474 586 500 632 l 500 872 b 285 1088 500 1007 418 1088 z m 189 506 l 286 506 b 386 399 360 506 386 476 l 386 232 b 286 121 386 158 354 121 l 189 121 z m 189 967 l 275 967 b 375 857 344 967 375 925 l 375 717 b 278 615 375 642 349 615 l 189 615 z "},"C":{"ha":526,"x_min":0,"x_max":0,"o":"m 183 889 b 279 983 183 951 221 983 b 371 889 336 983 371 951 l 371 856 l 489 856 l 489 892 b 278 1107 489 1025 407 1107 b 57 892 149 1107 57 1025 l 57 196 b 271 -19 57 63 151 -19 b 489 196 392 -19 489 63 l 489 251 l 371 221 l 371 199 b 276 104 371 136 332 104 b 183 199 221 104 183 136 z "},"D":{"ha":563,"x_min":0,"x_max":0,"o":"m 64 1088 l 64 0 l 289 0 b 506 250 422 0 506 81 l 506 838 b 289 1088 506 1007 422 1088 z m 192 964 l 279 964 b 379 846 347 964 379 925 l 379 242 b 279 124 379 163 347 124 l 192 124 z "},"E":{"ha":464,"x_min":0,"x_max":0,"o":"m 64 1088 l 64 0 l 424 0 l 424 124 l 192 124 l 192 499 l 356 499 l 356 622 l 192 622 l 192 964 l 424 964 l 424 1088 z "},"F":{"ha":467,"x_min":0,"x_max":0,"o":"m 64 1088 l 64 0 l 192 0 l 192 463 l 374 463 l 374 586 l 192 586 l 192 964 l 439 964 l 439 1088 z "},"G":{"ha":546,"x_min":0,"x_max":0,"o":"m 181 889 b 278 983 181 951 219 983 b 371 889 333 983 371 951 l 371 856 l 489 856 l 489 892 b 276 1107 489 1025 404 1107 b 57 892 149 1107 57 1025 l 57 196 b 250 -19 57 63 139 -19 b 400 47 314 -19 365 8 l 406 0 l 485 0 l 485 603 l 265 603 l 265 488 l 374 488 l 374 199 b 274 104 374 136 329 104 b 181 199 218 104 181 136 z "},"H":{"ha":576,"x_min":0,"x_max":0,"o":"m 64 1088 l 64 0 l 192 0 l 192 492 l 385 492 l 385 0 l 513 0 l 513 1088 l 385 1088 l 385 614 l 192 614 l 192 1088 z "},"I":{"ha":256,"x_min":0,"x_max":0,"o":"m 64 1088 l 64 0 l 192 0 l 192 1088 z "},"J":{"ha":521,"x_min":0,"x_max":0,"o":"m 333 1088 l 333 199 b 239 104 333 136 296 104 b 146 199 183 104 146 136 l 146 221 l 28 251 l 28 196 b 243 -19 28 63 117 -19 b 460 196 368 -19 460 63 l 460 1088 z "},"K":{"ha":538,"x_min":0,"x_max":0,"o":"m 372 1088 l 192 683 l 192 1088 l 64 1088 l 64 0 l 192 0 l 192 588 l 386 0 l 519 0 l 300 643 l 503 1088 z "},"L":{"ha":424,"x_min":0,"x_max":0,"o":"m 64 1088 l 64 0 l 396 0 l 396 124 l 192 124 l 192 1088 z "},"M":{"ha":743,"x_min":0,"x_max":0,"o":"m 64 1088 l 64 0 l 178 0 l 178 711 l 314 0 l 432 0 l 565 701 l 565 0 l 679 0 l 679 1088 l 551 1088 l 372 225 l 203 1088 z "},"N":{"ha":563,"x_min":0,"x_max":0,"o":"m 64 1088 l 64 0 l 175 0 l 175 800 l 385 0 l 499 0 l 499 1088 l 388 1088 l 388 338 l 203 1088 z "},"O":{"ha":561,"x_min":0,"x_max":0,"o":"m 504 889 b 281 1107 504 1025 404 1107 b 57 889 156 1107 57 1025 l 57 199 b 281 -19 57 63 156 -19 b 504 199 404 -19 504 63 z m 183 888 b 281 983 183 950 224 983 b 378 888 338 983 378 950 l 378 200 b 281 104 378 138 338 104 b 183 200 224 104 183 138 z "},"P":{"ha":549,"x_min":0,"x_max":0,"o":"m 64 1088 l 64 0 l 192 0 l 192 429 l 289 429 b 506 679 422 429 506 510 l 506 838 b 289 1088 506 1007 422 1088 z m 192 964 l 279 964 b 379 846 347 964 379 925 l 379 671 b 279 553 379 592 347 553 l 192 553 z "},"Q":{"ha":561,"x_min":0,"x_max":0,"o":"m 504 889 b 281 1107 504 1025 404 1107 b 57 889 156 1107 57 1025 l 57 210 b 281 -8 57 74 156 -8 b 365 6 310 -8 339 -3 l 463 -124 l 553 -56 l 458 69 b 504 210 488 106 504 153 z m 183 888 b 281 983 183 950 224 983 b 378 888 338 983 378 950 l 378 203 b 281 107 378 140 338 107 b 183 203 224 107 183 140 z "},"R":{"ha":561,"x_min":0,"x_max":0,"o":"m 64 1088 l 64 0 l 189 0 l 189 507 l 283 507 b 382 413 360 507 382 481 l 382 0 l 508 0 l 508 408 b 424 567 508 497 478 544 b 500 721 474 589 500 635 l 500 872 b 285 1088 500 1007 418 1088 z m 189 967 l 275 967 b 375 857 340 967 375 928 l 375 715 b 275 617 375 644 350 617 l 189 617 z "},"S":{"ha":522,"x_min":0,"x_max":0,"o":"m 265 1107 b 44 872 132 1107 44 1017 b 126 629 44 803 64 728 b 306 388 178 549 264 450 b 360 225 346 325 360 275 b 256 97 360 144 325 97 b 153 194 190 97 153 143 l 153 221 l 35 251 l 35 193 b 264 -19 35 75 121 -19 b 482 242 413 -19 482 82 b 421 444 482 321 464 376 b 219 721 371 525 269 651 b 163 871 183 772 163 818 b 263 988 163 935 194 988 b 357 885 322 988 357 947 l 357 856 l 475 856 l 475 894 b 265 1107 475 1021 396 1107 z "},"T":{"ha":428,"x_min":0,"x_max":0,"o":"m 28 1088 l 28 964 l 150 964 l 150 0 l 278 0 l 278 964 l 400 964 l 400 1088 z "},"U":{"ha":569,"x_min":0,"x_max":0,"o":"m 61 1088 l 61 199 b 283 -19 61 63 158 -19 b 508 199 410 -19 508 63 l 508 1088 l 383 1088 l 383 200 b 285 104 383 138 343 104 b 189 200 229 104 189 138 l 189 1088 z "},"V":{"ha":549,"x_min":0,"x_max":0,"o":"m 25 1088 l 210 0 l 336 0 l 524 1088 l 400 1088 l 274 279 l 150 1088 z "},"W":{"ha":801,"x_min":0,"x_max":0,"o":"m 31 1088 l 143 0 l 267 0 l 399 819 l 519 0 l 647 0 l 771 1088 l 647 1088 l 569 318 l 460 1088 l 338 1088 l 219 322 l 153 1088 z "},"X":{"ha":567,"x_min":0,"x_max":0,"o":"m 408 1088 l 283 743 l 163 1088 l 33 1088 l 211 578 l 18 0 l 139 0 l 275 397 l 414 0 l 549 0 l 346 565 l 532 1088 z "},"Y":{"ha":572,"x_min":0,"x_max":0,"o":"m 18 1088 l 222 508 l 222 0 l 350 0 l 350 508 l 554 1088 l 431 1088 l 288 665 l 147 1088 z "},"Z":{"ha":500,"x_min":0,"x_max":0,"o":"m 44 1088 l 44 964 l 329 964 l 39 118 l 39 0 l 461 0 l 461 124 l 169 124 l 461 989 l 461 1088 z "},"[":{"ha":399,"x_min":0,"x_max":0,"o":"m 121 1332 l 121 -292 l 379 -292 l 379 -190 l 222 -190 l 222 1231 l 379 1231 l 379 1332 z "},"\\":{"ha":481,"x_min":0,"x_max":0,"o":"m 8 1207 l 379 -167 l 482 -167 l 111 1207 z "},"]":{"ha":399,"x_min":0,"x_max":0,"o":"m 278 -292 l 278 1332 l 19 1332 l 19 1231 l 176 1231 l 176 -190 l 19 -190 l 19 -292 z "},"^":{"ha":629,"x_min":0,"x_max":0,"o":"m 264 1088 l 40 478 l 146 478 l 314 968 l 482 478 l 588 478 l 364 1088 z "},"_":{"ha":590,"x_min":0,"x_max":0,"o":"m 0 -92 l 0 -174 l 594 -174 l 594 -92 z "},"`":{"ha":376,"x_min":0,"x_max":0,"o":"m 104 1135 l 251 915 l 361 915 l 239 1135 z "},"a":{"ha":533,"x_min":0,"x_max":0,"o":"m 142 681 b 254 746 165 721 207 746 b 356 626 322 746 356 697 l 356 600 b 213 504 303 567 253 533 b 38 208 89 411 38 333 b 217 -11 38 47 124 -11 b 372 47 275 -11 331 13 l 394 0 l 472 0 l 472 629 b 271 860 472 764 406 860 b 74 765 190 860 114 825 z m 253 106 b 161 226 197 106 161 140 b 274 425 161 297 186 357 b 356 481 297 443 322 460 l 356 154 b 253 106 325 124 292 106 z "},"b":{"ha":549,"x_min":0,"x_max":0,"o":"m 64 1101 l 64 0 l 149 0 l 169 53 b 324 -11 211 13 267 -11 b 499 194 417 -11 499 56 l 499 654 b 324 860 499 793 417 860 b 188 811 275 860 226 842 l 188 1132 z m 289 738 b 375 628 349 738 375 697 l 375 221 b 289 111 375 151 349 111 b 188 160 250 111 218 128 l 188 689 b 289 738 218 721 250 738 z "},"c":{"ha":514,"x_min":0,"x_max":0,"o":"m 176 647 b 265 738 176 706 214 738 b 356 647 318 738 356 706 l 356 618 l 468 618 l 468 654 b 261 860 468 782 376 860 b 57 654 147 860 57 782 l 57 194 b 261 -11 57 67 147 -11 b 468 194 376 -11 468 67 l 468 282 l 356 253 l 356 201 b 265 111 356 143 318 111 b 176 201 214 111 176 143 z "},"d":{"ha":556,"x_min":0,"x_max":0,"o":"m 368 1101 l 368 811 b 232 860 328 842 281 860 b 57 654 139 860 57 793 l 57 194 b 232 -11 57 56 139 -11 b 386 53 288 -11 343 13 l 407 0 l 492 0 l 492 1132 z m 181 628 b 267 738 181 697 206 738 b 368 689 304 738 338 721 l 368 160 b 267 111 338 128 304 111 b 181 221 206 111 181 151 z "},"e":{"ha":521,"x_min":0,"x_max":0,"o":"m 335 381 b 471 636 429 458 471 532 b 263 860 471 806 363 860 b 57 654 147 860 57 782 l 57 194 b 261 -11 57 67 147 -11 b 468 194 376 -11 468 67 l 468 282 l 356 253 l 356 199 b 265 108 356 140 318 108 b 176 199 214 108 176 140 l 176 267 b 335 381 243 308 296 347 z m 176 649 b 261 746 176 710 208 746 b 351 628 310 746 351 715 b 272 458 351 560 329 511 b 176 386 250 438 217 413 z "},"f":{"ha":429,"x_min":0,"x_max":0,"o":"m 17 849 l 17 744 l 111 744 l 111 0 l 229 0 l 229 744 l 369 744 l 369 849 l 229 849 l 229 922 b 318 1029 229 986 258 1029 b 388 1007 343 1029 367 1021 l 421 1115 b 304 1143 386 1133 346 1143 b 111 924 175 1143 111 1051 l 111 849 z "},"g":{"ha":544,"x_min":0,"x_max":0,"o":"m 58 429 b 149 256 58 350 93 289 b 88 149 111 231 88 196 b 107 79 88 121 94 97 b 4 -74 38 51 4 -7 b 176 -237 4 -160 63 -237 l 346 -237 l 394 -133 l 200 -133 b 131 -68 154 -133 131 -104 b 215 -3 131 -31 154 -3 l 453 -3 l 501 103 l 258 103 b 188 161 208 103 188 126 b 221 228 188 189 199 210 b 269 224 236 225 253 224 b 481 429 386 224 481 301 l 481 654 b 467 732 481 682 475 708 l 536 839 l 382 831 b 269 860 350 850 311 860 b 58 654 151 860 58 782 z m 175 653 b 269 746 175 715 214 746 b 364 653 324 746 364 715 l 364 431 b 269 338 364 369 324 338 b 175 431 214 338 175 369 z "},"h":{"ha":560,"x_min":0,"x_max":0,"o":"m 64 1101 l 64 0 l 188 0 l 188 693 b 286 738 218 722 250 738 b 375 628 349 738 375 697 l 375 0 l 499 0 l 499 654 b 321 860 499 793 418 860 b 188 815 274 860 226 844 l 188 1132 z "},"i":{"ha":251,"x_min":0,"x_max":0,"o":"m 64 849 l 64 0 l 188 0 l 188 849 z m 124 1119 b 53 1044 76 1119 53 1086 b 124 967 53 1001 76 967 b 197 1044 174 967 197 1001 b 124 1119 197 1086 174 1119 z "},"j":{"ha":269,"x_min":0,"x_max":0,"o":"m 86 849 l 86 -36 b -3 -137 86 -99 51 -137 b -65 -114 -22 -137 -43 -131 l -99 -221 b 15 -254 -68 -243 -26 -254 b 206 -36 149 -254 206 -154 l 206 849 z m 146 1119 b 75 1044 99 1119 75 1086 b 146 967 75 1001 99 967 b 219 1044 196 967 219 1001 b 146 1119 219 1086 196 1119 z "},"k":{"ha":521,"x_min":0,"x_max":0,"o":"m 360 849 l 188 533 l 188 1132 l 64 1101 l 64 0 l 188 0 l 188 457 l 375 0 l 503 0 l 292 501 l 486 849 z "},"l":{"ha":251,"x_min":0,"x_max":0,"o":"m 64 1101 l 64 0 l 188 0 l 188 1132 z "},"m":{"ha":849,"x_min":0,"x_max":0,"o":"m 64 849 l 64 0 l 188 0 l 188 696 b 279 738 215 724 246 738 b 364 628 340 738 364 697 l 364 0 l 488 0 l 488 654 b 485 693 488 668 486 681 b 579 738 514 722 544 738 b 664 628 640 738 664 697 l 664 0 l 788 0 l 788 654 b 614 860 788 793 708 860 b 453 786 556 860 496 833 b 314 860 421 835 371 860 b 168 801 263 860 210 839 l 149 849 z "},"n":{"ha":560,"x_min":0,"x_max":0,"o":"m 64 849 l 64 0 l 188 0 l 188 693 b 286 738 218 722 250 738 b 375 628 349 738 375 697 l 375 0 l 499 0 l 499 654 b 321 860 499 793 418 860 b 168 800 267 860 211 839 l 149 849 z "},"o":{"ha":536,"x_min":0,"x_max":0,"o":"m 479 654 b 268 860 479 782 385 860 b 57 654 150 860 57 782 l 57 194 b 268 -11 57 67 150 -11 b 479 194 385 -11 479 67 z m 176 647 b 268 738 176 706 215 738 b 358 647 321 738 358 706 l 358 201 b 268 111 358 143 321 111 b 176 201 215 111 176 143 z "},"p":{"ha":556,"x_min":0,"x_max":0,"o":"m 64 849 l 64 -237 l 188 -237 l 188 38 b 324 -11 226 6 275 -11 b 499 194 417 -11 499 56 l 499 654 b 324 860 499 793 417 860 b 169 796 267 860 211 836 l 149 849 z m 289 738 b 375 628 349 738 375 697 l 375 221 b 289 111 375 151 349 111 b 188 160 250 111 218 128 l 188 689 b 289 738 218 721 250 738 z "},"q":{"ha":556,"x_min":0,"x_max":0,"o":"m 407 849 l 386 796 b 232 860 343 836 288 860 b 57 654 139 860 57 793 l 57 194 b 232 -11 57 56 139 -11 b 368 38 281 -11 328 6 l 368 -237 l 492 -237 l 492 849 z m 181 628 b 267 738 181 697 206 738 b 368 689 304 738 338 721 l 368 160 b 267 111 338 128 304 111 b 181 221 206 111 181 151 z "},"r":{"ha":433,"x_min":0,"x_max":0,"o":"m 418 824 b 315 860 389 849 353 860 b 172 778 256 860 208 832 l 149 849 l 64 849 l 64 0 l 188 0 l 188 665 b 306 738 219 713 258 738 b 383 714 329 738 356 731 z "},"s":{"ha":507,"x_min":0,"x_max":0,"o":"m 260 860 b 44 668 129 860 44 792 b 111 499 44 614 61 558 b 304 310 160 442 242 382 b 353 203 342 267 353 242 b 254 107 353 139 321 107 b 150 196 185 107 150 142 l 150 253 l 38 282 l 38 186 b 254 -11 38 63 119 -11 b 468 199 403 -11 468 75 b 408 369 468 254 454 313 b 215 558 360 431 267 501 b 164 661 174 603 164 632 b 258 743 164 711 194 743 b 351 657 319 743 351 713 l 351 618 l 464 618 l 464 674 b 260 860 464 776 401 860 z "},"t":{"ha":428,"x_min":0,"x_max":0,"o":"m 17 849 l 17 744 l 108 744 l 108 208 b 299 -11 108 89 165 -11 b 414 22 342 -11 383 0 l 381 128 b 318 106 360 113 340 106 b 228 208 264 106 228 144 l 228 744 l 369 744 l 369 849 l 228 849 l 228 1047 l 108 997 l 108 849 z "},"u":{"ha":554,"x_min":0,"x_max":0,"o":"m 367 849 l 367 154 b 272 111 336 125 304 111 b 185 221 215 111 185 147 l 185 849 l 61 849 l 61 194 b 238 -11 61 56 142 -11 b 385 47 292 -11 343 8 l 406 0 l 490 0 l 490 849 z "},"v":{"ha":525,"x_min":0,"x_max":0,"o":"m 26 849 l 200 0 l 321 0 l 500 849 l 382 849 l 261 218 l 146 849 z "},"w":{"ha":753,"x_min":0,"x_max":0,"o":"m 31 849 l 135 0 l 251 0 l 374 640 l 486 0 l 607 0 l 722 849 l 606 849 l 535 249 l 432 849 l 318 849 l 207 250 l 146 849 z "},"x":{"ha":579,"x_min":0,"x_max":0,"o":"m 417 849 l 289 581 l 165 849 l 33 849 l 217 450 l 18 0 l 142 0 l 281 310 l 424 0 l 561 0 l 354 442 l 544 849 z "},"y":{"ha":554,"x_min":0,"x_max":0,"o":"m 367 849 l 367 168 b 272 125 336 139 304 125 b 185 235 215 125 185 161 l 185 849 l 61 849 l 61 208 b 238 3 61 69 142 3 b 367 46 283 3 328 17 l 367 -237 l 490 -237 l 490 849 z "},"z":{"ha":483,"x_min":0,"x_max":0,"o":"m 43 849 l 43 744 l 315 744 l 38 101 l 38 0 l 446 0 l 446 104 l 168 104 l 446 763 l 446 849 z "},"{":{"ha":399,"x_min":0,"x_max":0,"o":"m 379 1332 b 167 1118 228 1332 167 1286 l 167 649 b 94 569 167 596 146 569 l 44 569 l 44 469 l 94 469 b 167 386 146 469 167 440 l 167 -78 b 379 -292 167 -246 228 -292 l 379 -190 b 268 -78 289 -190 268 -172 l 268 396 b 183 522 268 461 221 517 b 268 639 221 528 268 574 l 268 1118 b 379 1231 268 1211 289 1231 z "},"|":{"ha":343,"x_min":0,"x_max":0,"o":"m 121 1263 l 121 -222 l 222 -222 l 222 1263 z "},"}":{"ha":399,"x_min":0,"x_max":0,"o":"m 19 -292 b 232 -78 171 -292 232 -246 l 232 392 b 304 471 232 444 253 471 l 354 471 l 354 571 l 304 571 b 232 654 253 571 232 600 l 232 1118 b 19 1332 232 1286 171 1332 l 19 1231 b 131 1118 110 1231 131 1213 l 131 644 b 215 518 131 579 178 524 b 131 401 178 513 131 467 l 131 -78 b 19 -190 131 -171 110 -190 z "},"~":{"ha":738,"x_min":0,"x_max":0,"o":"m 64 404 b 231 506 106 471 156 506 b 357 476 276 506 313 493 b 506 443 404 458 450 443 b 674 528 592 443 638 478 l 674 647 b 507 544 632 582 582 544 b 381 575 464 544 424 558 b 232 607 335 592 288 607 b 64 524 144 607 97 571 z "}," ":{"ha":258,"x_min":0,"x_max":0,"o":""},"¡":{"ha":254,"x_min":0,"x_max":0,"o":"m 193 -189 l 153 628 l 83 628 l 44 -189 z m 119 769 b 190 846 167 769 190 803 b 119 922 190 888 167 922 b 46 846 69 922 46 888 b 119 769 46 803 69 769 z "},"¢":{"ha":546,"x_min":0,"x_max":0,"o":"m 186 765 b 275 856 186 824 224 856 b 365 765 328 856 365 824 l 365 736 l 478 736 l 478 772 b 297 976 478 890 400 965 l 297 1115 l 247 1115 l 247 976 b 67 772 144 965 67 890 l 67 313 b 247 108 67 193 144 118 l 247 -28 l 297 -28 l 297 108 b 478 313 400 119 478 194 l 478 400 l 365 371 l 365 319 b 275 229 365 261 328 229 b 186 319 224 229 186 261 z "},"£":{"ha":607,"x_min":0,"x_max":0,"o":"m 43 654 l 43 553 l 118 553 l 118 124 l 56 124 l 56 0 l 536 0 l 536 124 l 244 124 l 244 553 l 503 553 l 503 654 l 244 654 l 244 889 b 340 983 244 951 282 983 b 432 889 397 983 432 951 l 432 856 l 550 856 l 550 892 b 339 1107 550 1025 468 1107 b 118 892 210 1107 118 1025 l 118 654 z "},"¤":{"ha":971,"x_min":0,"x_max":0,"o":"m 110 974 l 38 903 l 208 731 b 183 603 192 693 183 650 l 183 451 b 210 324 183 403 193 361 l 38 151 l 110 79 l 269 239 b 485 158 324 188 400 158 b 701 238 569 158 646 186 l 861 79 l 933 150 l 761 322 b 789 451 779 360 789 403 l 789 603 b 763 732 789 651 779 694 l 933 903 l 861 975 l 703 817 b 485 899 647 869 571 899 b 267 815 399 899 322 869 z m 275 588 b 485 794 275 715 367 794 b 697 588 604 794 697 715 l 697 467 b 485 263 697 340 604 263 b 275 467 367 263 275 340 z "},"¥":{"ha":686,"x_min":0,"x_max":0,"o":"m 38 258 l 38 176 l 278 176 l 278 0 l 406 0 l 406 176 l 647 176 l 647 258 l 406 258 l 406 371 l 647 371 l 647 453 l 406 453 l 406 508 l 610 1088 l 486 1088 l 343 665 l 203 1088 l 74 1088 l 278 508 l 278 453 l 38 453 l 38 371 l 278 371 l 278 258 z "},"¦":{"ha":343,"x_min":0,"x_max":0,"o":"m 121 1263 l 121 611 l 222 611 l 222 1263 z m 121 429 l 121 -222 l 222 -222 l 222 429 z "},"§":{"ha":539,"x_min":0,"x_max":0,"o":"m 296 1107 b 104 903 181 1107 104 1028 b 185 676 104 818 139 744 b 64 485 110 650 64 582 b 135 272 64 424 79 358 b 290 63 179 203 254 117 b 338 -79 326 8 338 -36 b 247 -190 338 -149 307 -190 b 158 -106 190 -190 158 -150 l 158 -83 l 56 -56 l 56 -107 b 254 -292 56 -210 131 -292 b 444 -65 383 -292 444 -204 b 372 140 444 4 428 53 b 485 353 449 169 485 246 b 431 531 485 422 468 471 b 256 771 388 600 299 708 b 207 901 224 815 207 856 b 293 1003 207 957 235 1003 b 375 914 346 1003 375 968 l 375 888 l 478 888 l 478 922 b 296 1107 478 1032 410 1107 z m 215 353 b 167 483 183 397 167 438 b 253 585 167 536 197 582 b 331 481 279 549 307 515 b 378 339 367 426 378 382 b 307 229 378 276 354 238 b 215 353 272 275 238 319 z "},"¨":{"ha":454,"x_min":0,"x_max":0,"o":"m 342 1119 b 271 1044 294 1119 271 1086 b 342 967 271 1001 294 967 b 415 1044 392 967 415 1001 b 342 1119 415 1086 392 1119 z m 110 1119 b 39 1044 63 1119 39 1086 b 110 967 39 1001 63 967 b 183 1044 160 967 183 1001 b 110 1119 183 1086 160 1119 z "},"©":{"ha":1043,"x_min":0,"x_max":0,"o":"m 61 426 b 519 -19 61 151 263 -19 b 982 426 776 -19 982 151 l 982 657 b 519 1107 982 936 776 1107 b 61 657 263 1107 61 936 z m 115 657 b 519 1051 115 901 294 1051 b 926 657 744 1051 926 901 l 926 426 b 519 35 926 186 744 35 b 115 426 294 35 115 186 z m 456 779 b 519 842 456 821 481 842 b 579 779 557 842 579 821 l 579 758 l 657 758 l 657 782 b 518 924 657 869 603 924 b 372 782 433 924 372 869 l 372 322 b 514 181 372 235 435 181 b 657 322 593 181 657 235 l 657 358 l 579 339 l 579 324 b 517 261 579 283 554 261 b 456 324 481 261 456 283 z "},"ª":{"ha":424,"x_min":0,"x_max":0,"o":"m 132 989 b 199 1025 150 1015 169 1025 b 254 957 242 1025 254 1001 l 254 940 b 154 872 221 921 185 896 b 58 689 86 817 58 763 b 172 547 58 586 113 547 b 267 581 207 547 240 560 l 278 556 l 336 556 l 336 960 b 208 1107 336 1046 296 1107 b 82 1046 156 1107 107 1085 z m 200 631 b 146 703 165 631 146 650 b 206 817 146 747 158 779 b 254 853 219 829 236 842 l 254 653 b 200 631 236 638 219 631 z "},"«":{"ha":518,"x_min":0,"x_max":0,"o":"m 382 849 l 238 424 l 382 0 l 492 0 l 346 424 l 492 849 z m 169 849 l 25 424 l 169 0 l 279 0 l 133 424 l 279 849 z "},"¬":{"ha":738,"x_min":0,"x_max":0,"o":"m 64 593 l 64 492 l 571 492 l 571 0 l 672 0 l 672 593 z "},"­":{"ha":425,"x_min":0,"x_max":0,"o":"m 38 578 l 38 476 l 386 476 l 386 578 z "},"®":{"ha":1043,"x_min":0,"x_max":0,"o":"m 61 426 b 519 -19 61 151 263 -19 b 982 426 776 -19 982 151 l 982 657 b 519 1107 982 936 776 1107 b 61 657 263 1107 61 936 z m 115 657 b 519 1051 115 901 294 1051 b 926 657 744 1051 926 901 l 926 426 b 519 35 926 186 744 35 b 115 426 294 35 115 186 z m 376 911 l 376 193 l 460 193 l 460 528 l 522 528 b 586 465 572 528 586 510 l 586 193 l 671 193 l 671 463 b 615 567 671 521 650 553 b 665 669 647 582 665 613 l 665 768 b 522 911 665 857 611 911 z m 460 831 l 517 831 b 582 758 560 831 582 806 l 582 665 b 517 600 582 618 565 600 l 460 600 z "},"¯":{"ha":528,"x_min":0,"x_max":0,"o":"m 39 1082 l 39 989 l 489 989 l 489 1082 z "},"°":{"ha":469,"x_min":0,"x_max":0,"o":"m 72 821 b 233 664 72 724 143 664 b 396 821 324 664 396 724 l 396 949 b 233 1107 396 1047 324 1107 b 72 949 143 1107 72 1047 z m 160 949 b 235 1021 160 992 189 1021 b 308 949 279 1021 308 992 l 308 822 b 235 750 308 779 279 750 b 160 822 189 750 160 779 z "},"±":{"ha":738,"x_min":0,"x_max":0,"o":"m 317 832 l 317 578 l 64 578 l 64 476 l 317 476 l 317 222 l 419 222 l 419 476 l 674 476 l 674 578 l 419 578 l 419 832 z m 64 118 l 64 17 l 674 17 l 674 118 z "},"²":{"ha":357,"x_min":0,"x_max":0,"o":"m 50 960 l 124 960 l 124 978 b 179 1025 124 1013 142 1025 b 232 964 219 1025 232 1011 b 211 885 232 936 228 914 b 89 724 183 840 117 767 b 54 607 61 682 54 643 l 54 489 l 313 489 l 313 560 l 136 560 l 136 607 b 165 703 136 653 140 667 b 283 863 200 753 258 821 b 313 963 304 894 313 924 b 181 1097 313 1058 263 1097 b 50 979 97 1097 50 1053 z "},"³":{"ha":375,"x_min":0,"x_max":0,"o":"m 54 960 l 128 960 l 128 975 b 181 1025 128 1010 143 1025 b 235 969 221 1025 235 1007 l 235 882 b 181 829 235 842 222 829 l 139 829 l 139 765 l 185 765 b 243 708 229 765 243 750 l 243 597 b 186 549 243 564 221 549 b 128 597 149 549 128 564 l 128 610 l 54 628 l 54 597 b 186 478 54 522 110 478 b 322 596 263 478 322 522 l 322 707 b 268 800 322 758 303 786 b 314 885 297 813 314 838 l 314 968 b 181 1097 314 1044 268 1097 b 54 979 103 1097 54 1053 z "},"´":{"ha":376,"x_min":0,"x_max":0,"o":"m 139 1135 l 17 915 l 125 915 l 274 1135 z "},"¶":{"ha":639,"x_min":0,"x_max":0,"o":"m 250 1088 b 40 928 103 1088 40 1018 b 194 776 40 856 97 782 l 194 -167 l 285 -167 l 285 996 l 436 996 l 436 -167 l 526 -167 l 526 996 l 574 996 l 593 1088 z "},"·":{"ha":222,"x_min":0,"x_max":0,"o":"m 110 615 b 39 539 63 615 39 582 b 110 463 39 497 63 463 b 183 539 160 463 183 497 b 110 615 183 582 160 615 z "},"¸":{"ha":265,"x_min":0,"x_max":0,"o":"m 88 -28 l 51 -292 l 149 -292 l 210 -28 z "},"¹":{"ha":271,"x_min":0,"x_max":0,"o":"m 39 1029 l 39 967 l 117 967 l 117 489 l 199 489 l 199 1088 l 117 1088 b 67 1029 117 1046 104 1029 z "},"º":{"ha":418,"x_min":0,"x_max":0,"o":"m 342 975 b 206 1107 342 1058 282 1107 b 71 975 129 1107 71 1058 l 71 681 b 206 549 71 597 129 549 b 342 681 282 549 342 597 z m 156 967 b 206 1021 156 1001 175 1021 b 257 967 236 1021 257 1001 l 257 689 b 206 633 257 653 236 633 b 156 689 175 633 156 653 z "},"»":{"ha":518,"x_min":0,"x_max":0,"o":"m 238 849 l 383 424 l 238 0 l 347 0 l 492 424 l 347 849 z m 25 849 l 171 424 l 25 0 l 135 0 l 279 424 l 135 849 z "},"¼":{"ha":850,"x_min":0,"x_max":0,"o":"m 608 1088 l 104 0 l 196 0 l 697 1088 z m 100 1029 l 100 967 l 178 967 l 178 489 l 260 489 l 260 1088 l 178 1088 b 128 1029 178 1046 165 1029 z m 636 599 l 636 257 l 543 257 l 614 481 l 544 481 l 469 251 l 469 185 l 636 185 l 636 0 l 711 0 l 711 185 l 760 185 l 760 257 l 711 257 l 711 599 z "},"½":{"ha":850,"x_min":0,"x_max":0,"o":"m 606 1088 l 101 0 l 193 0 l 694 1088 z m 97 1029 l 97 967 l 175 967 l 175 489 l 257 489 l 257 1088 l 175 1088 b 125 1029 175 1046 163 1029 z m 500 471 l 574 471 l 574 489 b 629 536 574 524 592 536 b 682 475 669 536 682 522 b 661 396 682 447 678 425 b 539 235 633 351 567 278 b 504 118 511 193 504 154 l 504 0 l 763 0 l 763 71 l 586 71 l 586 118 b 615 214 586 164 590 178 b 733 374 650 264 708 332 b 763 474 754 406 763 435 b 631 608 763 569 713 608 b 500 490 547 608 500 564 z "},"¾":{"ha":850,"x_min":0,"x_max":0,"o":"m 633 1088 l 129 0 l 221 0 l 722 1088 z m 661 599 l 661 257 l 568 257 l 639 481 l 569 481 l 494 251 l 494 185 l 661 185 l 661 0 l 736 0 l 736 185 l 785 185 l 785 257 l 736 257 l 736 599 z m 64 960 l 138 960 l 138 975 b 190 1025 138 1010 153 1025 b 244 969 231 1025 244 1007 l 244 882 b 190 829 244 842 232 829 l 149 829 l 149 765 l 194 765 b 253 708 239 765 253 750 l 253 597 b 196 549 253 564 231 549 b 138 597 158 549 138 564 l 138 610 l 64 628 l 64 597 b 196 478 64 522 119 478 b 332 596 272 478 332 522 l 332 707 b 278 800 332 758 313 786 b 324 885 307 813 324 838 l 324 968 b 190 1097 324 1044 278 1097 b 64 979 113 1097 64 1053 z "},"¿":{"ha":496,"x_min":0,"x_max":0,"o":"m 239 -197 b 460 8 364 -197 460 -119 l 460 63 l 347 63 l 347 15 b 247 -75 347 -43 306 -75 b 157 35 189 -75 157 -44 b 231 247 157 110 182 160 b 326 529 296 367 326 431 b 318 628 326 558 324 590 l 246 628 b 133 285 243 485 228 447 b 36 19 65 169 36 106 b 239 -197 36 -128 121 -197 z m 281 769 b 353 846 329 769 353 803 b 281 922 353 888 329 922 b 208 846 232 922 208 888 b 281 769 208 803 232 769 z "},"À":{"ha":549,"x_min":0,"x_max":0,"o":"m 208 1088 l 25 0 l 149 0 l 172 157 l 375 157 l 400 0 l 524 0 l 335 1088 z m 272 808 l 358 264 l 189 264 z m 133 1374 l 281 1154 l 390 1154 l 268 1374 z "},"Á":{"ha":549,"x_min":0,"x_max":0,"o":"m 208 1088 l 25 0 l 149 0 l 172 157 l 375 157 l 400 0 l 524 0 l 335 1088 z m 272 808 l 358 264 l 189 264 z m 279 1374 l 157 1154 l 265 1154 l 414 1374 z "},"Â":{"ha":549,"x_min":0,"x_max":0,"o":"m 208 1088 l 25 0 l 149 0 l 172 157 l 375 157 l 400 0 l 524 0 l 335 1088 z m 272 808 l 358 264 l 189 264 z m 207 1374 l 71 1154 l 174 1154 l 274 1314 l 374 1154 l 478 1154 l 340 1374 z "},"Ã":{"ha":549,"x_min":0,"x_max":0,"o":"m 208 1088 l 25 0 l 149 0 l 172 157 l 375 157 l 400 0 l 524 0 l 335 1088 z m 272 808 l 358 264 l 189 264 z m 86 1204 b 178 1271 111 1258 143 1271 b 371 1204 253 1271 288 1204 b 511 1311 432 1204 476 1240 l 461 1356 b 369 1288 436 1303 404 1288 b 181 1354 299 1288 269 1354 b 36 1249 113 1354 69 1317 z "},"Ä":{"ha":549,"x_min":0,"x_max":0,"o":"m 208 1088 l 25 0 l 149 0 l 172 157 l 375 157 l 400 0 l 524 0 l 335 1088 z m 272 808 l 358 264 l 189 264 z m 388 1358 b 317 1283 340 1358 317 1325 b 388 1206 317 1240 340 1206 b 461 1283 438 1206 461 1240 b 388 1358 461 1325 438 1358 z m 156 1358 b 85 1283 108 1358 85 1325 b 156 1206 85 1240 108 1206 b 229 1283 206 1206 229 1240 b 156 1358 229 1325 206 1358 z "},"Å":{"ha":549,"x_min":0,"x_max":0,"o":"m 208 1088 l 25 0 l 149 0 l 172 157 l 375 157 l 400 0 l 524 0 l 335 1088 z m 272 808 l 358 264 l 189 264 z m 253 1374 b 132 1250 178 1374 132 1319 b 253 1125 132 1181 178 1125 l 292 1125 b 414 1250 368 1125 414 1181 b 292 1374 414 1319 368 1374 z m 292 1306 b 346 1249 324 1306 346 1283 b 292 1193 346 1215 324 1193 l 253 1193 b 200 1249 222 1193 200 1215 b 253 1306 200 1283 222 1306 z "},"Æ":{"ha":746,"x_min":0,"x_max":0,"o":"m 188 1088 l 25 0 l 149 0 l 169 157 l 346 157 l 346 0 l 706 0 l 706 124 l 474 124 l 474 499 l 638 499 l 638 622 l 474 622 l 474 964 l 706 964 l 706 1088 z m 346 964 l 346 264 l 183 264 l 278 964 z "},"Ç":{"ha":526,"x_min":0,"x_max":0,"o":"m 183 889 b 279 983 183 951 221 983 b 371 889 336 983 371 951 l 371 856 l 489 856 l 489 892 b 278 1107 489 1025 407 1107 b 57 892 149 1107 57 1025 l 57 196 b 271 -19 57 63 151 -19 b 489 196 392 -19 489 63 l 489 251 l 371 221 l 371 199 b 276 104 371 136 332 104 b 183 199 221 104 183 136 z m 204 -28 l 168 -292 l 265 -292 l 326 -28 z "},"È":{"ha":464,"x_min":0,"x_max":0,"o":"m 64 1088 l 64 0 l 424 0 l 424 124 l 192 124 l 192 499 l 356 499 l 356 622 l 192 622 l 192 964 l 424 964 l 424 1088 z m 106 1374 l 253 1154 l 363 1154 l 240 1374 z "},"É":{"ha":464,"x_min":0,"x_max":0,"o":"m 64 1088 l 64 0 l 424 0 l 424 124 l 192 124 l 192 499 l 356 499 l 356 622 l 192 622 l 192 964 l 424 964 l 424 1088 z m 254 1374 l 132 1154 l 240 1154 l 389 1374 z "},"Ê":{"ha":464,"x_min":0,"x_max":0,"o":"m 64 1088 l 64 0 l 424 0 l 424 124 l 192 124 l 192 499 l 356 499 l 356 622 l 192 622 l 192 964 l 424 964 l 424 1088 z m 179 1374 l 43 1154 l 146 1154 l 246 1314 l 346 1154 l 450 1154 l 313 1374 z "},"Ë":{"ha":464,"x_min":0,"x_max":0,"o":"m 64 1088 l 64 0 l 424 0 l 424 124 l 192 124 l 192 499 l 356 499 l 356 622 l 192 622 l 192 964 l 424 964 l 424 1088 z m 358 1358 b 288 1283 311 1358 288 1325 b 358 1206 288 1240 311 1206 b 432 1283 408 1206 432 1240 b 358 1358 432 1325 408 1358 z m 126 1358 b 56 1283 79 1358 56 1325 b 126 1206 56 1240 79 1206 b 200 1283 176 1206 200 1240 b 126 1358 200 1325 176 1358 z "},"Ì":{"ha":285,"x_min":0,"x_max":0,"o":"m 93 1088 l 93 0 l 221 0 l 221 1088 z m 17 1374 l 164 1154 l 274 1154 l 151 1374 z "},"Í":{"ha":290,"x_min":0,"x_max":0,"o":"m 64 1088 l 64 0 l 192 0 l 192 1088 z m 142 1374 l 19 1154 l 128 1154 l 276 1374 z "},"Î":{"ha":358,"x_min":0,"x_max":0,"o":"m 115 1088 l 115 0 l 243 0 l 243 1088 z m 113 1374 l -24 1154 l 79 1154 l 179 1314 l 279 1154 l 383 1154 l 246 1374 z "},"Ï":{"ha":325,"x_min":0,"x_max":0,"o":"m 99 1088 l 99 0 l 226 0 l 226 1088 z m 278 1358 b 207 1283 231 1358 207 1325 b 278 1206 207 1240 231 1206 b 351 1283 328 1206 351 1240 b 278 1358 351 1325 328 1358 z m 46 1358 b -25 1283 -1 1358 -25 1325 b 46 1206 -25 1240 -1 1206 b 119 1283 96 1206 119 1240 b 46 1358 119 1325 96 1358 z "},"Ð":{"ha":579,"x_min":0,"x_max":0,"o":"m 81 1088 l 81 622 l 13 622 l 13 499 l 81 499 l 81 0 l 306 0 b 522 250 439 0 522 81 l 522 838 b 306 1088 522 1007 439 1088 z m 208 964 l 296 964 b 396 846 364 964 396 925 l 396 242 b 296 124 396 163 364 124 l 208 124 l 208 499 l 322 499 l 322 622 l 208 622 z "},"Ñ":{"ha":563,"x_min":0,"x_max":0,"o":"m 64 1088 l 64 0 l 175 0 l 175 800 l 385 0 l 499 0 l 499 1088 l 388 1088 l 388 338 l 203 1088 z m 93 1204 b 185 1271 118 1258 150 1271 b 378 1204 260 1271 294 1204 b 518 1311 439 1204 483 1240 l 468 1356 b 376 1288 443 1303 411 1288 b 188 1354 306 1288 276 1354 b 43 1249 119 1354 76 1317 z "},"Ò":{"ha":561,"x_min":0,"x_max":0,"o":"m 504 889 b 281 1107 504 1025 404 1107 b 57 889 156 1107 57 1025 l 57 199 b 281 -19 57 63 156 -19 b 504 199 404 -19 504 63 z m 183 888 b 281 983 183 950 224 983 b 378 888 338 983 378 950 l 378 200 b 281 104 378 138 338 104 b 183 200 224 104 183 138 z m 142 1374 l 289 1154 l 399 1154 l 276 1374 z "},"Ó":{"ha":561,"x_min":0,"x_max":0,"o":"m 504 889 b 281 1107 504 1025 404 1107 b 57 889 156 1107 57 1025 l 57 199 b 281 -19 57 63 156 -19 b 504 199 404 -19 504 63 z m 183 888 b 281 983 183 950 224 983 b 378 888 338 983 378 950 l 378 200 b 281 104 378 138 338 104 b 183 200 224 104 183 138 z m 286 1374 l 164 1154 l 272 1154 l 421 1374 z "},"Ô":{"ha":561,"x_min":0,"x_max":0,"o":"m 504 889 b 281 1107 504 1025 404 1107 b 57 889 156 1107 57 1025 l 57 199 b 281 -19 57 63 156 -19 b 504 199 404 -19 504 63 z m 183 888 b 281 983 183 950 224 983 b 378 888 338 983 378 950 l 378 200 b 281 104 378 138 338 104 b 183 200 224 104 183 138 z m 213 1374 l 76 1154 l 179 1154 l 279 1314 l 379 1154 l 483 1154 l 346 1374 z "},"Õ":{"ha":561,"x_min":0,"x_max":0,"o":"m 504 889 b 281 1107 504 1025 404 1107 b 57 889 156 1107 57 1025 l 57 199 b 281 -19 57 63 156 -19 b 504 199 404 -19 504 63 z m 183 888 b 281 983 183 950 224 983 b 378 888 338 983 378 950 l 378 200 b 281 104 378 138 338 104 b 183 200 224 104 183 138 z m 93 1204 b 185 1271 118 1258 150 1271 b 378 1204 260 1271 294 1204 b 518 1311 439 1204 483 1240 l 468 1356 b 376 1288 443 1303 411 1288 b 188 1354 306 1288 276 1354 b 43 1249 119 1354 76 1317 z "},"Ö":{"ha":561,"x_min":0,"x_max":0,"o":"m 504 889 b 281 1107 504 1025 404 1107 b 57 889 156 1107 57 1025 l 57 199 b 281 -19 57 63 156 -19 b 504 199 404 -19 504 63 z m 183 888 b 281 983 183 950 224 983 b 378 888 338 983 378 950 l 378 200 b 281 104 378 138 338 104 b 183 200 224 104 183 138 z m 396 1358 b 325 1283 349 1358 325 1325 b 396 1206 325 1240 349 1206 b 469 1283 446 1206 469 1240 b 396 1358 469 1325 446 1358 z m 164 1358 b 93 1283 117 1358 93 1325 b 164 1206 93 1240 117 1206 b 238 1283 214 1206 238 1240 b 164 1358 238 1325 214 1358 z "},"×":{"ha":738,"x_min":0,"x_max":0,"o":"m 167 801 l 94 729 l 296 528 l 94 325 l 167 253 l 368 456 l 571 253 l 643 324 l 440 528 l 643 729 l 571 801 l 368 599 z "},"Ø":{"ha":561,"x_min":0,"x_max":0,"o":"m 450 1171 l 415 1067 b 281 1107 378 1093 331 1107 b 57 889 156 1107 57 1025 l 57 199 b 89 78 57 151 68 111 l 36 -83 l 110 -83 l 143 21 b 281 -19 181 -6 228 -19 b 504 199 404 -19 504 63 l 504 889 b 471 1010 504 936 492 976 l 524 1171 z m 281 104 b 189 160 238 104 203 122 l 378 729 l 378 200 b 281 104 378 138 338 104 z m 183 888 b 281 983 183 950 224 983 b 371 929 322 983 357 964 l 183 361 z "},"Ù":{"ha":569,"x_min":0,"x_max":0,"o":"m 61 1088 l 61 199 b 283 -19 61 63 158 -19 b 508 199 410 -19 508 63 l 508 1088 l 383 1088 l 383 200 b 285 104 383 138 343 104 b 189 200 229 104 189 138 l 189 1088 z m 146 1374 l 293 1154 l 403 1154 l 281 1374 z "},"Ú":{"ha":569,"x_min":0,"x_max":0,"o":"m 61 1088 l 61 199 b 283 -19 61 63 158 -19 b 508 199 410 -19 508 63 l 508 1088 l 383 1088 l 383 200 b 285 104 383 138 343 104 b 189 200 229 104 189 138 l 189 1088 z m 289 1374 l 167 1154 l 275 1154 l 424 1374 z "},"Û":{"ha":569,"x_min":0,"x_max":0,"o":"m 61 1088 l 61 199 b 283 -19 61 63 158 -19 b 508 199 410 -19 508 63 l 508 1088 l 383 1088 l 383 200 b 285 104 383 138 343 104 b 189 200 229 104 189 138 l 189 1088 z m 217 1374 l 81 1154 l 183 1154 l 283 1314 l 383 1154 l 488 1154 l 350 1374 z "},"Ü":{"ha":569,"x_min":0,"x_max":0,"o":"m 61 1088 l 61 199 b 283 -19 61 63 158 -19 b 508 199 410 -19 508 63 l 508 1088 l 383 1088 l 383 200 b 285 104 383 138 343 104 b 189 200 229 104 189 138 l 189 1088 z m 399 1358 b 328 1283 351 1358 328 1325 b 399 1206 328 1240 351 1206 b 472 1283 449 1206 472 1240 b 399 1358 472 1325 449 1358 z m 167 1358 b 96 1283 119 1358 96 1325 b 167 1206 96 1240 119 1206 b 240 1283 217 1206 240 1240 b 167 1358 240 1325 217 1358 z "},"Ý":{"ha":572,"x_min":0,"x_max":0,"o":"m 18 1088 l 222 508 l 222 0 l 350 0 l 350 508 l 554 1088 l 431 1088 l 288 665 l 147 1088 z m 292 1374 l 169 1154 l 278 1154 l 426 1374 z "},"Þ":{"ha":560,"x_min":0,"x_max":0,"o":"m 64 1088 l 64 0 l 192 0 l 192 197 l 289 197 b 506 447 422 197 506 278 l 506 653 b 289 903 506 822 422 903 l 192 903 l 192 1088 z m 192 779 l 279 779 b 379 661 347 779 379 740 l 379 439 b 279 321 379 360 347 321 l 192 321 z "},"ß":{"ha":619,"x_min":0,"x_max":0,"o":"m 181 921 b 274 1021 181 983 211 1021 b 363 926 336 1021 363 982 l 363 729 b 279 631 363 658 350 631 l 267 631 l 267 532 l 307 532 b 444 414 408 532 444 508 l 444 217 b 340 106 444 150 407 106 b 246 156 297 106 267 125 l 208 53 b 360 -11 239 19 286 -11 b 565 217 507 -11 565 93 l 565 419 b 447 601 565 531 524 581 b 476 739 467 629 476 674 l 476 935 b 278 1143 476 1047 431 1143 b 64 913 125 1143 64 1047 l 64 0 l 181 0 z "},"à":{"ha":533,"x_min":0,"x_max":0,"o":"m 142 681 b 254 746 165 721 207 746 b 356 626 322 746 356 697 l 356 600 b 213 504 303 567 253 533 b 38 208 89 411 38 333 b 217 -11 38 47 124 -11 b 372 47 275 -11 331 13 l 394 0 l 472 0 l 472 629 b 271 860 472 764 406 860 b 74 765 190 860 114 825 z m 253 106 b 161 226 197 106 161 140 b 274 425 161 297 186 357 b 356 481 297 443 322 460 l 356 154 b 253 106 325 124 292 106 z m 126 1135 l 274 915 l 383 915 l 261 1135 z "},"á":{"ha":533,"x_min":0,"x_max":0,"o":"m 142 681 b 254 746 165 721 207 746 b 356 626 322 746 356 697 l 356 600 b 213 504 303 567 253 533 b 38 208 89 411 38 333 b 217 -11 38 47 124 -11 b 372 47 275 -11 331 13 l 394 0 l 472 0 l 472 629 b 271 860 472 764 406 860 b 74 765 190 860 114 825 z m 253 106 b 161 226 197 106 161 140 b 274 425 161 297 186 357 b 356 481 297 443 322 460 l 356 154 b 253 106 325 124 292 106 z m 274 1135 l 151 915 l 260 915 l 408 1135 z "},"â":{"ha":533,"x_min":0,"x_max":0,"o":"m 142 681 b 254 746 165 721 207 746 b 356 626 322 746 356 697 l 356 600 b 213 504 303 567 253 533 b 38 208 89 411 38 333 b 217 -11 38 47 124 -11 b 372 47 275 -11 331 13 l 394 0 l 472 0 l 472 629 b 271 860 472 764 406 860 b 74 765 190 860 114 825 z m 253 106 b 161 226 197 106 161 140 b 274 425 161 297 186 357 b 356 481 297 443 322 460 l 356 154 b 253 106 325 124 292 106 z m 199 1135 l 63 915 l 165 915 l 265 1075 l 365 915 l 469 915 l 332 1135 z "},"ã":{"ha":533,"x_min":0,"x_max":0,"o":"m 142 681 b 254 746 165 721 207 746 b 356 626 322 746 356 697 l 356 600 b 213 504 303 567 253 533 b 38 208 89 411 38 333 b 217 -11 38 47 124 -11 b 372 47 275 -11 331 13 l 394 0 l 472 0 l 472 629 b 271 860 472 764 406 860 b 74 765 190 860 114 825 z m 253 106 b 161 226 197 106 161 140 b 274 425 161 297 186 357 b 356 481 297 443 322 460 l 356 154 b 253 106 325 124 292 106 z m 79 965 b 171 1032 104 1019 136 1032 b 364 965 246 1032 281 965 b 504 1072 425 965 469 1001 l 454 1117 b 363 1049 429 1064 397 1049 b 174 1115 292 1049 263 1115 b 29 1010 106 1115 63 1078 z "},"ä":{"ha":533,"x_min":0,"x_max":0,"o":"m 142 681 b 254 746 165 721 207 746 b 356 626 322 746 356 697 l 356 600 b 213 504 303 567 253 533 b 38 208 89 411 38 333 b 217 -11 38 47 124 -11 b 372 47 275 -11 331 13 l 394 0 l 472 0 l 472 629 b 271 860 472 764 406 860 b 74 765 190 860 114 825 z m 253 106 b 161 226 197 106 161 140 b 274 425 161 297 186 357 b 356 481 297 443 322 460 l 356 154 b 253 106 325 124 292 106 z m 382 1119 b 311 1044 335 1119 311 1086 b 382 967 311 1001 335 967 b 456 1044 432 967 456 1001 b 382 1119 456 1086 432 1119 z m 150 1119 b 79 1044 103 1119 79 1086 b 150 967 79 1001 103 967 b 224 1044 200 967 224 1001 b 150 1119 224 1086 200 1119 z "},"å":{"ha":533,"x_min":0,"x_max":0,"o":"m 142 681 b 254 746 165 721 207 746 b 356 626 322 746 356 697 l 356 600 b 213 504 303 567 253 533 b 38 208 89 411 38 333 b 217 -11 38 47 124 -11 b 372 47 275 -11 331 13 l 394 0 l 472 0 l 472 629 b 271 860 472 764 406 860 b 74 765 190 860 114 825 z m 253 106 b 161 226 197 106 161 140 b 274 425 161 297 186 357 b 356 481 297 443 322 460 l 356 154 b 253 106 325 124 292 106 z m 246 1135 b 125 1011 171 1135 125 1081 b 246 886 125 942 171 886 l 285 886 b 407 1011 361 886 407 942 b 285 1135 407 1081 361 1135 z m 285 1067 b 339 1010 317 1067 339 1044 b 285 954 339 976 317 954 l 246 954 b 193 1010 215 954 193 976 b 246 1067 193 1044 215 1067 z "},"æ":{"ha":817,"x_min":0,"x_max":0,"o":"m 142 681 b 254 746 165 721 207 746 b 353 654 310 746 353 714 l 353 597 b 38 210 122 450 38 372 b 217 -11 38 47 124 -11 b 392 67 285 -11 349 21 b 557 -11 428 17 489 -11 b 764 194 672 -11 764 67 l 764 282 l 651 253 l 651 199 b 561 108 651 140 614 108 b 472 199 510 108 472 140 l 472 267 b 767 636 681 397 767 488 b 560 860 767 806 657 860 b 413 806 501 860 450 840 b 271 860 379 840 332 860 b 74 765 190 860 114 825 z m 251 106 b 161 228 197 106 161 140 b 353 479 161 319 200 379 l 353 194 b 356 156 353 181 353 168 b 251 106 325 125 292 106 z m 472 649 b 557 746 472 710 504 746 b 647 625 606 746 647 717 b 472 386 647 532 604 472 z "},"ç":{"ha":514,"x_min":0,"x_max":0,"o":"m 176 647 b 265 738 176 706 214 738 b 356 647 318 738 356 706 l 356 618 l 468 618 l 468 654 b 261 860 468 782 376 860 b 57 654 147 860 57 782 l 57 194 b 261 -11 57 67 147 -11 b 468 194 376 -11 468 67 l 468 282 l 356 253 l 356 201 b 265 111 356 143 318 111 b 176 201 214 111 176 143 z m 197 -28 l 161 -292 l 258 -292 l 319 -28 z "},"è":{"ha":521,"x_min":0,"x_max":0,"o":"m 335 381 b 471 636 429 458 471 532 b 263 860 471 806 363 860 b 57 654 147 860 57 782 l 57 194 b 261 -11 57 67 147 -11 b 468 194 376 -11 468 67 l 468 282 l 356 253 l 356 199 b 265 108 356 140 318 108 b 176 199 214 108 176 140 l 176 267 b 335 381 243 308 296 347 z m 176 649 b 261 746 176 710 208 746 b 351 628 310 746 351 715 b 272 458 351 560 329 511 b 176 386 250 438 217 413 z m 121 1135 l 268 915 l 378 915 l 256 1135 z "},"é":{"ha":521,"x_min":0,"x_max":0,"o":"m 335 381 b 471 636 429 458 471 532 b 263 860 471 806 363 860 b 57 654 147 860 57 782 l 57 194 b 261 -11 57 67 147 -11 b 468 194 376 -11 468 67 l 468 282 l 356 253 l 356 199 b 265 108 356 140 318 108 b 176 199 214 108 176 140 l 176 267 b 335 381 243 308 296 347 z m 176 649 b 261 746 176 710 208 746 b 351 628 310 746 351 715 b 272 458 351 560 329 511 b 176 386 250 438 217 413 z m 268 1135 l 146 915 l 254 915 l 403 1135 z "},"ê":{"ha":521,"x_min":0,"x_max":0,"o":"m 335 381 b 471 636 429 458 471 532 b 263 860 471 806 363 860 b 57 654 147 860 57 782 l 57 194 b 261 -11 57 67 147 -11 b 468 194 376 -11 468 67 l 468 282 l 356 253 l 356 199 b 265 108 356 140 318 108 b 176 199 214 108 176 140 l 176 267 b 335 381 243 308 296 347 z m 176 649 b 261 746 176 710 208 746 b 351 628 310 746 351 715 b 272 458 351 560 329 511 b 176 386 250 438 217 413 z m 193 1135 l 57 915 l 160 915 l 260 1075 l 360 915 l 464 915 l 326 1135 z "},"ë":{"ha":521,"x_min":0,"x_max":0,"o":"m 335 381 b 471 636 429 458 471 532 b 263 860 471 806 363 860 b 57 654 147 860 57 782 l 57 194 b 261 -11 57 67 147 -11 b 468 194 376 -11 468 67 l 468 282 l 356 253 l 356 199 b 265 108 356 140 318 108 b 176 199 214 108 176 140 l 176 267 b 335 381 243 308 296 347 z m 176 649 b 261 746 176 710 208 746 b 351 628 310 746 351 715 b 272 458 351 560 329 511 b 176 386 250 438 217 413 z m 375 1119 b 304 1044 328 1119 304 1086 b 375 967 304 1001 328 967 b 449 1044 425 967 449 1001 b 375 1119 449 1086 425 1119 z m 143 1119 b 72 1044 96 1119 72 1086 b 143 967 72 1001 96 967 b 217 1044 193 967 217 1001 b 143 1119 217 1086 193 1119 z "},"ì":{"ha":278,"x_min":0,"x_max":0,"o":"m 13 1135 l 160 915 l 269 915 l 147 1135 z m 90 849 l 90 0 l 214 0 l 214 849 z "},"í":{"ha":285,"x_min":0,"x_max":0,"o":"m 139 1135 l 17 915 l 125 915 l 274 1135 z m 64 849 l 64 0 l 188 0 l 188 849 z "},"î":{"ha":375,"x_min":0,"x_max":0,"o":"m 125 849 l 125 0 l 249 0 l 249 849 z m 119 1135 l -17 915 l 86 915 l 186 1075 l 286 915 l 390 915 l 253 1135 z "},"ï":{"ha":365,"x_min":0,"x_max":0,"o":"m 297 1119 b 226 1044 250 1119 226 1086 b 297 967 226 1001 250 967 b 371 1044 347 967 371 1001 b 297 1119 371 1086 347 1119 z m 65 1119 b -6 1044 18 1119 -6 1086 b 65 967 -6 1001 18 967 b 139 1044 115 967 139 1001 b 65 1119 139 1086 115 1119 z m 122 849 l 122 0 l 246 0 l 246 849 z "},"ð":{"ha":524,"x_min":0,"x_max":0,"o":"m 149 965 b 265 1033 175 1006 217 1033 b 322 1017 288 1033 307 1028 l 151 814 l 192 776 l 356 969 b 365 911 361 953 365 933 l 365 635 b 225 699 329 672 282 699 b 58 506 136 699 58 636 l 58 200 b 271 -11 58 69 153 -11 b 479 200 388 -11 479 69 l 479 913 b 438 1067 479 974 465 1026 l 503 1143 l 461 1181 l 399 1107 b 278 1143 368 1129 328 1143 b 81 1049 197 1143 121 1108 z m 269 111 b 174 204 215 111 174 143 l 174 481 b 257 583 174 546 200 583 b 365 518 300 583 335 560 l 365 204 b 269 111 365 143 322 111 z "},"ñ":{"ha":560,"x_min":0,"x_max":0,"o":"m 64 849 l 64 0 l 188 0 l 188 693 b 286 738 218 722 250 738 b 375 628 349 738 375 697 l 375 0 l 499 0 l 499 654 b 321 860 499 793 418 860 b 168 800 267 860 211 839 l 149 849 z m 92 965 b 183 1032 117 1019 149 1032 b 376 965 258 1032 293 965 b 517 1072 438 965 482 1001 l 467 1117 b 375 1049 442 1064 410 1049 b 186 1115 304 1049 275 1115 b 42 1010 118 1115 75 1078 z "},"ò":{"ha":536,"x_min":0,"x_max":0,"o":"m 479 654 b 268 860 479 782 385 860 b 57 654 150 860 57 782 l 57 194 b 268 -11 57 67 150 -11 b 479 194 385 -11 479 67 z m 176 647 b 268 738 176 706 215 738 b 358 647 321 738 358 706 l 358 201 b 268 111 358 143 321 111 b 176 201 215 111 176 143 z m 128 1135 l 275 915 l 385 915 l 263 1135 z "},"ó":{"ha":536,"x_min":0,"x_max":0,"o":"m 479 654 b 268 860 479 782 385 860 b 57 654 150 860 57 782 l 57 194 b 268 -11 57 67 150 -11 b 479 194 385 -11 479 67 z m 176 647 b 268 738 176 706 215 738 b 358 647 321 738 358 706 l 358 201 b 268 111 358 143 321 111 b 176 201 215 111 176 143 z m 272 1135 l 150 915 l 258 915 l 407 1135 z "},"ô":{"ha":536,"x_min":0,"x_max":0,"o":"m 479 654 b 268 860 479 782 385 860 b 57 654 150 860 57 782 l 57 194 b 268 -11 57 67 150 -11 b 479 194 385 -11 479 67 z m 176 647 b 268 738 176 706 215 738 b 358 647 321 738 358 706 l 358 201 b 268 111 358 143 321 111 b 176 201 215 111 176 143 z m 200 1135 l 64 915 l 167 915 l 267 1075 l 367 915 l 471 915 l 333 1135 z "},"õ":{"ha":536,"x_min":0,"x_max":0,"o":"m 479 654 b 268 860 479 782 385 860 b 57 654 150 860 57 782 l 57 194 b 268 -11 57 67 150 -11 b 479 194 385 -11 479 67 z m 176 647 b 268 738 176 706 215 738 b 358 647 321 738 358 706 l 358 201 b 268 111 358 143 321 111 b 176 201 215 111 176 143 z m 81 965 b 172 1032 106 1019 138 1032 b 365 965 247 1032 282 965 b 506 1072 426 965 471 1001 l 456 1117 b 364 1049 431 1064 399 1049 b 175 1115 293 1049 264 1115 b 31 1010 107 1115 64 1078 z "},"ö":{"ha":536,"x_min":0,"x_max":0,"o":"m 479 654 b 268 860 479 782 385 860 b 57 654 150 860 57 782 l 57 194 b 268 -11 57 67 150 -11 b 479 194 385 -11 479 67 z m 176 647 b 268 738 176 706 215 738 b 358 647 321 738 358 706 l 358 201 b 268 111 358 143 321 111 b 176 201 215 111 176 143 z m 382 1119 b 311 1044 335 1119 311 1086 b 382 967 311 1001 335 967 b 456 1044 432 967 456 1001 b 382 1119 456 1086 432 1119 z m 150 1119 b 79 1044 103 1119 79 1086 b 150 967 79 1001 103 967 b 224 1044 200 967 224 1001 b 150 1119 224 1086 200 1119 z "},"÷":{"ha":738,"x_min":0,"x_max":0,"o":"m 64 578 l 64 476 l 674 476 l 674 578 z m 367 321 b 296 244 319 321 296 288 b 367 168 296 203 319 168 b 440 244 417 168 440 203 b 367 321 440 288 417 321 z m 367 888 b 296 811 319 888 296 854 b 367 735 296 769 319 735 b 440 811 417 735 440 769 b 367 888 440 854 417 888 z "},"ø":{"ha":536,"x_min":0,"x_max":0,"o":"m 393 932 l 364 840 b 268 860 335 853 303 860 b 57 654 150 860 57 782 l 57 194 b 114 47 57 132 78 82 l 74 -83 l 142 -83 l 171 8 b 268 -11 200 -4 232 -11 b 479 194 385 -11 479 67 l 479 654 b 419 801 479 717 457 767 l 461 932 z m 268 111 b 208 129 244 111 224 117 l 358 606 l 358 201 b 268 111 358 143 321 111 z m 176 647 b 268 738 176 706 215 738 b 326 719 290 738 311 732 l 176 243 z "},"ù":{"ha":554,"x_min":0,"x_max":0,"o":"m 367 849 l 367 154 b 272 111 336 125 304 111 b 185 221 215 111 185 147 l 185 849 l 61 849 l 61 194 b 238 -11 61 56 142 -11 b 385 47 292 -11 343 8 l 406 0 l 490 0 l 490 849 z m 138 1135 l 285 915 l 394 915 l 272 1135 z "},"ú":{"ha":554,"x_min":0,"x_max":0,"o":"m 367 849 l 367 154 b 272 111 336 125 304 111 b 185 221 215 111 185 147 l 185 849 l 61 849 l 61 194 b 238 -11 61 56 142 -11 b 385 47 292 -11 343 8 l 406 0 l 490 0 l 490 849 z m 283 1135 l 161 915 l 269 915 l 418 1135 z "},"û":{"ha":554,"x_min":0,"x_max":0,"o":"m 367 849 l 367 154 b 272 111 336 125 304 111 b 185 221 215 111 185 147 l 185 849 l 61 849 l 61 194 b 238 -11 61 56 142 -11 b 385 47 292 -11 343 8 l 406 0 l 490 0 l 490 849 z m 210 1135 l 74 915 l 176 915 l 276 1075 l 376 915 l 481 915 l 343 1135 z "},"ü":{"ha":554,"x_min":0,"x_max":0,"o":"m 367 849 l 367 154 b 272 111 336 125 304 111 b 185 221 215 111 185 147 l 185 849 l 61 849 l 61 194 b 238 -11 61 56 142 -11 b 385 47 292 -11 343 8 l 406 0 l 490 0 l 490 849 z m 390 1119 b 319 1044 343 1119 319 1086 b 390 967 319 1001 343 967 b 464 1044 440 967 464 1001 b 390 1119 464 1086 440 1119 z m 158 1119 b 88 1044 111 1119 88 1086 b 158 967 88 1001 111 967 b 232 1044 208 967 232 1001 b 158 1119 232 1086 208 1119 z "},"ý":{"ha":554,"x_min":0,"x_max":0,"o":"m 367 849 l 367 168 b 272 125 336 139 304 125 b 185 235 215 125 185 161 l 185 849 l 61 849 l 61 208 b 238 3 61 69 142 3 b 367 46 283 3 328 17 l 367 -237 l 490 -237 l 490 849 z m 283 1135 l 161 915 l 269 915 l 418 1135 z "},"þ":{"ha":549,"x_min":0,"x_max":0,"o":"m 64 1101 l 64 -237 l 188 -237 l 188 38 b 324 -11 226 6 275 -11 b 499 194 417 -11 499 56 l 499 654 b 324 860 499 793 417 860 b 188 811 275 860 226 842 l 188 1132 z m 289 738 b 375 628 349 738 375 697 l 375 221 b 289 111 375 151 349 111 b 188 160 250 111 218 128 l 188 689 b 289 738 218 721 250 738 z "},"ÿ":{"ha":554,"x_min":0,"x_max":0,"o":"m 367 849 l 367 168 b 272 125 336 139 304 125 b 185 235 215 125 185 161 l 185 849 l 61 849 l 61 208 b 238 3 61 69 142 3 b 367 46 283 3 328 17 l 367 -237 l 490 -237 l 490 849 z m 392 1119 b 321 1044 344 1119 321 1086 b 392 967 321 1001 344 967 b 465 1044 442 967 465 1001 b 392 1119 465 1086 442 1119 z m 160 1119 b 89 1044 113 1119 89 1086 b 160 967 89 1001 113 967 b 233 1044 210 967 233 1001 b 160 1119 233 1086 210 1119 z "},"Ā":{"ha":549,"x_min":0,"x_max":0,"o":"m 208 1088 l 25 0 l 149 0 l 172 157 l 375 157 l 400 0 l 524 0 l 335 1088 z m 272 808 l 358 264 l 189 264 z m 49 1321 l 49 1228 l 499 1228 l 499 1321 z "},"ā":{"ha":533,"x_min":0,"x_max":0,"o":"m 142 681 b 254 746 165 721 207 746 b 356 626 322 746 356 697 l 356 600 b 213 504 303 567 253 533 b 38 208 89 411 38 333 b 217 -11 38 47 124 -11 b 372 47 275 -11 331 13 l 394 0 l 472 0 l 472 629 b 271 860 472 764 406 860 b 74 765 190 860 114 825 z m 253 106 b 161 226 197 106 161 140 b 274 425 161 297 186 357 b 356 481 297 443 322 460 l 356 154 b 253 106 325 124 292 106 z m 42 1082 l 42 989 l 492 989 l 492 1082 z "},"Ă":{"ha":549,"x_min":0,"x_max":0,"o":"m 208 1088 l 25 0 l 149 0 l 172 157 l 375 157 l 400 0 l 524 0 l 335 1088 z m 272 808 l 358 264 l 189 264 z m 97 1374 b 274 1158 103 1264 153 1158 b 449 1374 393 1158 443 1263 l 358 1374 b 274 1231 353 1268 321 1231 b 189 1374 226 1231 194 1268 z "},"ă":{"ha":533,"x_min":0,"x_max":0,"o":"m 142 681 b 254 746 165 721 207 746 b 356 626 322 746 356 697 l 356 600 b 213 504 303 567 253 533 b 38 208 89 411 38 333 b 217 -11 38 47 124 -11 b 372 47 275 -11 331 13 l 394 0 l 472 0 l 472 629 b 271 860 472 764 406 860 b 74 765 190 860 114 825 z m 253 106 b 161 226 197 106 161 140 b 274 425 161 297 186 357 b 356 481 297 443 322 460 l 356 154 b 253 106 325 124 292 106 z m 90 1135 b 267 919 96 1025 146 919 b 442 1135 386 919 436 1024 l 351 1135 b 267 992 346 1029 314 992 b 182 1135 219 992 188 1029 z "},"Ą":{"ha":549,"x_min":0,"x_max":0,"o":"m 357 -29 b 217 -167 264 -58 217 -100 b 396 -292 217 -225 253 -292 b 560 -244 479 -292 536 -269 l 519 -160 b 415 -185 496 -176 457 -185 b 326 -128 347 -185 326 -162 b 406 -51 326 -99 343 -79 l 524 0 l 335 1088 l 208 1088 l 25 0 l 149 0 l 172 157 l 375 157 l 403 -14 z m 272 810 l 358 264 l 189 264 z "},"ą":{"ha":533,"x_min":0,"x_max":0,"o":"m 306 -29 b 165 -167 213 -58 165 -100 b 344 -292 165 -225 201 -292 b 508 -244 428 -292 485 -269 l 468 -160 b 364 -185 444 -176 406 -185 b 275 -128 296 -185 275 -162 b 354 -51 275 -99 292 -79 l 472 0 l 472 629 b 271 860 472 764 406 860 b 74 765 190 860 114 825 l 142 681 b 254 746 165 721 207 746 b 356 626 322 746 356 697 l 356 600 b 38 211 124 450 38 374 b 217 -11 38 47 124 -11 b 372 47 275 -11 331 13 l 394 -1 z m 253 106 b 161 228 197 106 161 140 b 356 481 161 318 200 383 l 356 154 b 253 106 325 124 292 106 z "},"Ć":{"ha":526,"x_min":0,"x_max":0,"o":"m 183 889 b 279 983 183 951 221 983 b 371 889 336 983 371 951 l 371 856 l 489 856 l 489 892 b 278 1107 489 1025 407 1107 b 57 892 149 1107 57 1025 l 57 196 b 271 -19 57 63 151 -19 b 489 196 392 -19 489 63 l 489 251 l 371 221 l 371 199 b 276 104 371 136 332 104 b 183 199 221 104 183 136 z m 286 1374 l 164 1154 l 272 1154 l 421 1374 z "},"ć":{"ha":514,"x_min":0,"x_max":0,"o":"m 176 647 b 265 738 176 706 214 738 b 356 647 318 738 356 706 l 356 618 l 468 618 l 468 654 b 261 860 468 782 376 860 b 57 654 147 860 57 782 l 57 194 b 261 -11 57 67 147 -11 b 468 194 376 -11 468 67 l 468 282 l 356 253 l 356 201 b 265 111 356 143 318 111 b 176 201 214 111 176 143 z m 275 1135 l 153 915 l 261 915 l 410 1135 z "},"Ċ":{"ha":526,"x_min":0,"x_max":0,"o":"m 183 889 b 279 983 183 951 221 983 b 371 889 336 983 371 951 l 371 856 l 489 856 l 489 892 b 278 1107 489 1025 407 1107 b 57 892 149 1107 57 1025 l 57 196 b 271 -19 57 63 151 -19 b 489 196 392 -19 489 63 l 489 251 l 371 221 l 371 199 b 276 104 371 136 332 104 b 183 199 221 104 183 136 z m 279 1358 b 208 1283 232 1358 208 1325 b 279 1206 208 1240 232 1206 b 353 1283 329 1206 353 1240 b 279 1358 353 1325 329 1358 z "},"ċ":{"ha":514,"x_min":0,"x_max":0,"o":"m 176 647 b 265 738 176 706 214 738 b 356 647 318 738 356 706 l 356 618 l 468 618 l 468 654 b 261 860 468 782 376 860 b 57 654 147 860 57 782 l 57 194 b 261 -11 57 67 147 -11 b 468 194 376 -11 468 67 l 468 282 l 356 253 l 356 201 b 265 111 356 143 318 111 b 176 201 214 111 176 143 z m 267 1119 b 196 1044 219 1119 196 1086 b 267 967 196 1001 219 967 b 340 1044 317 967 340 1001 b 267 1119 340 1086 317 1119 z "},"Č":{"ha":526,"x_min":0,"x_max":0,"o":"m 183 889 b 279 983 183 951 221 983 b 371 889 336 983 371 951 l 371 856 l 489 856 l 489 892 b 278 1107 489 1025 407 1107 b 57 892 149 1107 57 1025 l 57 196 b 271 -19 57 63 151 -19 b 489 196 392 -19 489 63 l 489 251 l 371 221 l 371 199 b 276 104 371 136 332 104 b 183 199 221 104 183 136 z m 78 1374 l 215 1154 l 349 1154 l 485 1374 l 382 1374 l 281 1213 l 182 1374 z "},"č":{"ha":514,"x_min":0,"x_max":0,"o":"m 176 647 b 265 738 176 706 214 738 b 356 647 318 738 356 706 l 356 618 l 468 618 l 468 654 b 261 860 468 782 376 860 b 57 654 147 860 57 782 l 57 194 b 261 -11 57 67 147 -11 b 468 194 376 -11 468 67 l 468 282 l 356 253 l 356 201 b 265 111 356 143 318 111 b 176 201 214 111 176 143 z m 64 1135 l 201 915 l 335 915 l 471 1135 l 368 1135 l 267 974 l 168 1135 z "},"Ď":{"ha":563,"x_min":0,"x_max":0,"o":"m 64 1088 l 64 0 l 289 0 b 506 250 422 0 506 81 l 506 838 b 289 1088 506 1007 422 1088 z m 192 964 l 279 964 b 379 846 347 964 379 925 l 379 242 b 279 124 379 163 347 124 l 192 124 z m 50 1374 l 188 1154 l 321 1154 l 457 1374 l 354 1374 l 253 1213 l 154 1374 z "},"ď":{"ha":701,"x_min":0,"x_max":0,"o":"m 368 1101 l 368 811 b 232 860 328 842 281 860 b 57 654 139 860 57 793 l 57 194 b 232 -11 57 56 139 -11 b 386 53 288 -11 343 13 l 407 0 l 492 0 l 492 1132 z m 181 628 b 267 738 181 697 206 738 b 368 689 304 738 338 721 l 368 160 b 267 111 338 128 304 111 b 181 221 206 111 181 151 z m 592 1119 l 556 856 l 653 856 l 714 1119 z "},"Đ":{"ha":579,"x_min":0,"x_max":0,"o":"m 81 1088 l 81 622 l 13 622 l 13 499 l 81 499 l 81 0 l 306 0 b 522 250 439 0 522 81 l 522 838 b 306 1088 522 1007 439 1088 z m 208 964 l 296 964 b 396 846 364 964 396 925 l 396 242 b 296 124 396 163 364 124 l 208 124 l 208 499 l 322 499 l 322 622 l 208 622 z "},"đ":{"ha":556,"x_min":0,"x_max":0,"o":"m 97 1026 l 97 933 l 368 933 l 368 811 b 232 860 328 842 281 860 b 57 654 139 860 57 793 l 57 194 b 232 -11 57 56 139 -11 b 386 53 288 -11 343 13 l 407 0 l 492 0 l 492 933 l 547 933 l 547 1026 l 492 1026 l 492 1132 l 368 1101 l 368 1026 z m 181 628 b 267 738 181 697 206 738 b 368 689 304 738 338 721 l 368 160 b 267 111 338 128 304 111 b 181 221 206 111 181 151 z "},"Ē":{"ha":464,"x_min":0,"x_max":0,"o":"m 64 1088 l 64 0 l 424 0 l 424 124 l 192 124 l 192 499 l 356 499 l 356 622 l 192 622 l 192 964 l 424 964 l 424 1088 z m 21 1321 l 21 1228 l 471 1228 l 471 1321 z "},"ē":{"ha":521,"x_min":0,"x_max":0,"o":"m 335 381 b 471 636 429 458 471 532 b 263 860 471 806 363 860 b 57 654 147 860 57 782 l 57 194 b 261 -11 57 67 147 -11 b 468 194 376 -11 468 67 l 468 282 l 356 253 l 356 199 b 265 108 356 140 318 108 b 176 199 214 108 176 140 l 176 267 b 335 381 243 308 296 347 z m 176 649 b 261 746 176 710 208 746 b 351 628 310 746 351 715 b 272 458 351 560 329 511 b 176 386 250 438 217 413 z m 36 1082 l 36 989 l 486 989 l 486 1082 z "},"Ė":{"ha":464,"x_min":0,"x_max":0,"o":"m 64 1088 l 64 0 l 424 0 l 424 124 l 192 124 l 192 499 l 356 499 l 356 622 l 192 622 l 192 964 l 424 964 l 424 1088 z m 246 1358 b 175 1283 199 1358 175 1325 b 246 1206 175 1240 199 1206 b 319 1283 296 1206 319 1240 b 246 1358 319 1325 296 1358 z "},"ė":{"ha":521,"x_min":0,"x_max":0,"o":"m 335 381 b 471 636 429 458 471 532 b 263 860 471 806 363 860 b 57 654 147 860 57 782 l 57 194 b 261 -11 57 67 147 -11 b 468 194 376 -11 468 67 l 468 282 l 356 253 l 356 199 b 265 108 356 140 318 108 b 176 199 214 108 176 140 l 176 267 b 335 381 243 308 296 347 z m 176 649 b 261 746 176 710 208 746 b 351 628 310 746 351 715 b 272 458 351 560 329 511 b 176 386 250 438 217 413 z m 260 1119 b 189 1044 213 1119 189 1086 b 260 967 189 1001 213 967 b 333 1044 310 967 333 1001 b 260 1119 333 1086 310 1119 z "},"Ę":{"ha":464,"x_min":0,"x_max":0,"o":"m 257 -29 b 117 -167 164 -58 117 -100 b 296 -292 117 -225 153 -292 b 460 -244 379 -292 436 -269 l 419 -160 b 315 -185 396 -176 357 -185 b 226 -128 247 -185 226 -162 b 306 -51 226 -99 243 -79 l 424 0 l 424 124 l 192 124 l 192 499 l 356 499 l 356 622 l 192 622 l 192 964 l 424 964 l 424 1088 l 64 1088 l 64 0 l 350 0 z "},"ę":{"ha":521,"x_min":0,"x_max":0,"o":"m 164 -29 b 24 -167 71 -58 24 -100 b 203 -292 24 -225 60 -292 b 367 -244 286 -292 343 -269 l 326 -160 b 222 -185 303 -176 264 -185 b 133 -128 154 -185 133 -162 b 213 -51 133 -99 150 -79 l 324 -3 b 468 194 407 19 468 90 l 468 282 l 356 253 l 356 199 b 265 108 356 140 318 108 b 176 199 214 108 176 140 l 176 267 b 335 381 243 308 296 347 b 471 636 429 458 471 532 b 263 860 471 806 363 860 b 57 654 147 860 57 782 l 57 194 b 228 -8 57 79 129 4 z m 176 649 b 261 746 176 710 208 746 b 351 628 310 746 351 715 b 272 458 351 560 329 511 b 176 386 250 438 217 413 z "},"Ě":{"ha":464,"x_min":0,"x_max":0,"o":"m 64 1088 l 64 0 l 424 0 l 424 124 l 192 124 l 192 499 l 356 499 l 356 622 l 192 622 l 192 964 l 424 964 l 424 1088 z m 43 1374 l 181 1154 l 314 1154 l 450 1374 l 347 1374 l 246 1213 l 147 1374 z "},"ě":{"ha":521,"x_min":0,"x_max":0,"o":"m 335 381 b 471 636 429 458 471 532 b 263 860 471 806 363 860 b 57 654 147 860 57 782 l 57 194 b 261 -11 57 67 147 -11 b 468 194 376 -11 468 67 l 468 282 l 356 253 l 356 199 b 265 108 356 140 318 108 b 176 199 214 108 176 140 l 176 267 b 335 381 243 308 296 347 z m 176 649 b 261 746 176 710 208 746 b 351 628 310 746 351 715 b 272 458 351 560 329 511 b 176 386 250 438 217 413 z m 57 1135 l 194 915 l 328 915 l 464 1135 l 361 1135 l 260 974 l 161 1135 z "},"Ğ":{"ha":546,"x_min":0,"x_max":0,"o":"m 181 889 b 278 983 181 951 219 983 b 371 889 333 983 371 951 l 371 856 l 489 856 l 489 892 b 276 1107 489 1025 404 1107 b 57 892 149 1107 57 1025 l 57 196 b 250 -19 57 63 139 -19 b 400 47 314 -19 365 8 l 406 0 l 485 0 l 485 603 l 265 603 l 265 488 l 374 488 l 374 199 b 274 104 374 136 329 104 b 181 199 218 104 181 136 z m 100 1374 b 276 1158 106 1264 156 1158 b 451 1374 396 1158 446 1263 l 361 1374 b 276 1231 356 1268 324 1231 b 192 1374 229 1231 197 1268 z "},"ğ":{"ha":544,"x_min":0,"x_max":0,"o":"m 58 429 b 149 256 58 350 93 289 b 88 149 111 231 88 196 b 107 79 88 121 94 97 b 4 -74 38 51 4 -7 b 176 -237 4 -160 63 -237 l 346 -237 l 394 -133 l 200 -133 b 131 -68 154 -133 131 -104 b 215 -3 131 -31 154 -3 l 453 -3 l 501 103 l 258 103 b 188 161 208 103 188 126 b 221 228 188 189 199 210 b 269 224 236 225 253 224 b 481 429 386 224 481 301 l 481 654 b 467 732 481 682 475 708 l 536 839 l 382 831 b 269 860 350 850 311 860 b 58 654 151 860 58 782 z m 175 653 b 269 746 175 715 214 746 b 364 653 324 746 364 715 l 364 431 b 269 338 364 369 324 338 b 175 431 214 338 175 369 z m 96 1135 b 272 919 101 1025 151 919 b 447 1135 392 919 442 1024 l 357 1135 b 272 992 351 1029 319 992 b 188 1135 225 992 193 1029 z "},"Ġ":{"ha":546,"x_min":0,"x_max":0,"o":"m 181 889 b 278 983 181 951 219 983 b 371 889 333 983 371 951 l 371 856 l 489 856 l 489 892 b 276 1107 489 1025 404 1107 b 57 892 149 1107 57 1025 l 57 196 b 250 -19 57 63 139 -19 b 400 47 314 -19 365 8 l 406 0 l 485 0 l 485 603 l 265 603 l 265 488 l 374 488 l 374 199 b 274 104 374 136 329 104 b 181 199 218 104 181 136 z m 276 1358 b 206 1283 229 1358 206 1325 b 276 1206 206 1240 229 1206 b 350 1283 326 1206 350 1240 b 276 1358 350 1325 326 1358 z "},"ġ":{"ha":544,"x_min":0,"x_max":0,"o":"m 58 429 b 149 256 58 350 93 289 b 88 149 111 231 88 196 b 107 79 88 121 94 97 b 4 -74 38 51 4 -7 b 176 -237 4 -160 63 -237 l 346 -237 l 394 -133 l 200 -133 b 131 -68 154 -133 131 -104 b 215 -3 131 -31 154 -3 l 453 -3 l 501 103 l 258 103 b 188 161 208 103 188 126 b 221 228 188 189 199 210 b 269 224 236 225 253 224 b 481 429 386 224 481 301 l 481 654 b 467 732 481 682 475 708 l 536 839 l 382 831 b 269 860 350 850 311 860 b 58 654 151 860 58 782 z m 175 653 b 269 746 175 715 214 746 b 364 653 324 746 364 715 l 364 431 b 269 338 364 369 324 338 b 175 431 214 338 175 369 z m 271 1119 b 200 1044 224 1119 200 1086 b 271 967 200 1001 224 967 b 344 1044 321 967 344 1001 b 271 1119 344 1086 321 1119 z "},"Ģ":{"ha":546,"x_min":0,"x_max":0,"o":"m 181 889 b 278 983 181 951 219 983 b 371 889 333 983 371 951 l 371 856 l 489 856 l 489 892 b 276 1107 489 1025 404 1107 b 57 892 149 1107 57 1025 l 57 196 b 250 -19 57 63 139 -19 b 400 47 314 -19 365 8 l 406 0 l 485 0 l 485 603 l 265 603 l 265 488 l 374 488 l 374 199 b 274 104 374 136 329 104 b 181 199 218 104 181 136 z m 206 -28 l 169 -292 l 267 -292 l 328 -28 z "},"ģ":{"ha":544,"x_min":0,"x_max":0,"o":"m 58 429 b 149 256 58 350 93 289 b 88 149 111 231 88 196 b 107 79 88 121 94 97 b 4 -74 38 51 4 -7 b 176 -237 4 -160 63 -237 l 346 -237 l 394 -133 l 200 -133 b 131 -68 154 -133 131 -104 b 215 -3 131 -31 154 -3 l 453 -3 l 501 103 l 258 103 b 188 161 208 103 188 126 b 221 228 188 189 199 210 b 269 224 236 225 253 224 b 481 429 386 224 481 301 l 481 654 b 467 732 481 682 475 708 l 536 839 l 382 831 b 269 860 350 850 311 860 b 58 654 151 860 58 782 z m 175 653 b 269 746 175 715 214 746 b 364 653 324 746 364 715 l 364 431 b 269 338 364 369 324 338 b 175 431 214 338 175 369 z m 322 1294 l 225 1071 b 210 1013 214 1046 210 1031 b 283 938 210 972 233 938 b 354 1014 331 938 353 969 l 367 1294 z "},"Ħ":{"ha":654,"x_min":0,"x_max":0,"o":"m 18 904 l 18 811 l 103 811 l 103 0 l 231 0 l 231 492 l 424 492 l 424 0 l 551 0 l 551 811 l 635 811 l 635 904 l 551 904 l 551 1088 l 424 1088 l 424 904 l 231 904 l 231 1088 l 103 1088 l 103 904 z m 231 614 l 231 811 l 424 811 l 424 614 z "},"ħ":{"ha":560,"x_min":0,"x_max":0,"o":"m 64 1101 l 64 1026 l 8 1026 l 8 933 l 64 933 l 64 0 l 188 0 l 188 693 b 286 738 218 722 250 738 b 375 628 349 738 375 697 l 375 0 l 499 0 l 499 654 b 321 860 499 793 418 860 b 188 815 274 860 226 844 l 188 933 l 458 933 l 458 1026 l 188 1026 l 188 1132 z "},"Ĩ":{"ha":392,"x_min":0,"x_max":0,"o":"m 132 1088 l 132 0 l 260 0 l 260 1088 z m 8 1204 b 100 1271 33 1258 65 1271 b 293 1204 175 1271 210 1204 b 433 1311 354 1204 399 1240 l 383 1356 b 292 1288 358 1303 326 1288 b 103 1354 221 1288 192 1354 b -42 1249 35 1354 -8 1317 z "},"ĩ":{"ha":411,"x_min":0,"x_max":0,"o":"m 18 965 b 110 1032 43 1019 75 1032 b 303 965 185 1032 219 965 b 443 1072 364 965 408 1001 l 393 1117 b 301 1049 368 1064 336 1049 b 113 1115 231 1049 201 1115 b -32 1010 44 1115 1 1078 z m 144 849 l 144 0 l 268 0 l 268 849 z "},"Ī":{"ha":360,"x_min":0,"x_max":0,"o":"m 115 1088 l 115 0 l 243 0 l 243 1088 z m -44 1321 l -44 1228 l 406 1228 l 406 1321 z "},"ī":{"ha":396,"x_min":0,"x_max":0,"o":"m -28 1082 l -28 989 l 422 989 l 422 1082 z m 136 849 l 136 0 l 260 0 l 260 849 z "},"Ĭ":{"ha":297,"x_min":0,"x_max":0,"o":"m 85 1088 l 85 0 l 213 0 l 213 1088 z m -28 1374 b 149 1158 -22 1264 28 1158 b 324 1374 268 1158 318 1263 l 233 1374 b 149 1231 228 1268 196 1231 b 64 1374 101 1231 69 1268 z "},"ĭ":{"ha":318,"x_min":0,"x_max":0,"o":"m -18 1135 b 158 919 -12 1025 38 919 b 333 1135 278 919 328 1024 l 243 1135 b 158 992 238 1029 206 992 b 74 1135 111 992 79 1029 z m 97 849 l 97 0 l 221 0 l 221 849 z "},"Į":{"ha":275,"x_min":0,"x_max":0,"o":"m 83 -17 b -96 -167 -49 -58 -96 -100 b 83 -292 -96 -225 -60 -292 b 247 -244 167 -292 224 -269 l 207 -160 b 103 -185 183 -176 144 -185 b 14 -128 35 -185 14 -162 b 93 -51 14 -99 31 -79 l 211 0 l 211 1088 l 83 1088 z "},"į":{"ha":274,"x_min":0,"x_max":0,"o":"m 86 849 l 86 -15 b -97 -167 -50 -58 -97 -100 b 82 -292 -97 -225 -61 -292 b 246 -244 165 -292 222 -269 l 206 -160 b 101 -185 182 -176 143 -185 b 13 -128 33 -185 13 -162 b 92 -51 13 -99 29 -79 l 210 0 l 210 849 z m 147 1119 b 76 1044 100 1119 76 1086 b 147 967 76 1001 100 967 b 221 1044 197 967 221 1001 b 147 1119 221 1086 197 1119 z "},"İ":{"ha":256,"x_min":0,"x_max":0,"o":"m 64 1088 l 64 0 l 192 0 l 192 1088 z m 126 1358 b 56 1283 79 1358 56 1325 b 126 1206 56 1240 79 1206 b 200 1283 176 1206 200 1240 b 126 1358 200 1325 176 1358 z "},"ı":{"ha":251,"x_min":0,"x_max":0,"o":"m 64 849 l 64 0 l 188 0 l 188 849 z "},"Ĳ":{"ha":763,"x_min":0,"x_max":0,"o":"m 64 1088 l 64 0 l 192 0 l 192 1088 z m 575 1088 l 575 199 b 481 104 575 136 538 104 b 388 199 425 104 388 136 l 388 221 l 269 251 l 269 196 b 485 -19 269 63 358 -19 b 701 196 610 -19 701 63 l 701 1088 z "},"ĳ":{"ha":529,"x_min":0,"x_max":0,"o":"m 64 849 l 64 0 l 188 0 l 188 849 z m 344 849 l 344 -36 b 256 -137 344 -99 310 -137 b 193 -114 236 -137 215 -131 l 160 -221 b 274 -254 190 -243 232 -254 b 464 -36 407 -254 464 -154 l 464 849 z m 404 1119 b 333 1044 357 1119 333 1086 b 404 967 333 1001 357 967 b 478 1044 454 967 478 1001 b 404 1119 478 1086 454 1119 z m 124 1119 b 53 1044 76 1119 53 1086 b 124 967 53 1001 76 967 b 197 1044 174 967 197 1001 b 124 1119 197 1086 174 1119 z "},"Ķ":{"ha":538,"x_min":0,"x_max":0,"o":"m 372 1088 l 192 683 l 192 1088 l 64 1088 l 64 0 l 192 0 l 192 588 l 386 0 l 519 0 l 300 643 l 503 1088 z m 217 -28 l 181 -292 l 278 -292 l 339 -28 z "},"ķ":{"ha":521,"x_min":0,"x_max":0,"o":"m 360 849 l 188 533 l 188 1132 l 64 1101 l 64 0 l 188 0 l 188 457 l 375 0 l 503 0 l 292 501 l 486 849 z m 213 -28 l 176 -292 l 274 -292 l 335 -28 z "},"Ĺ":{"ha":424,"x_min":0,"x_max":0,"o":"m 64 1088 l 64 0 l 396 0 l 396 124 l 192 124 l 192 1088 z m 188 1374 l 65 1154 l 174 1154 l 322 1374 z "},"ĺ":{"ha":251,"x_min":0,"x_max":0,"o":"m 64 1101 l 64 0 l 188 0 l 188 1132 z m 139 1374 l 17 1154 l 125 1154 l 274 1374 z "},"Ļ":{"ha":424,"x_min":0,"x_max":0,"o":"m 64 1088 l 64 0 l 396 0 l 396 124 l 192 124 l 192 1088 z m 167 -28 l 131 -292 l 228 -292 l 289 -28 z "},"ļ":{"ha":251,"x_min":0,"x_max":0,"o":"m 64 1101 l 64 0 l 188 0 l 188 1132 z m 65 -28 l 29 -292 l 126 -292 l 188 -28 z "},"Ľ":{"ha":461,"x_min":0,"x_max":0,"o":"m 64 1088 l 64 0 l 396 0 l 396 124 l 192 124 l 192 1088 z m 315 1119 l 279 856 l 376 856 l 438 1119 z "},"ľ":{"ha":396,"x_min":0,"x_max":0,"o":"m 64 1101 l 64 0 l 188 0 l 188 1132 z m 286 1119 l 250 856 l 347 856 l 408 1119 z "},"Ł":{"ha":489,"x_min":0,"x_max":0,"o":"m 93 1088 l 93 624 l 0 571 l 44 493 l 93 521 l 93 0 l 425 0 l 425 124 l 221 124 l 221 596 l 446 726 l 401 803 l 221 699 l 221 1088 z "},"ł":{"ha":432,"x_min":0,"x_max":0,"o":"m 156 1101 l 156 703 l -7 610 l 38 532 l 156 600 l 156 0 l 279 0 l 279 672 l 439 765 l 394 842 l 279 775 l 279 1132 z "},"Ń":{"ha":563,"x_min":0,"x_max":0,"o":"m 64 1088 l 64 0 l 175 0 l 175 800 l 385 0 l 499 0 l 499 1088 l 388 1088 l 388 338 l 203 1088 z m 283 1374 l 161 1154 l 269 1154 l 418 1374 z "},"ń":{"ha":560,"x_min":0,"x_max":0,"o":"m 64 849 l 64 0 l 188 0 l 188 693 b 286 738 218 722 250 738 b 375 628 349 738 375 697 l 375 0 l 499 0 l 499 654 b 321 860 499 793 418 860 b 168 800 267 860 211 839 l 149 849 z m 286 1135 l 164 915 l 272 915 l 421 1135 z "},"Ņ":{"ha":563,"x_min":0,"x_max":0,"o":"m 64 1088 l 64 0 l 175 0 l 175 800 l 385 0 l 499 0 l 499 1088 l 388 1088 l 388 338 l 203 1088 z m 219 -28 l 183 -292 l 281 -292 l 342 -28 z "},"ņ":{"ha":560,"x_min":0,"x_max":0,"o":"m 64 849 l 64 0 l 188 0 l 188 693 b 286 738 218 722 250 738 b 375 628 349 738 375 697 l 375 0 l 499 0 l 499 654 b 321 860 499 793 418 860 b 168 800 267 860 211 839 l 149 849 z m 221 -28 l 185 -292 l 282 -292 l 343 -28 z "},"Ň":{"ha":563,"x_min":0,"x_max":0,"o":"m 64 1088 l 64 0 l 175 0 l 175 800 l 385 0 l 499 0 l 499 1088 l 388 1088 l 388 338 l 203 1088 z m 78 1374 l 215 1154 l 349 1154 l 485 1374 l 382 1374 l 281 1213 l 182 1374 z "},"ň":{"ha":560,"x_min":0,"x_max":0,"o":"m 64 849 l 64 0 l 188 0 l 188 693 b 286 738 218 722 250 738 b 375 628 349 738 375 697 l 375 0 l 499 0 l 499 654 b 321 860 499 793 418 860 b 168 800 267 860 211 839 l 149 849 z m 76 1135 l 214 915 l 347 915 l 483 1135 l 381 1135 l 279 974 l 181 1135 z "},"Ŋ":{"ha":563,"x_min":0,"x_max":0,"o":"m 64 1088 l 64 0 l 175 0 l 175 800 l 388 -3 l 388 -36 b 290 -137 388 -99 344 -137 b 228 -114 271 -137 250 -131 l 194 -221 b 308 -254 225 -243 267 -254 b 499 -36 442 -254 499 -154 l 499 1088 l 388 1088 l 388 338 l 203 1088 z "},"ŋ":{"ha":560,"x_min":0,"x_max":0,"o":"m 375 628 l 375 -36 b 290 -137 375 -99 344 -137 b 228 -114 271 -137 250 -131 l 194 -221 b 308 -254 225 -243 267 -254 b 499 -36 442 -254 499 -154 l 499 654 b 321 860 499 793 418 860 b 168 800 267 860 211 839 l 149 849 l 64 849 l 64 0 l 188 0 l 188 693 b 286 738 218 722 250 738 b 375 628 349 738 375 697 z "},"Ō":{"ha":561,"x_min":0,"x_max":0,"o":"m 504 889 b 281 1107 504 1025 404 1107 b 57 889 156 1107 57 1025 l 57 199 b 281 -19 57 63 156 -19 b 504 199 404 -19 504 63 z m 183 888 b 281 983 183 950 224 983 b 378 888 338 983 378 950 l 378 200 b 281 104 378 138 338 104 b 183 200 224 104 183 138 z m 56 1321 l 56 1228 l 506 1228 l 506 1321 z "},"ō":{"ha":536,"x_min":0,"x_max":0,"o":"m 479 654 b 268 860 479 782 385 860 b 57 654 150 860 57 782 l 57 194 b 268 -11 57 67 150 -11 b 479 194 385 -11 479 67 z m 176 647 b 268 738 176 706 215 738 b 358 647 321 738 358 706 l 358 201 b 268 111 358 143 321 111 b 176 201 215 111 176 143 z m 43 1082 l 43 989 l 493 989 l 493 1082 z "},"Ő":{"ha":561,"x_min":0,"x_max":0,"o":"m 504 889 b 281 1107 504 1025 404 1107 b 57 889 156 1107 57 1025 l 57 199 b 281 -19 57 63 156 -19 b 504 199 404 -19 504 63 z m 183 888 b 281 983 183 950 224 983 b 378 888 338 983 378 950 l 378 200 b 281 104 378 138 338 104 b 183 200 224 104 183 138 z m 394 1374 l 272 1154 l 382 1154 l 529 1374 z m 179 1374 l 57 1154 l 165 1154 l 314 1374 z "},"ő":{"ha":536,"x_min":0,"x_max":0,"o":"m 479 654 b 268 860 479 782 385 860 b 57 654 150 860 57 782 l 57 194 b 268 -11 57 67 150 -11 b 479 194 385 -11 479 67 z m 176 647 b 268 738 176 706 215 738 b 358 647 321 738 358 706 l 358 201 b 268 111 358 143 321 111 b 176 201 215 111 176 143 z m 382 1135 l 260 915 l 369 915 l 517 1135 z m 167 1135 l 44 915 l 153 915 l 301 1135 z "},"Œ":{"ha":778,"x_min":0,"x_max":0,"o":"m 738 0 l 738 124 l 506 124 l 506 499 l 669 499 l 669 622 l 506 622 l 506 964 l 738 964 l 738 1088 l 378 1088 b 281 1107 349 1100 315 1107 b 57 889 156 1107 57 1025 l 57 199 b 281 -19 57 63 156 -19 b 378 0 315 -19 349 -12 z m 183 888 b 281 983 183 950 224 983 b 378 888 338 983 378 950 l 378 190 b 281 104 374 135 335 104 b 183 200 224 104 183 138 z "},"œ":{"ha":824,"x_min":0,"x_max":0,"o":"m 638 381 b 774 636 732 458 774 532 b 565 860 774 806 665 860 b 418 803 507 860 454 839 b 268 860 379 839 326 860 b 57 654 150 860 57 782 l 57 194 b 268 -11 57 67 150 -11 b 418 44 326 -11 379 8 b 564 -11 454 8 506 -11 b 771 194 679 -11 771 67 l 771 282 l 658 253 l 658 199 b 568 108 658 140 621 108 b 479 199 519 108 479 138 l 479 267 b 638 381 546 308 599 347 z m 479 649 b 564 746 479 710 511 746 b 654 628 613 746 654 715 b 575 458 654 560 632 511 b 479 386 553 438 519 413 z m 176 647 b 268 738 176 706 215 738 b 358 647 321 738 358 706 l 358 201 b 268 111 358 143 321 111 b 176 201 215 111 176 143 z "},"Ŕ":{"ha":561,"x_min":0,"x_max":0,"o":"m 64 1088 l 64 0 l 189 0 l 189 507 l 283 507 b 382 413 360 507 382 481 l 382 0 l 508 0 l 508 408 b 424 567 508 497 478 544 b 500 721 474 589 500 635 l 500 872 b 285 1088 500 1007 418 1088 z m 189 967 l 275 967 b 375 857 340 967 375 928 l 375 715 b 275 617 375 644 350 617 l 189 617 z m 285 1374 l 163 1154 l 271 1154 l 419 1374 z "},"ŕ":{"ha":433,"x_min":0,"x_max":0,"o":"m 418 824 b 315 860 389 849 353 860 b 172 778 256 860 208 832 l 149 849 l 64 849 l 64 0 l 188 0 l 188 665 b 306 738 219 713 258 738 b 383 714 329 738 356 731 z m 225 1135 l 103 915 l 211 915 l 360 1135 z "},"Ŗ":{"ha":561,"x_min":0,"x_max":0,"o":"m 64 1088 l 64 0 l 189 0 l 189 507 l 283 507 b 382 413 360 507 382 481 l 382 0 l 508 0 l 508 408 b 424 567 508 497 478 544 b 500 721 474 589 500 635 l 500 872 b 285 1088 500 1007 418 1088 z m 189 967 l 275 967 b 375 857 340 967 375 928 l 375 715 b 275 617 375 644 350 617 l 189 617 z m 218 -28 l 182 -292 l 279 -292 l 340 -28 z "},"ŗ":{"ha":433,"x_min":0,"x_max":0,"o":"m 418 824 b 315 860 389 849 353 860 b 172 778 256 860 208 832 l 149 849 l 64 849 l 64 0 l 188 0 l 188 665 b 306 738 219 713 258 738 b 383 714 329 738 356 731 z m 63 -28 l 26 -292 l 124 -292 l 185 -28 z "},"Ř":{"ha":561,"x_min":0,"x_max":0,"o":"m 64 1088 l 64 0 l 189 0 l 189 507 l 283 507 b 382 413 360 507 382 481 l 382 0 l 508 0 l 508 408 b 424 567 508 497 478 544 b 500 721 474 589 500 635 l 500 872 b 285 1088 500 1007 418 1088 z m 189 967 l 275 967 b 375 857 340 967 375 928 l 375 715 b 275 617 375 644 350 617 l 189 617 z m 76 1374 l 214 1154 l 347 1154 l 483 1374 l 381 1374 l 279 1213 l 181 1374 z "},"ř":{"ha":433,"x_min":0,"x_max":0,"o":"m 418 824 b 315 860 389 849 353 860 b 172 778 256 860 208 832 l 149 849 l 64 849 l 64 0 l 188 0 l 188 665 b 306 738 219 713 258 738 b 383 714 329 738 356 731 z m 14 1135 l 151 915 l 285 915 l 421 1135 l 318 1135 l 217 974 l 118 1135 z "},"Ś":{"ha":522,"x_min":0,"x_max":0,"o":"m 265 1107 b 44 872 132 1107 44 1017 b 126 629 44 803 64 728 b 306 388 178 549 264 450 b 360 225 346 325 360 275 b 256 97 360 144 325 97 b 153 194 190 97 153 143 l 153 221 l 35 251 l 35 193 b 264 -19 35 75 121 -19 b 482 242 413 -19 482 82 b 421 444 482 321 464 376 b 219 721 371 525 269 651 b 163 871 183 772 163 818 b 263 988 163 935 194 988 b 357 885 322 988 357 947 l 357 856 l 475 856 l 475 894 b 265 1107 475 1021 396 1107 z m 268 1374 l 146 1154 l 254 1154 l 403 1374 z "},"ś":{"ha":507,"x_min":0,"x_max":0,"o":"m 260 860 b 44 668 129 860 44 792 b 111 499 44 614 61 558 b 304 310 160 442 242 382 b 353 203 342 267 353 242 b 254 107 353 139 321 107 b 150 196 185 107 150 142 l 150 253 l 38 282 l 38 186 b 254 -11 38 63 119 -11 b 468 199 403 -11 468 75 b 408 369 468 254 454 313 b 215 558 360 431 267 501 b 164 661 174 603 164 632 b 258 743 164 711 194 743 b 351 657 319 743 351 713 l 351 618 l 464 618 l 464 674 b 260 860 464 776 401 860 z m 260 1135 l 138 915 l 246 915 l 394 1135 z "},"Ş":{"ha":522,"x_min":0,"x_max":0,"o":"m 265 1107 b 44 872 132 1107 44 1017 b 126 629 44 803 64 728 b 306 388 178 549 264 450 b 360 225 346 325 360 275 b 256 97 360 144 325 97 b 153 194 190 97 153 143 l 153 221 l 35 251 l 35 193 b 264 -19 35 75 121 -19 b 482 242 413 -19 482 82 b 421 444 482 321 464 376 b 219 721 371 525 269 651 b 163 871 183 772 163 818 b 263 988 163 935 194 988 b 357 885 322 988 357 947 l 357 856 l 475 856 l 475 894 b 265 1107 475 1021 396 1107 z m 193 -28 l 157 -292 l 254 -292 l 315 -28 z "},"ş":{"ha":507,"x_min":0,"x_max":0,"o":"m 260 860 b 44 668 129 860 44 792 b 111 499 44 614 61 558 b 304 310 160 442 242 382 b 353 203 342 267 353 242 b 254 107 353 139 321 107 b 150 196 185 107 150 142 l 150 253 l 38 282 l 38 186 b 254 -11 38 63 119 -11 b 468 199 403 -11 468 75 b 408 369 468 254 454 313 b 215 558 360 431 267 501 b 164 661 174 603 164 632 b 258 743 164 711 194 743 b 351 657 319 743 351 713 l 351 618 l 464 618 l 464 674 b 260 860 464 776 401 860 z m 190 -28 l 154 -292 l 251 -292 l 313 -28 z "},"Š":{"ha":522,"x_min":0,"x_max":0,"o":"m 265 1107 b 44 872 132 1107 44 1017 b 126 629 44 803 64 728 b 306 388 178 549 264 450 b 360 225 346 325 360 275 b 256 97 360 144 325 97 b 153 194 190 97 153 143 l 153 221 l 35 251 l 35 193 b 264 -19 35 75 121 -19 b 482 242 413 -19 482 82 b 421 444 482 321 464 376 b 219 721 371 525 269 651 b 163 871 183 772 163 818 b 263 988 163 935 194 988 b 357 885 322 988 357 947 l 357 856 l 475 856 l 475 894 b 265 1107 475 1021 396 1107 z m 57 1374 l 194 1154 l 328 1154 l 464 1374 l 361 1374 l 260 1213 l 161 1374 z "},"š":{"ha":507,"x_min":0,"x_max":0,"o":"m 260 860 b 44 668 129 860 44 792 b 111 499 44 614 61 558 b 304 310 160 442 242 382 b 353 203 342 267 353 242 b 254 107 353 139 321 107 b 150 196 185 107 150 142 l 150 253 l 38 282 l 38 186 b 254 -11 38 63 119 -11 b 468 199 403 -11 468 75 b 408 369 468 254 454 313 b 215 558 360 431 267 501 b 164 661 174 603 164 632 b 258 743 164 711 194 743 b 351 657 319 743 351 713 l 351 618 l 464 618 l 464 674 b 260 860 464 776 401 860 z m 50 1135 l 188 915 l 321 915 l 457 1135 l 354 1135 l 253 974 l 154 1135 z "},"Ť":{"ha":428,"x_min":0,"x_max":0,"o":"m 28 1088 l 28 964 l 150 964 l 150 0 l 278 0 l 278 964 l 400 964 l 400 1088 z m 11 1374 l 149 1154 l 282 1154 l 418 1374 l 315 1374 l 214 1213 l 115 1374 z "},"ť":{"ha":529,"x_min":0,"x_max":0,"o":"m 17 849 l 17 744 l 108 744 l 108 208 b 299 -11 108 89 165 -11 b 414 22 342 -11 383 0 l 381 128 b 318 106 360 113 340 106 b 228 208 264 106 228 144 l 228 744 l 369 744 l 369 849 l 228 849 l 228 1047 l 108 997 l 108 849 z m 419 1114 l 383 850 l 481 850 l 542 1114 z "},"Ŧ":{"ha":469,"x_min":0,"x_max":0,"o":"m 10 626 l 10 533 l 171 533 l 171 0 l 299 0 l 299 533 l 460 533 l 460 626 l 299 626 l 299 964 l 421 964 l 421 1088 l 49 1088 l 49 964 l 171 964 l 171 626 z "},"ŧ":{"ha":483,"x_min":0,"x_max":0,"o":"m 60 849 l 60 744 l 151 744 l 151 519 l 4 519 l 4 426 l 151 426 l 151 208 b 342 -11 151 89 208 -11 b 457 22 385 -11 426 0 l 424 128 b 361 106 403 113 383 106 b 271 208 307 106 271 144 l 271 426 l 454 426 l 454 519 l 271 519 l 271 744 l 413 744 l 413 849 l 271 849 l 271 1047 l 151 997 l 151 849 z "},"Ũ":{"ha":569,"x_min":0,"x_max":0,"o":"m 61 1088 l 61 199 b 283 -19 61 63 158 -19 b 508 199 410 -19 508 63 l 508 1088 l 383 1088 l 383 200 b 285 104 383 138 343 104 b 189 200 229 104 189 138 l 189 1088 z m 97 1204 b 189 1271 122 1258 154 1271 b 382 1204 264 1271 299 1204 b 522 1311 443 1204 488 1240 l 472 1356 b 381 1288 447 1303 415 1288 b 192 1354 310 1288 281 1354 b 47 1249 124 1354 81 1317 z "},"ũ":{"ha":554,"x_min":0,"x_max":0,"o":"m 367 849 l 367 154 b 272 111 336 125 304 111 b 185 221 215 111 185 147 l 185 849 l 61 849 l 61 194 b 238 -11 61 56 142 -11 b 385 47 292 -11 343 8 l 406 0 l 490 0 l 490 849 z m 89 965 b 181 1032 114 1019 146 1032 b 374 965 256 1032 290 965 b 514 1072 435 965 479 1001 l 464 1117 b 372 1049 439 1064 407 1049 b 183 1115 301 1049 272 1115 b 39 1010 115 1115 72 1078 z "},"Ū":{"ha":569,"x_min":0,"x_max":0,"o":"m 61 1088 l 61 199 b 283 -19 61 63 158 -19 b 508 199 410 -19 508 63 l 508 1088 l 383 1088 l 383 200 b 285 104 383 138 343 104 b 189 200 229 104 189 138 l 189 1088 z m 60 1321 l 60 1228 l 510 1228 l 510 1321 z "},"ū":{"ha":554,"x_min":0,"x_max":0,"o":"m 367 849 l 367 154 b 272 111 336 125 304 111 b 185 221 215 111 185 147 l 185 849 l 61 849 l 61 194 b 238 -11 61 56 142 -11 b 385 47 292 -11 343 8 l 406 0 l 490 0 l 490 849 z m 51 1082 l 51 989 l 501 989 l 501 1082 z "},"Ů":{"ha":569,"x_min":0,"x_max":0,"o":"m 61 1088 l 61 199 b 283 -19 61 63 158 -19 b 508 199 410 -19 508 63 l 508 1088 l 383 1088 l 383 200 b 285 104 383 138 343 104 b 189 200 229 104 189 138 l 189 1088 z m 264 1374 b 143 1250 189 1374 143 1319 b 264 1125 143 1181 189 1125 l 303 1125 b 425 1250 379 1125 425 1181 b 303 1374 425 1319 379 1374 z m 303 1306 b 357 1249 335 1306 357 1283 b 303 1193 357 1215 335 1193 l 264 1193 b 211 1249 233 1193 211 1215 b 264 1306 211 1283 233 1306 z "},"ů":{"ha":554,"x_min":0,"x_max":0,"o":"m 367 849 l 367 154 b 272 111 336 125 304 111 b 185 221 215 111 185 147 l 185 849 l 61 849 l 61 194 b 238 -11 61 56 142 -11 b 385 47 292 -11 343 8 l 406 0 l 490 0 l 490 849 z m 257 1135 b 136 1011 182 1135 136 1081 b 257 886 136 942 182 886 l 296 886 b 418 1011 372 886 418 942 b 296 1135 418 1081 372 1135 z m 296 1067 b 350 1010 328 1067 350 1044 b 296 954 350 976 328 954 l 257 954 b 204 1010 226 954 204 976 b 257 1067 204 1044 226 1067 z "},"Ű":{"ha":569,"x_min":0,"x_max":0,"o":"m 61 1088 l 61 199 b 283 -19 61 63 158 -19 b 508 199 410 -19 508 63 l 508 1088 l 383 1088 l 383 200 b 285 104 383 138 343 104 b 189 200 229 104 189 138 l 189 1088 z m 401 1374 l 279 1154 l 389 1154 l 536 1374 z m 186 1374 l 64 1154 l 172 1154 l 321 1374 z "},"ű":{"ha":554,"x_min":0,"x_max":0,"o":"m 367 849 l 367 154 b 272 111 336 125 304 111 b 185 221 215 111 185 147 l 185 849 l 61 849 l 61 194 b 238 -11 61 56 142 -11 b 385 47 292 -11 343 8 l 406 0 l 490 0 l 490 849 z m 392 1135 l 269 915 l 379 915 l 526 1135 z m 176 1135 l 54 915 l 163 915 l 311 1135 z "},"Ų":{"ha":569,"x_min":0,"x_max":0,"o":"m 247 -17 b 69 -167 117 -58 69 -100 b 249 -292 69 -225 106 -292 b 413 -244 332 -292 389 -269 l 372 -160 b 268 -185 349 -176 310 -185 b 179 -128 200 -185 179 -162 b 258 -51 179 -99 196 -79 l 351 -10 b 508 199 443 14 508 88 l 508 1088 l 383 1088 l 383 200 b 285 104 383 138 343 104 b 189 200 229 104 189 138 l 189 1088 l 61 1088 l 61 199 b 247 -17 61 75 140 -3 z "},"ų":{"ha":554,"x_min":0,"x_max":0,"o":"m 324 -29 b 183 -167 231 -58 183 -100 b 363 -292 183 -225 219 -292 b 526 -244 446 -292 503 -269 l 486 -160 b 382 -185 463 -176 424 -185 b 293 -128 314 -185 293 -162 b 372 -51 293 -99 310 -79 l 490 0 l 490 849 l 367 849 l 367 154 b 271 111 336 125 304 111 b 185 221 215 111 185 149 l 185 849 l 61 849 l 61 194 b 239 -11 61 56 142 -11 b 385 47 292 -11 343 8 l 407 -3 z "},"Ŵ":{"ha":801,"x_min":0,"x_max":0,"o":"m 31 1088 l 143 0 l 267 0 l 399 819 l 519 0 l 647 0 l 771 1088 l 647 1088 l 569 318 l 460 1088 l 338 1088 l 219 322 l 153 1088 z m 333 1374 l 197 1154 l 300 1154 l 400 1314 l 500 1154 l 604 1154 l 467 1374 z "},"ŵ":{"ha":753,"x_min":0,"x_max":0,"o":"m 31 849 l 135 0 l 251 0 l 374 640 l 486 0 l 607 0 l 722 849 l 606 849 l 535 249 l 432 849 l 318 849 l 207 250 l 146 849 z m 308 1135 l 172 915 l 275 915 l 375 1075 l 475 915 l 579 915 l 442 1135 z "},"Ŷ":{"ha":572,"x_min":0,"x_max":0,"o":"m 18 1088 l 222 508 l 222 0 l 350 0 l 350 508 l 554 1088 l 431 1088 l 288 665 l 147 1088 z m 218 1374 l 82 1154 l 185 1154 l 285 1314 l 385 1154 l 489 1154 l 351 1374 z "},"ŷ":{"ha":554,"x_min":0,"x_max":0,"o":"m 367 849 l 367 168 b 272 125 336 139 304 125 b 185 235 215 125 185 161 l 185 849 l 61 849 l 61 208 b 238 3 61 69 142 3 b 367 46 283 3 328 17 l 367 -237 l 490 -237 l 490 849 z m 210 1135 l 74 915 l 176 915 l 276 1075 l 376 915 l 481 915 l 343 1135 z "},"Ÿ":{"ha":572,"x_min":0,"x_max":0,"o":"m 18 1088 l 222 508 l 222 0 l 350 0 l 350 508 l 554 1088 l 431 1088 l 288 665 l 147 1088 z m 400 1358 b 329 1283 353 1358 329 1325 b 400 1206 329 1240 353 1206 b 474 1283 450 1206 474 1240 b 400 1358 474 1325 450 1358 z m 168 1358 b 97 1283 121 1358 97 1325 b 168 1206 97 1240 121 1206 b 242 1283 218 1206 242 1240 b 168 1358 242 1325 218 1358 z "},"Ź":{"ha":500,"x_min":0,"x_max":0,"o":"m 44 1088 l 44 964 l 329 964 l 39 118 l 39 0 l 461 0 l 461 124 l 169 124 l 461 989 l 461 1088 z m 268 1374 l 146 1154 l 254 1154 l 403 1374 z "},"ź":{"ha":483,"x_min":0,"x_max":0,"o":"m 43 849 l 43 744 l 315 744 l 38 101 l 38 0 l 446 0 l 446 104 l 168 104 l 446 763 l 446 849 z m 258 1135 l 136 915 l 244 915 l 393 1135 z "},"Ż":{"ha":500,"x_min":0,"x_max":0,"o":"m 44 1088 l 44 964 l 329 964 l 39 118 l 39 0 l 461 0 l 461 124 l 169 124 l 461 989 l 461 1088 z m 260 1358 b 189 1283 213 1358 189 1325 b 260 1206 189 1240 213 1206 b 333 1283 310 1206 333 1240 b 260 1358 333 1325 310 1358 z "},"ż":{"ha":483,"x_min":0,"x_max":0,"o":"m 43 849 l 43 744 l 315 744 l 38 101 l 38 0 l 446 0 l 446 104 l 168 104 l 446 763 l 446 849 z m 250 1119 b 179 1044 203 1119 179 1086 b 250 967 179 1001 203 967 b 324 1044 300 967 324 1001 b 250 1119 324 1086 300 1119 z "},"Ž":{"ha":500,"x_min":0,"x_max":0,"o":"m 44 1088 l 44 964 l 329 964 l 39 118 l 39 0 l 461 0 l 461 124 l 169 124 l 461 989 l 461 1088 z m 58 1374 l 196 1154 l 329 1154 l 465 1374 l 363 1374 l 261 1213 l 163 1374 z "},"ž":{"ha":483,"x_min":0,"x_max":0,"o":"m 43 849 l 43 744 l 315 744 l 38 101 l 38 0 l 446 0 l 446 104 l 168 104 l 446 763 l 446 849 z m 47 1135 l 185 915 l 318 915 l 454 1135 l 351 1135 l 250 974 l 151 1135 z "},"Ǝ":{"ha":464,"x_min":0,"x_max":0,"o":"m 40 1088 l 40 964 l 272 964 l 272 622 l 108 622 l 108 499 l 272 499 l 272 124 l 40 124 l 40 0 l 400 0 l 400 1088 z "},"Ə":{"ha":561,"x_min":0,"x_max":0,"o":"m 283 1107 b 60 883 158 1107 60 1024 l 60 789 l 183 821 l 183 885 b 282 983 183 949 224 983 b 378 885 338 983 378 949 l 378 688 b 199 538 306 636 244 585 b 57 225 106 442 57 342 b 282 -19 57 43 174 -19 b 504 204 407 -19 504 64 l 504 883 b 283 1107 504 1024 407 1107 z m 286 103 b 183 236 232 103 183 138 b 267 454 183 315 213 392 b 378 556 292 483 329 518 l 378 208 b 286 103 378 142 343 103 z "},"ƒ":{"ha":500,"x_min":0,"x_max":0,"o":"m 72 849 l 72 744 l 167 744 l 167 -36 b 76 -137 167 -99 131 -137 b 14 -114 57 -137 36 -131 l -19 -221 b 94 -254 11 -243 53 -254 b 285 -36 228 -254 285 -154 l 285 744 l 425 744 l 425 849 l 285 849 l 285 922 b 374 1029 285 986 314 1029 b 443 1007 399 1029 422 1021 l 476 1115 b 360 1143 442 1133 401 1143 b 167 924 231 1143 167 1051 l 167 849 z "},"Ɲ":{"ha":563,"x_min":0,"x_max":0,"o":"m 64 1088 l 64 -36 b -25 -137 64 -99 29 -137 b -87 -114 -44 -137 -65 -131 l -121 -221 b -7 -254 -90 -243 -49 -254 b 175 -36 126 -254 175 -154 l 175 800 l 385 0 l 499 0 l 499 1088 l 388 1088 l 388 338 l 203 1088 z "},"Ơ":{"ha":707,"x_min":0,"x_max":0,"o":"m 504 889 b 500 935 504 904 503 919 b 526 933 508 933 517 933 b 699 1132 646 933 699 1025 l 699 1218 l 588 1218 l 588 1096 b 507 1007 588 1042 557 1007 b 468 1014 493 1007 481 1010 b 281 1107 428 1074 358 1107 b 57 889 156 1107 57 1025 l 57 199 b 281 -19 57 63 156 -19 b 504 199 404 -19 504 63 z m 183 888 b 281 983 183 950 224 983 b 378 888 338 983 378 950 l 378 200 b 281 104 378 138 338 104 b 183 200 224 104 183 138 z "},"ơ":{"ha":636,"x_min":0,"x_max":0,"o":"m 479 654 b 465 733 479 683 474 710 b 628 932 578 738 628 828 l 628 1018 l 517 1018 l 517 896 b 436 807 517 842 486 807 b 411 810 428 807 419 807 b 268 860 374 842 324 860 b 57 654 150 860 57 782 l 57 194 b 268 -11 57 67 150 -11 b 479 194 385 -11 479 67 z m 176 647 b 268 738 176 706 215 738 b 358 647 321 738 358 706 l 358 201 b 268 111 358 143 321 111 b 176 201 215 111 176 143 z "},"Ư":{"ha":739,"x_min":0,"x_max":0,"o":"m 61 1088 l 61 199 b 283 -19 61 63 158 -19 b 508 199 410 -19 508 63 l 508 979 b 558 972 524 975 540 972 b 731 1171 678 972 731 1064 l 731 1257 l 619 1257 l 619 1135 b 539 1046 619 1081 589 1046 b 508 1050 528 1046 518 1047 l 508 1088 l 383 1088 l 383 200 b 285 104 383 138 343 104 b 189 200 229 104 189 138 l 189 1088 z "},"ư":{"ha":700,"x_min":0,"x_max":0,"o":"m 367 849 l 367 154 b 272 111 336 125 304 111 b 185 221 215 111 185 147 l 185 849 l 61 849 l 61 194 b 238 -11 61 56 142 -11 b 385 47 292 -11 343 8 l 406 0 l 490 0 l 490 735 b 519 733 500 733 510 733 b 692 932 639 733 692 825 l 692 1018 l 581 1018 l 581 896 b 490 807 581 842 550 807 l 490 849 z "},"ǝ":{"ha":521,"x_min":0,"x_max":0,"o":"m 57 207 b 265 -11 57 47 165 -11 b 471 194 381 -11 471 67 l 471 654 b 267 860 471 782 381 860 b 60 654 151 860 60 782 l 60 567 l 172 596 l 172 650 b 263 740 172 708 210 740 b 351 650 314 740 351 708 l 351 581 b 57 207 199 483 57 389 z m 351 200 b 267 103 351 139 319 103 b 176 218 218 103 176 135 b 351 463 176 335 258 400 z "},"Ǧ":{"ha":546,"x_min":0,"x_max":0,"o":"m 181 889 b 278 983 181 951 219 983 b 371 889 333 983 371 951 l 371 856 l 489 856 l 489 892 b 276 1107 489 1025 404 1107 b 57 892 149 1107 57 1025 l 57 196 b 250 -19 57 63 139 -19 b 400 47 314 -19 365 8 l 406 0 l 485 0 l 485 603 l 265 603 l 265 488 l 374 488 l 374 199 b 274 104 374 136 329 104 b 181 199 218 104 181 136 z m 74 1374 l 211 1154 l 344 1154 l 481 1374 l 378 1374 l 276 1213 l 178 1374 z "},"ǧ":{"ha":544,"x_min":0,"x_max":0,"o":"m 58 429 b 149 256 58 350 93 289 b 88 149 111 231 88 196 b 107 79 88 121 94 97 b 4 -74 38 51 4 -7 b 176 -237 4 -160 63 -237 l 346 -237 l 394 -133 l 200 -133 b 131 -68 154 -133 131 -104 b 215 -3 131 -31 154 -3 l 453 -3 l 501 103 l 258 103 b 188 161 208 103 188 126 b 221 228 188 189 199 210 b 269 224 236 225 253 224 b 481 429 386 224 481 301 l 481 654 b 467 732 481 682 475 708 l 536 839 l 382 831 b 269 860 350 850 311 860 b 58 654 151 860 58 782 z m 175 653 b 269 746 175 715 214 746 b 364 653 324 746 364 715 l 364 431 b 269 338 364 369 324 338 b 175 431 214 338 175 369 z m 68 1135 l 206 915 l 339 915 l 475 1135 l 372 1135 l 271 974 l 172 1135 z "},"ǰ":{"ha":358,"x_min":0,"x_max":0,"o":"m -22 1135 l 115 915 l 249 915 l 385 1135 l 282 1135 l 181 974 l 82 1135 z m 128 849 l 128 -36 b 39 -137 128 -99 93 -137 b -24 -114 19 -137 -1 -131 l -57 -221 b 57 -254 -26 -243 15 -254 b 247 -36 190 -254 247 -154 l 247 849 z "},"Ǵ":{"ha":546,"x_min":0,"x_max":0,"o":"m 181 889 b 278 983 181 951 219 983 b 371 889 333 983 371 951 l 371 856 l 489 856 l 489 892 b 276 1107 489 1025 404 1107 b 57 892 149 1107 57 1025 l 57 196 b 250 -19 57 63 139 -19 b 400 47 314 -19 365 8 l 406 0 l 485 0 l 485 603 l 265 603 l 265 488 l 374 488 l 374 199 b 274 104 374 136 329 104 b 181 199 218 104 181 136 z m 283 1374 l 161 1154 l 269 1154 l 418 1374 z "},"ǵ":{"ha":544,"x_min":0,"x_max":0,"o":"m 58 429 b 149 256 58 350 93 289 b 88 149 111 231 88 196 b 107 79 88 121 94 97 b 4 -74 38 51 4 -7 b 176 -237 4 -160 63 -237 l 346 -237 l 394 -133 l 200 -133 b 131 -68 154 -133 131 -104 b 215 -3 131 -31 154 -3 l 453 -3 l 501 103 l 258 103 b 188 161 208 103 188 126 b 221 228 188 189 199 210 b 269 224 236 225 253 224 b 481 429 386 224 481 301 l 481 654 b 467 732 481 682 475 708 l 536 839 l 382 831 b 269 860 350 850 311 860 b 58 654 151 860 58 782 z m 175 653 b 269 746 175 715 214 746 b 364 653 324 746 364 715 l 364 431 b 269 338 364 369 324 338 b 175 431 214 338 175 369 z m 276 1135 l 154 915 l 263 915 l 411 1135 z "},"Ǹ":{"ha":563,"x_min":0,"x_max":0,"o":"m 64 1088 l 64 0 l 175 0 l 175 800 l 385 0 l 499 0 l 499 1088 l 388 1088 l 388 338 l 203 1088 z m 142 1374 l 289 1154 l 399 1154 l 276 1374 z "},"ǹ":{"ha":560,"x_min":0,"x_max":0,"o":"m 64 849 l 64 0 l 188 0 l 188 693 b 286 738 218 722 250 738 b 375 628 349 738 375 697 l 375 0 l 499 0 l 499 654 b 321 860 499 793 418 860 b 168 800 267 860 211 839 l 149 849 z m 136 1135 l 283 915 l 393 915 l 271 1135 z "},"Ș":{"ha":522,"x_min":0,"x_max":0,"o":"m 265 1107 b 44 872 132 1107 44 1017 b 126 629 44 803 64 728 b 306 388 178 549 264 450 b 360 225 346 325 360 275 b 256 97 360 144 325 97 b 153 194 190 97 153 143 l 153 221 l 35 251 l 35 193 b 264 -19 35 75 121 -19 b 482 242 413 -19 482 82 b 421 444 482 321 464 376 b 219 721 371 525 269 651 b 163 871 183 772 163 818 b 263 988 163 935 194 988 b 357 885 322 988 357 947 l 357 856 l 475 856 l 475 894 b 265 1107 475 1021 396 1107 z m 192 -28 l 156 -292 l 253 -292 l 314 -28 z "},"ș":{"ha":507,"x_min":0,"x_max":0,"o":"m 260 860 b 44 668 129 860 44 792 b 111 499 44 614 61 558 b 304 310 160 442 242 382 b 353 203 342 267 353 242 b 254 107 353 139 321 107 b 150 196 185 107 150 142 l 150 253 l 38 282 l 38 186 b 254 -11 38 63 119 -11 b 468 199 403 -11 468 75 b 408 369 468 254 454 313 b 215 558 360 431 267 501 b 164 661 174 603 164 632 b 258 743 164 711 194 743 b 351 657 319 743 351 713 l 351 618 l 464 618 l 464 674 b 260 860 464 776 401 860 z m 190 -28 l 154 -292 l 251 -292 l 313 -28 z "},"Ț":{"ha":428,"x_min":0,"x_max":0,"o":"m 28 1088 l 28 964 l 150 964 l 150 0 l 278 0 l 278 964 l 400 964 l 400 1088 z m 150 -28 l 114 -292 l 211 -292 l 272 -28 z "},"ț":{"ha":428,"x_min":0,"x_max":0,"o":"m 17 849 l 17 744 l 108 744 l 108 208 b 299 -11 108 89 165 -11 b 414 22 342 -11 383 0 l 381 128 b 318 106 360 113 340 106 b 228 208 264 106 228 144 l 228 744 l 369 744 l 369 849 l 228 849 l 228 1047 l 108 997 l 108 849 z m 168 -28 l 132 -292 l 229 -292 l 290 -28 z "},"ȷ":{"ha":269,"x_min":0,"x_max":0,"o":"m 86 849 l 86 -36 b -3 -137 86 -99 51 -137 b -65 -114 -22 -137 -43 -131 l -99 -221 b 15 -254 -68 -243 -26 -254 b 206 -36 149 -254 206 -154 l 206 849 z "},"Ɂ":{"ha":496,"x_min":0,"x_max":0,"o":"m 254 1115 b 36 910 124 1115 36 1038 l 36 856 l 149 856 l 149 903 b 249 993 149 961 190 993 b 339 883 307 993 339 963 b 265 671 339 808 314 758 b 174 381 210 569 174 493 l 174 0 l 296 0 l 296 381 b 372 626 296 482 319 533 b 460 890 425 725 460 792 b 254 1115 460 1049 374 1115 z "},"Ɍ":{"ha":613,"x_min":0,"x_max":0,"o":"m 4 611 l 4 518 l 115 518 l 115 0 l 240 0 l 240 518 l 335 518 b 433 424 411 518 433 492 l 433 0 l 560 0 l 560 408 b 475 567 560 497 529 544 b 551 721 525 589 551 635 l 551 872 b 336 1088 551 1007 469 1088 l 115 1088 l 115 611 z m 240 967 l 326 967 b 426 857 392 967 426 928 l 426 710 b 326 611 426 639 401 611 l 240 611 z "},"ɍ":{"ha":489,"x_min":0,"x_max":0,"o":"m 8 529 l 8 436 l 100 436 l 100 0 l 224 0 l 224 436 l 403 436 l 403 529 l 224 529 l 224 665 b 342 738 256 713 294 738 b 419 714 365 738 392 731 l 454 824 b 351 860 425 849 389 860 b 208 778 292 860 244 832 l 185 849 l 100 849 l 100 529 z "},"ɲ":{"ha":560,"x_min":0,"x_max":0,"o":"m 64 849 l 64 -36 b -25 -137 64 -99 29 -137 b -87 -114 -44 -137 -65 -131 l -121 -221 b -7 -254 -90 -243 -49 -254 b 188 -36 126 -254 188 -154 l 188 693 b 286 738 218 722 250 738 b 375 628 349 738 375 697 l 375 0 l 499 0 l 499 654 b 321 860 499 793 418 860 b 168 800 267 860 211 839 l 149 849 z "},"ˆ":{"ha":510,"x_min":0,"x_max":0,"o":"m 188 1135 l 51 915 l 154 915 l 254 1075 l 354 915 l 458 915 l 321 1135 z "},"ˇ":{"ha":510,"x_min":0,"x_max":0,"o":"m 51 1135 l 189 915 l 322 915 l 458 1135 l 356 1135 l 254 974 l 156 1135 z "},"˘":{"ha":442,"x_min":0,"x_max":0,"o":"m 44 1135 b 221 919 50 1025 100 919 b 396 1135 340 919 390 1024 l 306 1135 b 221 992 300 1029 268 992 b 136 1135 174 992 142 1029 z "},"˙":{"ha":222,"x_min":0,"x_max":0,"o":"m 110 1119 b 39 1044 63 1119 39 1086 b 110 967 39 1001 63 967 b 183 1044 160 967 183 1001 b 110 1119 183 1086 160 1119 z "},"˚":{"ha":360,"x_min":0,"x_max":0,"o":"m 160 1135 b 39 1011 85 1135 39 1081 b 160 886 39 942 85 886 l 199 886 b 321 1011 275 886 321 942 b 199 1135 321 1081 275 1135 z m 199 1067 b 253 1010 231 1067 253 1044 b 199 954 253 976 231 954 l 160 954 b 107 1010 129 954 107 976 b 160 1067 107 1044 129 1067 z "},"˛":{"ha":421,"x_min":0,"x_max":0,"o":"m 179 -29 b 39 -167 86 -58 39 -100 b 218 -292 39 -225 75 -292 b 382 -244 301 -292 358 -269 l 342 -160 b 238 -185 318 -176 279 -185 b 149 -128 169 -185 149 -162 b 228 -51 149 -99 164 -76 l 346 0 l 272 0 z "},"˜":{"ha":553,"x_min":0,"x_max":0,"o":"m 89 965 b 181 1032 114 1019 146 1032 b 374 965 256 1032 290 965 b 514 1072 435 965 479 1001 l 464 1117 b 372 1049 439 1064 407 1049 b 183 1115 301 1049 272 1115 b 39 1010 115 1115 72 1078 z "},"˝":{"ha":569,"x_min":0,"x_max":0,"o":"m 354 1135 l 232 915 l 342 915 l 489 1135 z m 139 1135 l 17 915 l 125 915 l 274 1135 z "},"̀":{"ha":0,"x_min":0,"x_max":0,"o":"m -415 1135 l -268 915 l -158 915 l -281 1135 z "},"́":{"ha":0,"x_min":0,"x_max":0,"o":"m -272 1135 l -394 915 l -286 915 l -137 1135 z "},"̂":{"ha":0,"x_min":0,"x_max":0,"o":"m -344 1135 l -481 915 l -378 915 l -278 1075 l -178 915 l -74 915 l -211 1135 z "},"̃":{"ha":0,"x_min":0,"x_max":0,"o":"m -467 965 b -375 1032 -442 1019 -410 1032 b -182 965 -300 1032 -265 965 b -42 1072 -121 965 -76 1001 l -92 1117 b -183 1049 -117 1064 -149 1049 b -372 1115 -254 1049 -283 1115 b -517 1010 -440 1115 -483 1078 z "},"̄":{"ha":0,"x_min":0,"x_max":0,"o":"m -503 1082 l -503 989 l -53 989 l -53 1082 z "},"̆":{"ha":0,"x_min":0,"x_max":0,"o":"m -456 1135 b -279 919 -450 1025 -400 919 b -104 1135 -160 919 -110 1024 l -194 1135 b -279 992 -200 1029 -232 992 b -364 1135 -326 992 -358 1029 z "},"̇":{"ha":0,"x_min":0,"x_max":0,"o":"m -282 1119 b -353 1044 -329 1119 -353 1086 b -282 967 -353 1001 -329 967 b -208 1044 -232 967 -208 1001 b -282 1119 -208 1086 -232 1119 z "},"̈":{"ha":0,"x_min":0,"x_max":0,"o":"m -164 1119 b -235 1044 -211 1119 -235 1086 b -164 967 -235 1001 -211 967 b -90 1044 -114 967 -90 1001 b -164 1119 -90 1086 -114 1119 z m -396 1119 b -467 1044 -443 1119 -467 1086 b -396 967 -467 1001 -443 967 b -322 1044 -346 967 -322 1001 b -396 1119 -322 1086 -346 1119 z "},"̉":{"ha":0,"x_min":0,"x_max":0,"o":"m -418 1029 l -344 1029 l -344 1051 b -292 1094 -344 1081 -332 1094 b -240 1058 -254 1094 -240 1082 b -260 1003 -240 1036 -249 1018 b -321 900 -283 969 -321 944 b -318 878 -321 893 -321 886 l -262 878 b -199 972 -262 915 -229 940 b -154 1069 -175 997 -154 1026 b -283 1160 -154 1125 -196 1160 b -418 1051 -374 1160 -418 1124 z "},"̊":{"ha":0,"x_min":0,"x_max":0,"o":"m -300 1135 b -421 1011 -375 1135 -421 1081 b -300 886 -421 942 -375 886 l -261 886 b -139 1011 -185 886 -139 942 b -261 1135 -139 1081 -185 1135 z m -261 1067 b -207 1010 -229 1067 -207 1044 b -261 954 -207 976 -229 954 l -300 954 b -353 1010 -331 954 -353 976 b -300 1067 -353 1044 -331 1067 z "},"̋":{"ha":0,"x_min":0,"x_max":0,"o":"m -162 1135 l -285 915 l -175 915 l -28 1135 z m -378 1135 l -500 915 l -392 915 l -243 1135 z "},"̌":{"ha":0,"x_min":0,"x_max":0,"o":"m -487 1135 l -350 915 l -217 915 l -81 1135 l -183 1135 l -285 974 l -383 1135 z "},"̓":{"ha":0,"x_min":0,"x_max":0,"o":"m -246 1294 l -343 1071 b -358 1013 -354 1046 -358 1031 b -285 938 -358 972 -335 938 b -214 1014 -237 938 -215 969 l -201 1294 z "},"̛":{"ha":135,"x_min":0,"x_max":0,"o":"m 6 1018 l 6 896 b -76 807 6 842 -25 807 b -131 824 -94 807 -115 813 l -161 765 b -56 733 -133 746 -96 733 b 117 932 64 733 117 825 l 117 1018 z "},"̣":{"ha":258,"x_min":0,"x_max":0,"o":"m -283 -79 b -354 -154 -331 -79 -354 -112 b -283 -232 -354 -197 -331 -232 b -210 -154 -233 -232 -210 -197 b -283 -79 -210 -112 -233 -79 z "},"̦":{"ha":0,"x_min":0,"x_max":0,"o":"m -339 -28 l -375 -292 l -278 -292 l -217 -28 z "},"̨":{"ha":0,"x_min":0,"x_max":0,"o":"m -375 -29 b -515 -167 -468 -58 -515 -100 b -336 -292 -515 -225 -479 -292 b -172 -244 -253 -292 -196 -269 l -212 -160 b -317 -185 -236 -176 -275 -185 b -406 -128 -385 -185 -406 -162 b -326 -51 -406 -99 -390 -76 l -208 0 l -282 0 z "},"̷":{"ha":0,"x_min":0,"x_max":0,"o":"m -124 1171 l -537 -83 l -464 -83 l -50 1171 z "},"̸":{"ha":0,"x_min":0,"x_max":0,"o":"m -160 932 l -479 -83 l -411 -83 l -92 932 z "},"΄":{"ha":203,"x_min":0,"x_max":0,"o":"m 60 1204 l 17 915 l 118 915 l 188 1204 z "},"΅":{"ha":522,"x_min":0,"x_max":0,"o":"m 226 1204 l 183 915 l 285 915 l 354 1204 z m 440 1119 b 369 1044 393 1119 369 1086 b 440 967 369 1001 393 967 b 514 1044 490 967 514 1001 b 440 1119 514 1086 490 1119 z m 79 1119 b 8 1044 32 1119 8 1086 b 79 967 8 1001 32 967 b 153 1044 129 967 153 1001 b 79 1119 153 1086 129 1119 z "},"Ά":{"ha":604,"x_min":0,"x_max":0,"o":"m 264 1088 l 81 0 l 204 0 l 228 157 l 431 157 l 456 0 l 579 0 l 390 1088 z m 328 808 l 414 264 l 244 264 z m 68 1204 l 25 915 l 126 915 l 196 1204 z "},"·":{"ha":222,"x_min":0,"x_max":0,"o":"m 110 614 b 39 538 63 614 39 581 b 110 461 39 496 63 461 b 183 538 160 461 183 496 b 110 614 183 581 160 614 z "},"Έ":{"ha":638,"x_min":0,"x_max":0,"o":"m 238 1088 l 238 0 l 597 0 l 597 124 l 365 124 l 365 499 l 529 499 l 529 622 l 365 622 l 365 964 l 597 964 l 597 1088 z m 68 1204 l 25 915 l 126 915 l 196 1204 z "},"Ή":{"ha":750,"x_min":0,"x_max":0,"o":"m 238 1088 l 238 0 l 365 0 l 365 492 l 558 492 l 558 0 l 686 0 l 686 1088 l 558 1088 l 558 614 l 365 614 l 365 1088 z m 68 1204 l 25 915 l 126 915 l 196 1204 z "},"Ί":{"ha":429,"x_min":0,"x_max":0,"o":"m 238 1088 l 238 0 l 365 0 l 365 1088 z m 68 1204 l 25 915 l 126 915 l 196 1204 z "},"Ό":{"ha":690,"x_min":0,"x_max":0,"o":"m 633 889 b 410 1107 633 1025 533 1107 b 186 889 285 1107 186 1025 l 186 199 b 410 -19 186 63 285 -19 b 633 199 533 -19 633 63 z m 313 888 b 410 983 313 950 353 983 b 507 888 467 983 507 950 l 507 200 b 410 104 507 138 467 104 b 313 200 353 104 313 138 z m 68 1204 l 25 915 l 126 915 l 196 1204 z "},"Ύ":{"ha":750,"x_min":0,"x_max":0,"o":"m 196 1088 l 400 508 l 400 0 l 528 0 l 528 508 l 732 1088 l 608 1088 l 465 665 l 325 1088 z m 68 1204 l 25 915 l 126 915 l 196 1204 z "},"Ώ":{"ha":679,"x_min":0,"x_max":0,"o":"m 294 888 b 394 983 294 950 340 983 b 494 888 449 983 494 950 l 494 397 b 438 304 494 344 475 318 l 438 0 l 618 0 l 618 124 l 528 124 l 528 224 b 618 407 583 261 618 325 l 618 889 b 394 1107 618 1025 519 1107 b 171 889 269 1107 171 1025 l 171 407 b 261 224 171 325 204 261 l 261 124 l 172 124 l 172 0 l 351 0 l 351 304 b 294 397 313 318 294 344 z m 68 1204 l 25 915 l 126 915 l 196 1204 z "},"ΐ":{"ha":471,"x_min":0,"x_max":0,"o":"m 146 849 l 146 190 b 317 -11 146 82 193 -11 b 424 22 357 -11 396 0 l 393 128 b 336 106 374 113 354 106 b 265 190 292 106 265 139 l 265 849 z m 199 1204 l 156 915 l 257 915 l 326 1204 z m 414 1119 b 343 1044 367 1119 343 1086 b 414 967 343 1001 367 967 b 488 1044 464 967 488 1001 b 414 1119 488 1086 464 1119 z m 49 1119 b -22 1044 1 1119 -22 1086 b 49 967 -22 1001 1 967 b 122 1044 99 967 122 1001 b 49 1119 122 1086 99 1119 z "},"Α":{"ha":549,"x_min":0,"x_max":0,"o":"m 208 1088 l 25 0 l 149 0 l 172 157 l 375 157 l 400 0 l 524 0 l 335 1088 z m 272 808 l 358 264 l 189 264 z "},"Β":{"ha":558,"x_min":0,"x_max":0,"o":"m 64 1088 l 64 0 l 296 0 b 513 224 429 0 513 81 l 513 397 b 421 564 513 493 479 542 b 500 721 474 586 500 632 l 500 872 b 285 1088 500 1007 418 1088 z m 189 506 l 286 506 b 386 399 360 506 386 476 l 386 232 b 286 121 386 158 354 121 l 189 121 z m 189 967 l 275 967 b 375 857 344 967 375 925 l 375 717 b 278 615 375 642 349 615 l 189 615 z "},"Γ":{"ha":424,"x_min":0,"x_max":0,"o":"m 64 1088 l 64 0 l 192 0 l 192 964 l 396 964 l 396 1088 z "},"Δ":{"ha":549,"x_min":0,"x_max":0,"o":"m 208 1088 l 25 0 l 524 0 l 335 1088 z m 272 810 l 381 124 l 167 124 z "},"Ε":{"ha":464,"x_min":0,"x_max":0,"o":"m 64 1088 l 64 0 l 424 0 l 424 124 l 192 124 l 192 499 l 356 499 l 356 622 l 192 622 l 192 964 l 424 964 l 424 1088 z "},"Ζ":{"ha":500,"x_min":0,"x_max":0,"o":"m 44 1088 l 44 964 l 329 964 l 39 118 l 39 0 l 461 0 l 461 124 l 169 124 l 461 989 l 461 1088 z "},"Η":{"ha":576,"x_min":0,"x_max":0,"o":"m 64 1088 l 64 0 l 192 0 l 192 492 l 385 492 l 385 0 l 513 0 l 513 1088 l 385 1088 l 385 614 l 192 614 l 192 1088 z "},"Θ":{"ha":561,"x_min":0,"x_max":0,"o":"m 204 622 l 204 499 l 357 499 l 357 622 z m 504 889 b 281 1107 504 1025 404 1107 b 57 889 156 1107 57 1025 l 57 199 b 281 -19 57 63 156 -19 b 504 199 404 -19 504 63 z m 183 888 b 281 983 183 950 224 983 b 378 888 338 983 378 950 l 378 200 b 281 104 378 138 338 104 b 183 200 224 104 183 138 z "},"Ι":{"ha":256,"x_min":0,"x_max":0,"o":"m 64 1088 l 64 0 l 192 0 l 192 1088 z "},"Κ":{"ha":538,"x_min":0,"x_max":0,"o":"m 372 1088 l 192 683 l 192 1088 l 64 1088 l 64 0 l 192 0 l 192 588 l 386 0 l 519 0 l 300 643 l 503 1088 z "},"Λ":{"ha":549,"x_min":0,"x_max":0,"o":"m 524 0 l 339 1088 l 213 1088 l 25 0 l 149 0 l 275 808 l 399 0 z "},"Μ":{"ha":743,"x_min":0,"x_max":0,"o":"m 64 1088 l 64 0 l 178 0 l 178 711 l 314 0 l 432 0 l 565 701 l 565 0 l 679 0 l 679 1088 l 551 1088 l 372 225 l 203 1088 z "},"Ν":{"ha":563,"x_min":0,"x_max":0,"o":"m 64 1088 l 64 0 l 175 0 l 175 800 l 385 0 l 499 0 l 499 1088 l 388 1088 l 388 338 l 203 1088 z "},"Ξ":{"ha":490,"x_min":0,"x_max":0,"o":"m 40 1088 l 40 964 l 450 964 l 450 1088 z m 40 124 l 40 0 l 450 0 l 450 124 z m 108 622 l 108 499 l 382 499 l 382 622 z "},"Ο":{"ha":561,"x_min":0,"x_max":0,"o":"m 504 889 b 281 1107 504 1025 404 1107 b 57 889 156 1107 57 1025 l 57 199 b 281 -19 57 63 156 -19 b 504 199 404 -19 504 63 z m 183 888 b 281 983 183 950 224 983 b 378 888 338 983 378 950 l 378 200 b 281 104 378 138 338 104 b 183 200 224 104 183 138 z "},"Π":{"ha":576,"x_min":0,"x_max":0,"o":"m 64 1088 l 64 0 l 192 0 l 192 964 l 385 964 l 385 0 l 513 0 l 513 1088 z "},"Ρ":{"ha":549,"x_min":0,"x_max":0,"o":"m 64 1088 l 64 0 l 192 0 l 192 429 l 289 429 b 506 679 422 429 506 510 l 506 838 b 289 1088 506 1007 422 1088 z m 192 964 l 279 964 b 379 846 347 964 379 925 l 379 671 b 279 553 379 592 347 553 l 192 553 z "},"Σ":{"ha":468,"x_min":0,"x_max":0,"o":"m 22 1088 l 22 988 l 189 544 l 22 100 l 22 0 l 442 0 l 442 124 l 143 124 l 310 560 l 161 964 l 439 964 l 439 1088 z "},"Τ":{"ha":428,"x_min":0,"x_max":0,"o":"m 28 1088 l 28 964 l 150 964 l 150 0 l 278 0 l 278 964 l 400 964 l 400 1088 z "},"Υ":{"ha":572,"x_min":0,"x_max":0,"o":"m 18 1088 l 222 508 l 222 0 l 350 0 l 350 508 l 554 1088 l 431 1088 l 288 665 l 147 1088 z "},"Φ":{"ha":783,"x_min":0,"x_max":0,"o":"m 328 1088 l 328 967 b 57 750 110 954 57 875 l 57 338 b 328 121 57 213 110 133 l 328 0 l 456 0 l 456 121 b 726 338 674 133 726 213 l 726 750 b 456 967 726 875 674 954 l 456 1088 z m 183 749 b 328 843 183 803 206 835 l 328 244 b 183 339 206 251 183 285 z m 600 749 l 600 339 b 456 244 600 285 576 251 l 456 843 b 600 749 576 835 600 803 z "},"Χ":{"ha":567,"x_min":0,"x_max":0,"o":"m 408 1088 l 283 743 l 163 1088 l 33 1088 l 211 578 l 18 0 l 139 0 l 275 397 l 414 0 l 549 0 l 346 565 l 532 1088 z "},"Ψ":{"ha":828,"x_min":0,"x_max":0,"o":"m 353 1088 l 353 494 b 189 589 242 503 189 535 l 189 1088 l 61 1088 l 61 588 b 353 371 61 464 167 385 l 353 0 l 481 0 l 481 372 b 767 588 664 386 767 465 l 767 1088 l 642 1088 l 642 589 b 481 494 642 535 592 503 l 481 1088 z "},"Ω":{"ha":569,"x_min":0,"x_max":0,"o":"m 185 888 b 285 983 185 950 231 983 b 385 888 339 983 385 950 l 385 397 b 328 304 385 344 365 318 l 328 0 l 508 0 l 508 124 l 418 124 l 418 224 b 508 407 474 261 508 325 l 508 889 b 285 1107 508 1025 410 1107 b 61 889 160 1107 61 1025 l 61 407 b 151 224 61 325 94 261 l 151 124 l 63 124 l 63 0 l 242 0 l 242 304 b 185 397 203 318 185 344 z "},"Ϊ":{"ha":263,"x_min":0,"x_max":0,"o":"m 68 1088 l 68 0 l 196 0 l 196 1088 z m 246 1358 b 175 1283 199 1358 175 1325 b 246 1206 175 1240 199 1206 b 319 1283 296 1206 319 1240 b 246 1358 319 1325 296 1358 z m 14 1358 b -57 1283 -33 1358 -57 1325 b 14 1206 -57 1240 -33 1206 b 88 1283 64 1206 88 1240 b 14 1358 88 1325 64 1358 z "},"Ϋ":{"ha":572,"x_min":0,"x_max":0,"o":"m 18 1088 l 222 508 l 222 0 l 350 0 l 350 508 l 554 1088 l 431 1088 l 288 665 l 147 1088 z m 400 1358 b 329 1283 353 1358 329 1325 b 400 1206 329 1240 353 1206 b 474 1283 450 1206 474 1240 b 400 1358 474 1325 450 1358 z m 168 1358 b 97 1283 121 1358 97 1325 b 168 1206 97 1240 121 1206 b 242 1283 218 1206 242 1240 b 168 1358 242 1325 218 1358 z "},"ά":{"ha":675,"x_min":0,"x_max":0,"o":"m 533 -11 b 647 24 578 -11 618 1 l 614 131 b 549 106 600 115 579 106 b 464 168 513 106 476 119 b 650 849 540 318 593 556 l 536 849 b 458 440 511 683 486 547 l 458 658 b 276 860 458 793 404 860 b 57 654 140 860 57 785 l 57 194 b 232 -11 57 64 122 -11 b 397 67 297 -11 351 17 b 533 -11 424 17 467 -11 z m 176 647 b 274 738 176 708 206 738 b 368 643 336 738 368 711 l 368 199 b 251 111 332 139 294 111 b 176 201 206 111 176 140 z m 275 1204 l 232 915 l 333 915 l 403 1204 z "},"έ":{"ha":522,"x_min":0,"x_max":0,"o":"m 228 1204 l 185 915 l 286 915 l 356 1204 z m 271 860 b 54 679 129 860 54 785 l 54 563 b 131 440 54 493 79 457 b 43 310 75 422 43 385 l 43 154 b 264 -11 43 50 140 -11 b 479 156 389 -11 479 50 l 479 282 l 367 253 l 367 183 b 265 111 367 135 324 111 b 167 182 206 111 167 135 l 167 306 b 265 388 167 364 193 388 l 433 388 l 433 489 l 274 489 b 178 565 204 489 178 507 l 178 654 b 272 738 178 707 206 738 b 367 663 333 738 367 711 l 367 618 l 479 618 l 479 693 b 271 860 479 797 399 860 z "},"ή":{"ha":594,"x_min":0,"x_max":0,"o":"m 28 849 l 28 744 l 46 744 b 99 681 82 744 99 725 l 99 0 l 222 0 l 222 693 b 321 738 253 722 285 738 b 410 628 383 738 410 697 l 410 -237 l 533 -237 l 533 654 b 356 860 533 793 453 860 b 201 799 300 860 244 839 b 83 849 179 832 140 849 z m 265 1204 l 222 915 l 324 915 l 393 1204 z "},"ί":{"ha":356,"x_min":0,"x_max":0,"o":"m 64 849 l 64 190 b 235 -11 64 82 111 -11 b 342 22 275 -11 314 0 l 311 128 b 254 106 292 113 272 106 b 183 190 210 106 183 139 l 183 849 z m 121 1204 l 78 915 l 179 915 l 249 1204 z "},"ΰ":{"ha":594,"x_min":0,"x_max":0,"o":"m 258 1204 l 215 915 l 317 915 l 386 1204 z m 28 849 l 28 744 l 38 744 b 90 681 72 744 90 724 l 90 194 b 304 -11 90 67 183 -11 b 542 446 447 -11 542 100 b 510 849 542 592 525 739 l 388 849 b 421 424 406 726 421 563 b 300 111 421 165 367 111 b 210 201 250 111 210 142 l 210 711 b 75 849 210 803 167 849 z m 474 1119 b 403 1044 426 1119 403 1086 b 474 967 403 1001 426 967 b 547 1044 524 967 547 1001 b 474 1119 547 1086 524 1119 z m 108 1119 b 38 1044 61 1119 38 1086 b 108 967 38 1001 61 967 b 182 1044 158 967 182 1001 b 108 1119 182 1086 158 1119 z "},"α":{"ha":675,"x_min":0,"x_max":0,"o":"m 533 -11 b 647 24 578 -11 618 1 l 614 131 b 549 106 600 115 579 106 b 464 168 513 106 476 119 b 650 849 540 318 593 556 l 536 849 b 458 440 511 683 486 547 l 458 658 b 276 860 458 793 404 860 b 57 654 140 860 57 785 l 57 194 b 232 -11 57 64 122 -11 b 397 67 297 -11 351 17 b 533 -11 424 17 467 -11 z m 176 647 b 274 738 176 708 206 738 b 368 643 336 738 368 711 l 368 199 b 251 111 332 139 294 111 b 176 201 206 111 176 140 z "},"β":{"ha":619,"x_min":0,"x_max":0,"o":"m 358 -11 b 565 217 507 -11 565 93 l 565 419 b 447 601 565 531 524 581 b 476 739 467 629 476 674 l 476 935 b 278 1143 476 1047 431 1143 b 64 913 125 1143 64 1047 l 64 -237 l 181 -237 l 181 69 b 358 -11 217 25 272 -11 z m 181 921 b 274 1021 181 983 211 1021 b 363 926 336 1021 363 982 l 363 729 b 279 631 363 658 350 631 l 267 631 l 267 532 l 307 532 b 444 414 408 532 444 508 l 444 217 b 339 106 444 149 406 106 b 181 193 276 106 221 143 z "},"γ":{"ha":525,"x_min":0,"x_max":0,"o":"m 26 849 b 172 0 101 568 172 164 l 172 -237 l 296 -237 l 296 0 b 500 849 399 271 499 561 l 383 849 b 263 194 383 629 335 413 b 146 849 243 396 199 643 z "},"δ":{"ha":536,"x_min":0,"x_max":0,"o":"m 57 521 l 57 194 b 268 -11 57 67 150 -11 b 479 194 385 -11 479 67 l 479 506 b 415 682 479 563 468 624 b 231 831 360 746 279 786 b 179 936 189 867 179 900 b 271 1026 179 996 210 1026 b 367 931 339 1026 367 986 l 367 901 l 479 901 l 479 949 b 272 1143 479 1051 424 1143 b 60 938 146 1143 60 1079 b 144 756 60 860 90 801 b 57 521 90 713 57 643 z m 358 510 l 358 201 b 268 111 358 143 321 111 b 176 201 215 111 176 143 l 176 521 b 226 697 176 607 192 661 b 358 510 296 647 358 594 z "},"ε":{"ha":522,"x_min":0,"x_max":0,"o":"m 271 860 b 54 679 129 860 54 785 l 54 563 b 131 440 54 493 79 457 b 43 310 75 422 43 385 l 43 154 b 264 -11 43 50 140 -11 b 479 156 389 -11 479 50 l 479 282 l 367 253 l 367 183 b 265 111 367 135 324 111 b 167 182 206 111 167 135 l 167 306 b 265 388 167 364 193 388 l 433 388 l 433 489 l 274 489 b 178 565 204 489 178 507 l 178 654 b 272 738 178 707 206 738 b 367 663 333 738 367 711 l 367 618 l 479 618 l 479 693 b 271 860 479 797 399 860 z "},"ζ":{"ha":514,"x_min":0,"x_max":0,"o":"m 58 1132 l 58 1028 l 329 1028 b 57 253 85 467 57 388 b 254 13 57 68 111 51 b 351 -85 318 -6 351 -17 b 299 -237 351 -137 332 -189 l 419 -237 b 469 -79 450 -185 469 -143 b 315 104 469 40 404 76 b 176 263 203 138 176 144 b 461 1046 176 365 196 424 l 461 1132 z "},"η":{"ha":594,"x_min":0,"x_max":0,"o":"m 28 849 l 28 744 l 46 744 b 99 681 82 744 99 725 l 99 0 l 222 0 l 222 693 b 321 738 253 722 285 738 b 410 628 383 738 410 697 l 410 -237 l 533 -237 l 533 654 b 356 860 533 793 453 860 b 201 799 300 860 244 839 b 83 849 179 832 140 849 z "},"θ":{"ha":536,"x_min":0,"x_max":0,"o":"m 268 1143 b 57 938 150 1143 57 1065 l 57 194 b 268 -11 57 67 150 -11 b 479 194 385 -11 479 67 l 479 938 b 268 1143 479 1065 385 1143 z m 268 111 b 176 201 215 111 176 143 l 176 519 l 358 519 l 358 201 b 268 111 358 143 321 111 z m 268 1021 b 358 931 321 1021 358 989 l 358 624 l 176 624 l 176 931 b 268 1021 176 989 215 1021 z "},"ι":{"ha":356,"x_min":0,"x_max":0,"o":"m 64 849 l 64 190 b 235 -11 64 82 111 -11 b 342 22 275 -11 314 0 l 311 128 b 254 106 292 113 272 106 b 183 190 210 106 183 139 l 183 849 z "},"κ":{"ha":521,"x_min":0,"x_max":0,"o":"m 360 849 l 188 533 l 188 849 l 64 849 l 64 0 l 188 0 l 188 457 l 375 0 l 503 0 l 292 501 l 486 849 z "},"λ":{"ha":539,"x_min":0,"x_max":0,"o":"m 22 1132 l 22 1028 l 51 1028 b 183 915 125 1028 160 1011 l 211 794 l 26 0 l 146 0 l 265 556 l 394 0 l 513 0 l 299 932 b 60 1132 264 1079 196 1132 z "},"μ":{"ha":631,"x_min":0,"x_max":0,"o":"m 369 849 l 369 157 b 272 111 339 126 306 111 b 185 221 215 111 185 147 l 185 849 l 61 849 l 61 -237 l 186 -237 l 168 1 b 238 -11 190 -7 213 -11 b 396 58 296 -11 353 13 b 519 -11 419 17 458 -11 b 615 22 556 -11 590 0 l 594 128 b 546 106 578 113 564 106 b 492 185 511 106 492 132 l 492 849 z "},"ν":{"ha":525,"x_min":0,"x_max":0,"o":"m 26 849 b 174 0 101 568 174 164 l 293 0 b 500 849 397 271 499 561 l 383 849 b 263 194 383 629 335 413 b 146 849 243 396 199 643 z "},"ξ":{"ha":514,"x_min":0,"x_max":0,"o":"m 58 1132 l 58 1028 l 318 1028 b 71 628 93 758 71 706 b 163 506 71 560 93 522 b 57 267 89 475 57 401 b 254 13 57 67 115 50 b 351 -85 318 -6 351 -17 b 299 -237 351 -137 332 -189 l 419 -237 b 469 -79 450 -185 469 -143 b 315 104 469 40 404 76 b 176 269 199 139 176 146 b 290 456 176 403 206 456 l 443 456 l 443 557 l 290 557 b 185 650 201 557 185 588 b 461 1047 185 699 190 738 l 461 1132 z "},"ο":{"ha":536,"x_min":0,"x_max":0,"o":"m 479 654 b 268 860 479 782 385 860 b 57 654 150 860 57 782 l 57 194 b 268 -11 57 67 150 -11 b 479 194 385 -11 479 67 z m 176 647 b 268 738 176 706 215 738 b 358 647 321 738 358 706 l 358 201 b 268 111 358 143 321 111 b 176 201 215 111 176 143 z "},"π":{"ha":725,"x_min":0,"x_max":0,"o":"m 28 849 l 28 744 l 119 744 l 119 0 l 243 0 l 243 744 l 428 744 l 428 190 b 599 -11 428 82 476 -11 b 707 22 639 -11 678 0 l 675 128 b 618 106 656 113 638 106 b 549 190 575 106 549 139 l 549 744 l 664 744 l 664 849 z "},"ρ":{"ha":547,"x_min":0,"x_max":0,"o":"m 326 -11 b 490 194 393 -11 490 47 l 490 654 b 275 860 490 782 392 860 b 64 654 157 860 64 782 l 64 -237 l 183 -237 l 183 39 b 326 -11 219 8 267 -11 z m 183 647 b 275 738 183 706 222 738 b 369 647 328 738 369 706 l 369 201 b 281 111 369 140 331 111 b 183 163 246 111 214 129 z "},"ς":{"ha":514,"x_min":0,"x_max":0,"o":"m 176 647 b 265 738 176 706 214 738 b 356 647 318 738 356 706 l 356 618 l 468 618 l 468 654 b 261 860 468 782 376 860 b 57 654 147 860 57 782 l 57 264 b 254 13 57 67 119 47 b 351 -85 317 -6 351 -17 b 299 -237 351 -137 332 -189 l 419 -237 b 469 -79 450 -185 469 -143 b 315 104 469 40 404 76 b 176 265 204 138 176 146 z "},"σ":{"ha":590,"x_min":0,"x_max":0,"o":"m 268 849 b 57 654 150 849 57 782 l 57 194 b 268 -11 57 67 150 -11 b 479 194 385 -11 479 67 l 479 563 b 428 744 479 646 457 706 l 563 744 l 563 849 z m 358 563 l 358 201 b 268 111 358 143 321 111 b 176 201 215 111 176 143 l 176 657 b 268 744 176 715 215 744 l 326 744 b 358 563 346 710 358 656 z "},"τ":{"ha":499,"x_min":0,"x_max":0,"o":"m 28 849 l 28 744 l 169 744 l 169 190 b 339 -11 169 82 217 -11 b 447 22 381 -11 419 0 l 415 128 b 360 106 397 113 378 106 b 289 190 315 106 289 139 l 289 744 l 472 744 l 472 849 z "},"υ":{"ha":594,"x_min":0,"x_max":0,"o":"m 28 849 l 28 744 l 38 744 b 90 681 72 744 90 724 l 90 194 b 304 -11 90 67 183 -11 b 542 446 447 -11 542 100 b 510 849 542 592 525 739 l 388 849 b 421 424 406 726 421 563 b 300 111 421 165 367 111 b 210 201 250 111 210 142 l 210 711 b 75 849 210 803 167 849 z "},"φ":{"ha":772,"x_min":0,"x_max":0,"o":"m 325 1101 l 325 858 b 57 654 103 847 57 771 l 57 194 b 325 -10 57 76 103 1 l 325 -237 l 447 -237 l 447 -10 b 715 194 669 1 715 76 l 715 654 b 447 858 715 771 669 847 l 447 1132 z m 176 647 b 325 736 176 697 200 729 l 325 113 b 176 201 200 119 176 150 z m 594 647 l 594 201 b 447 113 594 150 572 119 l 447 736 b 594 647 572 729 594 697 z "},"χ":{"ha":579,"x_min":0,"x_max":0,"o":"m 428 849 l 283 504 l 244 656 b 54 849 201 804 179 849 l 21 849 l 21 744 l 46 744 b 165 592 107 744 131 719 l 225 364 l -28 -237 l 96 -237 l 272 182 l 332 -44 b 522 -237 374 -193 396 -237 l 556 -237 l 556 -133 l 531 -133 b 410 19 469 -133 446 -108 l 331 319 l 554 849 z "},"ψ":{"ha":806,"x_min":0,"x_max":0,"o":"m 340 1028 l 340 119 b 175 429 257 142 175 217 b 210 849 175 556 190 725 l 88 849 b 56 451 72 739 56 589 b 340 -6 56 140 192 19 l 340 -237 l 463 -237 l 463 -7 b 750 458 611 15 750 133 b 718 849 750 599 733 740 l 596 849 b 629 428 614 726 629 557 b 463 118 629 214 546 139 l 463 1058 z "},"ω":{"ha":793,"x_min":0,"x_max":0,"o":"m 85 849 b 53 428 68 740 53 599 b 258 -11 53 99 121 -11 b 396 76 328 -11 371 17 b 533 -11 421 17 463 -11 b 740 428 672 -11 740 99 b 708 849 740 599 725 740 l 586 849 b 619 394 606 726 619 574 b 531 111 619 157 588 111 b 450 518 468 111 450 167 l 343 518 b 263 111 343 167 325 111 b 174 394 206 111 174 157 b 207 849 174 574 188 726 z "},"ϊ":{"ha":400,"x_min":0,"x_max":0,"o":"m 108 849 l 108 190 b 279 -11 108 82 156 -11 b 386 22 319 -11 358 0 l 356 128 b 299 106 336 113 317 106 b 228 190 254 106 228 139 l 228 849 z m 283 1119 b 213 1044 236 1119 213 1086 b 283 967 213 1001 236 967 b 357 1044 333 967 357 1001 b 283 1119 357 1086 333 1119 z m 51 1119 b -19 1044 4 1119 -19 1086 b 51 967 -19 1001 4 967 b 125 1044 101 967 125 1001 b 51 1119 125 1086 101 1119 z "},"ϋ":{"ha":594,"x_min":0,"x_max":0,"o":"m 28 849 l 28 744 l 38 744 b 90 681 72 744 90 724 l 90 194 b 304 -11 90 67 183 -11 b 542 446 447 -11 542 100 b 510 849 542 592 525 739 l 388 849 b 421 424 406 726 421 563 b 300 111 421 165 367 111 b 210 201 250 111 210 142 l 210 711 b 75 849 210 803 167 849 z m 393 1119 b 322 1044 346 1119 322 1086 b 393 967 322 1001 346 967 b 467 1044 443 967 467 1001 b 393 1119 467 1086 443 1119 z m 161 1119 b 90 1044 114 1119 90 1086 b 161 967 90 1001 114 967 b 235 1044 211 967 235 1001 b 161 1119 235 1086 211 1119 z "},"ό":{"ha":536,"x_min":0,"x_max":0,"o":"m 479 654 b 268 860 479 782 385 860 b 57 654 150 860 57 782 l 57 194 b 268 -11 57 67 150 -11 b 479 194 385 -11 479 67 z m 176 647 b 268 738 176 706 215 738 b 358 647 321 738 358 706 l 358 201 b 268 111 358 143 321 111 b 176 201 215 111 176 143 z m 235 1204 l 192 915 l 293 915 l 363 1204 z "},"ύ":{"ha":594,"x_min":0,"x_max":0,"o":"m 260 1204 l 217 915 l 318 915 l 388 1204 z m 28 849 l 28 744 l 38 744 b 90 681 72 744 90 724 l 90 194 b 304 -11 90 67 183 -11 b 542 446 447 -11 542 100 b 510 849 542 592 525 739 l 388 849 b 421 424 406 726 421 563 b 300 111 421 165 367 111 b 210 201 250 111 210 142 l 210 711 b 75 849 210 803 167 849 z "},"ώ":{"ha":793,"x_min":0,"x_max":0,"o":"m 85 849 b 53 428 68 740 53 599 b 258 -11 53 99 121 -11 b 396 76 328 -11 371 17 b 533 -11 421 17 463 -11 b 740 428 672 -11 740 99 b 708 849 740 599 725 740 l 586 849 b 619 394 606 726 619 574 b 531 111 619 157 588 111 b 450 518 468 111 450 167 l 343 518 b 263 111 343 167 325 111 b 174 394 206 111 174 157 b 207 849 174 574 188 726 z m 363 1204 l 319 915 l 421 915 l 490 1204 z "},"Ѐ":{"ha":464,"x_min":0,"x_max":0,"o":"m 64 1088 l 64 0 l 424 0 l 424 124 l 192 124 l 192 499 l 356 499 l 356 622 l 192 622 l 192 964 l 424 964 l 424 1088 z m 101 1374 l 249 1154 l 358 1154 l 236 1374 z "},"Ё":{"ha":464,"x_min":0,"x_max":0,"o":"m 64 1088 l 64 0 l 424 0 l 424 124 l 192 124 l 192 499 l 356 499 l 356 622 l 192 622 l 192 964 l 424 964 l 424 1088 z m 358 1358 b 288 1283 311 1358 288 1325 b 358 1206 288 1240 311 1206 b 432 1283 408 1206 432 1240 b 358 1358 432 1325 408 1358 z m 126 1358 b 56 1283 79 1358 56 1325 b 126 1206 56 1240 79 1206 b 200 1283 176 1206 200 1240 b 126 1358 200 1325 176 1358 z "},"Ђ":{"ha":761,"x_min":0,"x_max":0,"o":"m 28 1088 l 28 964 l 214 964 l 214 0 l 342 0 l 342 538 b 447 551 368 546 403 551 b 579 456 518 551 579 518 l 579 54 b 497 -57 579 -14 557 -57 b 429 -33 474 -57 449 -49 l 397 -139 b 517 -174 429 -162 472 -174 b 707 54 656 -174 707 -69 l 707 457 b 475 675 707 592 603 675 b 342 643 425 675 378 663 l 342 964 l 561 964 l 561 1088 z "},"Ѓ":{"ha":424,"x_min":0,"x_max":0,"o":"m 242 1374 l 119 1154 l 228 1154 l 376 1374 z m 64 1088 l 64 0 l 192 0 l 192 964 l 396 964 l 396 1088 z "},"Є":{"ha":526,"x_min":0,"x_max":0,"o":"m 183 889 b 279 983 183 951 221 983 b 371 889 336 983 371 951 l 371 856 l 489 856 l 489 892 b 278 1107 489 1025 407 1107 b 57 892 149 1107 57 1025 l 57 196 b 271 -19 57 63 151 -19 b 489 196 392 -19 489 63 l 489 251 l 371 221 l 371 199 b 276 104 371 136 332 104 b 183 199 221 104 183 136 l 183 499 l 386 499 l 386 622 l 183 622 z "},"Ѕ":{"ha":522,"x_min":0,"x_max":0,"o":"m 265 1107 b 44 872 132 1107 44 1017 b 126 629 44 803 64 728 b 306 388 178 549 264 450 b 360 225 346 325 360 275 b 256 97 360 144 325 97 b 153 194 190 97 153 143 l 153 221 l 35 251 l 35 193 b 264 -19 35 75 121 -19 b 482 242 413 -19 482 82 b 421 444 482 321 464 376 b 219 721 371 525 269 651 b 163 871 183 772 163 818 b 263 988 163 935 194 988 b 357 885 322 988 357 947 l 357 856 l 475 856 l 475 894 b 265 1107 475 1021 396 1107 z "},"І":{"ha":256,"x_min":0,"x_max":0,"o":"m 64 1088 l 64 0 l 192 0 l 192 1088 z "},"Ї":{"ha":335,"x_min":0,"x_max":0,"o":"m 103 1088 l 103 0 l 231 0 l 231 1088 z m 282 1358 b 211 1283 235 1358 211 1325 b 282 1206 211 1240 235 1206 b 356 1283 332 1206 356 1240 b 282 1358 356 1325 332 1358 z m 50 1358 b -21 1283 3 1358 -21 1325 b 50 1206 -21 1240 3 1206 b 124 1283 100 1206 124 1240 b 50 1358 124 1325 100 1358 z "},"Ј":{"ha":521,"x_min":0,"x_max":0,"o":"m 333 1088 l 333 199 b 239 104 333 136 296 104 b 146 199 183 104 146 136 l 146 221 l 28 251 l 28 196 b 243 -19 28 63 117 -19 b 460 196 368 -19 460 63 l 460 1088 z "},"Љ":{"ha":968,"x_min":0,"x_max":0,"o":"m 276 1088 b 221 415 276 847 256 596 b 54 124 171 156 104 124 l 28 124 l 28 0 l 64 0 b 319 392 181 0 261 85 b 371 964 349 547 367 729 l 483 964 l 483 0 l 708 0 b 925 250 842 0 925 81 l 925 365 b 708 615 925 535 842 615 l 611 615 l 611 1088 z m 611 492 l 699 492 b 799 372 767 492 799 453 l 799 242 b 699 124 799 163 767 124 l 611 124 z "},"Њ":{"ha":869,"x_min":0,"x_max":0,"o":"m 64 1088 l 64 0 l 192 0 l 192 492 l 385 492 l 385 0 l 610 0 b 826 250 743 0 826 81 l 826 365 b 610 615 826 535 743 615 l 513 615 l 513 1088 l 385 1088 l 385 614 l 192 614 l 192 1088 z m 513 492 l 600 492 b 700 372 668 492 700 453 l 700 242 b 600 124 700 163 668 124 l 513 124 z "},"Ћ":{"ha":701,"x_min":0,"x_max":0,"o":"m 28 1088 l 28 964 l 214 964 l 214 0 l 342 0 l 342 536 b 431 551 364 546 393 551 b 531 456 503 551 531 518 l 531 0 l 658 0 l 658 457 b 475 675 658 593 606 675 b 342 642 421 675 376 661 l 342 964 l 561 964 l 561 1088 z "},"Ќ":{"ha":538,"x_min":0,"x_max":0,"o":"m 372 1088 l 192 683 l 192 1088 l 64 1088 l 64 0 l 192 0 l 192 588 l 386 0 l 519 0 l 300 643 l 503 1088 z m 279 1374 l 157 1154 l 265 1154 l 414 1374 z "},"Ѝ":{"ha":576,"x_min":0,"x_max":0,"o":"m 147 1374 l 294 1154 l 404 1154 l 282 1374 z m 64 1088 l 64 0 l 172 0 l 390 808 l 390 0 l 513 0 l 513 1088 l 376 1088 l 185 351 l 185 1088 z "},"Ў":{"ha":600,"x_min":0,"x_max":0,"o":"m 124 1374 b 300 1158 129 1264 179 1158 b 475 1374 419 1158 469 1263 l 385 1374 b 300 1231 379 1268 347 1231 b 215 1374 253 1231 221 1268 z m 28 1088 l 239 308 l 211 206 b 100 122 193 139 171 122 l 40 122 l 40 0 l 111 0 b 318 163 231 0 282 33 l 578 1088 l 454 1088 l 301 532 l 157 1088 z "},"Џ":{"ha":576,"x_min":0,"x_max":0,"o":"m 513 0 l 513 1088 l 385 1088 l 385 124 l 192 124 l 192 1088 l 64 1088 l 64 0 l 232 0 l 232 -237 l 343 -237 l 343 0 z "},"А":{"ha":549,"x_min":0,"x_max":0,"o":"m 208 1088 l 25 0 l 149 0 l 172 157 l 375 157 l 400 0 l 524 0 l 335 1088 z m 272 808 l 358 264 l 189 264 z "},"Б":{"ha":549,"x_min":0,"x_max":0,"o":"m 64 1088 l 64 0 l 289 0 b 506 250 422 0 506 81 l 506 365 b 289 615 506 535 422 615 l 192 615 l 192 964 l 396 964 l 396 1088 z m 192 492 l 279 492 b 379 372 347 492 379 453 l 379 242 b 279 124 379 163 347 124 l 192 124 z "},"В":{"ha":558,"x_min":0,"x_max":0,"o":"m 64 1088 l 64 0 l 296 0 b 513 224 429 0 513 81 l 513 397 b 421 564 513 493 479 542 b 500 721 474 586 500 632 l 500 872 b 285 1088 500 1007 418 1088 z m 189 506 l 286 506 b 386 399 360 506 386 476 l 386 232 b 286 121 386 158 354 121 l 189 121 z m 189 967 l 275 967 b 375 857 344 967 375 925 l 375 717 b 278 615 375 642 349 615 l 189 615 z "},"Г":{"ha":424,"x_min":0,"x_max":0,"o":"m 64 1088 l 64 0 l 192 0 l 192 964 l 396 964 l 396 1088 z "},"Д":{"ha":811,"x_min":0,"x_max":0,"o":"m 301 1088 b 246 415 301 847 281 596 b 79 124 196 156 129 124 l 28 124 l 28 -237 l 139 -237 l 139 0 l 672 0 l 672 -237 l 783 -237 l 783 124 l 636 124 l 636 1088 z m 263 124 b 344 392 299 196 322 274 b 396 964 374 547 392 729 l 508 964 l 508 124 z "},"Е":{"ha":464,"x_min":0,"x_max":0,"o":"m 64 1088 l 64 0 l 424 0 l 424 124 l 192 124 l 192 499 l 356 499 l 356 622 l 192 622 l 192 964 l 424 964 l 424 1088 z "},"Ж":{"ha":819,"x_min":0,"x_max":0,"o":"m 346 1088 l 346 683 l 165 1088 l 35 1088 l 238 643 l 18 0 l 151 0 l 346 588 l 346 0 l 474 0 l 474 588 l 668 0 l 801 0 l 582 643 l 785 1088 l 654 1088 l 474 683 l 474 1088 z "},"З":{"ha":535,"x_min":0,"x_max":0,"o":"m 257 1107 b 46 892 128 1107 46 1025 l 46 856 l 164 856 l 164 883 b 256 983 164 947 193 983 b 351 874 324 983 351 942 l 351 717 b 254 615 351 642 325 615 l 186 615 l 186 506 l 263 506 b 363 399 336 506 363 476 l 363 199 b 263 104 363 136 324 104 b 164 199 203 104 164 136 l 164 221 l 46 251 l 46 196 b 264 -19 46 63 138 -19 b 489 194 390 -19 489 63 l 489 397 b 397 564 489 493 456 542 b 476 721 450 586 476 632 l 476 872 b 257 1107 476 1007 401 1107 z "},"И":{"ha":576,"x_min":0,"x_max":0,"o":"m 64 1088 l 64 0 l 172 0 l 390 808 l 390 0 l 513 0 l 513 1088 l 376 1088 l 185 351 l 185 1088 z "},"Й":{"ha":576,"x_min":0,"x_max":0,"o":"m 111 1374 b 288 1158 117 1264 167 1158 b 463 1374 407 1158 457 1263 l 372 1374 b 288 1231 367 1268 335 1231 b 203 1374 240 1231 208 1268 z m 64 1088 l 64 0 l 172 0 l 390 808 l 390 0 l 513 0 l 513 1088 l 376 1088 l 185 351 l 185 1088 z "},"К":{"ha":538,"x_min":0,"x_max":0,"o":"m 372 1088 l 192 683 l 192 1088 l 64 1088 l 64 0 l 192 0 l 192 588 l 386 0 l 519 0 l 300 643 l 503 1088 z "},"Л":{"ha":675,"x_min":0,"x_max":0,"o":"m 276 1088 b 221 415 276 847 256 596 b 54 124 171 156 104 124 l 28 124 l 28 0 l 64 0 b 319 392 181 0 261 85 b 371 964 349 547 367 729 l 483 964 l 483 0 l 611 0 l 611 1088 z "},"М":{"ha":743,"x_min":0,"x_max":0,"o":"m 64 1088 l 64 0 l 178 0 l 178 711 l 314 0 l 432 0 l 565 701 l 565 0 l 679 0 l 679 1088 l 551 1088 l 372 225 l 203 1088 z "},"Н":{"ha":576,"x_min":0,"x_max":0,"o":"m 64 1088 l 64 0 l 192 0 l 192 492 l 385 492 l 385 0 l 513 0 l 513 1088 l 385 1088 l 385 614 l 192 614 l 192 1088 z "},"О":{"ha":561,"x_min":0,"x_max":0,"o":"m 504 889 b 281 1107 504 1025 404 1107 b 57 889 156 1107 57 1025 l 57 199 b 281 -19 57 63 156 -19 b 504 199 404 -19 504 63 z m 183 888 b 281 983 183 950 224 983 b 378 888 338 983 378 950 l 378 200 b 281 104 378 138 338 104 b 183 200 224 104 183 138 z "},"П":{"ha":576,"x_min":0,"x_max":0,"o":"m 64 1088 l 64 0 l 192 0 l 192 964 l 385 964 l 385 0 l 513 0 l 513 1088 z "},"Р":{"ha":549,"x_min":0,"x_max":0,"o":"m 64 1088 l 64 0 l 192 0 l 192 429 l 289 429 b 506 679 422 429 506 510 l 506 838 b 289 1088 506 1007 422 1088 z m 192 964 l 279 964 b 379 846 347 964 379 925 l 379 671 b 279 553 379 592 347 553 l 192 553 z "},"С":{"ha":526,"x_min":0,"x_max":0,"o":"m 183 889 b 279 983 183 951 221 983 b 371 889 336 983 371 951 l 371 856 l 489 856 l 489 892 b 278 1107 489 1025 407 1107 b 57 892 149 1107 57 1025 l 57 196 b 271 -19 57 63 151 -19 b 489 196 392 -19 489 63 l 489 251 l 371 221 l 371 199 b 276 104 371 136 332 104 b 183 199 221 104 183 136 z "},"Т":{"ha":428,"x_min":0,"x_max":0,"o":"m 28 1088 l 28 964 l 150 964 l 150 0 l 278 0 l 278 964 l 400 964 l 400 1088 z "},"У":{"ha":600,"x_min":0,"x_max":0,"o":"m 28 1088 l 239 308 l 211 206 b 100 122 193 139 171 122 l 40 122 l 40 0 l 111 0 b 318 163 231 0 282 33 l 578 1088 l 454 1088 l 301 532 l 157 1088 z "},"Ф":{"ha":783,"x_min":0,"x_max":0,"o":"m 328 1088 l 328 967 b 57 750 110 954 57 875 l 57 338 b 328 121 57 213 110 133 l 328 0 l 456 0 l 456 121 b 726 338 674 133 726 213 l 726 750 b 456 967 726 875 674 954 l 456 1088 z m 183 749 b 328 843 183 803 206 835 l 328 244 b 183 339 206 251 183 285 z m 600 749 l 600 339 b 456 244 600 285 576 251 l 456 843 b 600 749 576 835 600 803 z "},"Х":{"ha":567,"x_min":0,"x_max":0,"o":"m 408 1088 l 283 743 l 163 1088 l 33 1088 l 211 578 l 18 0 l 139 0 l 275 397 l 414 0 l 549 0 l 346 565 l 532 1088 z "},"Ц":{"ha":688,"x_min":0,"x_max":0,"o":"m 513 124 l 513 1088 l 385 1088 l 385 124 l 192 124 l 192 1088 l 64 1088 l 64 0 l 549 0 l 549 -237 l 660 -237 l 660 124 z "},"Ч":{"ha":561,"x_min":0,"x_max":0,"o":"m 369 1088 l 369 550 b 283 536 346 542 315 536 b 181 632 208 536 181 568 l 181 1088 l 53 1088 l 53 631 b 236 413 53 494 106 413 b 369 446 289 413 335 426 l 369 0 l 497 0 l 497 1088 z "},"Ш":{"ha":863,"x_min":0,"x_max":0,"o":"m 64 1088 l 64 0 l 799 0 l 799 1088 l 671 1088 l 671 124 l 496 124 l 496 1088 l 368 1088 l 368 124 l 192 124 l 192 1088 z "},"Щ":{"ha":974,"x_min":0,"x_max":0,"o":"m 64 1088 l 64 0 l 835 0 l 835 -237 l 946 -237 l 946 124 l 799 124 l 799 1088 l 671 1088 l 671 124 l 496 124 l 496 1088 l 368 1088 l 368 124 l 192 124 l 192 1088 z "},"Ъ":{"ha":699,"x_min":0,"x_max":0,"o":"m 28 1088 l 28 964 l 214 964 l 214 0 l 439 0 b 656 250 572 0 656 81 l 656 365 b 439 615 656 535 572 615 l 342 615 l 342 1088 z m 342 492 l 429 492 b 529 372 497 492 529 453 l 529 242 b 429 124 529 163 497 124 l 342 124 z "},"Ы":{"ha":775,"x_min":0,"x_max":0,"o":"m 583 1088 l 583 0 l 711 0 l 711 1088 z m 64 1088 l 64 0 l 289 0 b 506 250 422 0 506 81 l 506 365 b 289 615 506 535 422 615 l 192 615 l 192 1088 z m 192 492 l 279 492 b 379 372 347 492 379 453 l 379 242 b 279 124 379 163 347 124 l 192 124 z "},"Ь":{"ha":549,"x_min":0,"x_max":0,"o":"m 64 1088 l 64 0 l 289 0 b 506 250 422 0 506 81 l 506 365 b 289 615 506 535 422 615 l 192 615 l 192 1088 z m 192 492 l 279 492 b 379 372 347 492 379 453 l 379 242 b 279 124 379 163 347 124 l 192 124 z "},"Э":{"ha":526,"x_min":0,"x_max":0,"o":"m 249 1107 b 38 892 119 1107 38 1025 l 38 856 l 156 856 l 156 889 b 247 983 156 951 190 983 b 343 889 306 983 343 951 l 343 622 l 140 622 l 140 499 l 343 499 l 343 199 b 250 104 343 136 306 104 b 156 199 194 104 156 136 l 156 221 l 38 251 l 38 196 b 256 -19 38 63 135 -19 b 469 196 375 -19 469 63 l 469 892 b 249 1107 469 1025 378 1107 z "},"Ю":{"ha":796,"x_min":0,"x_max":0,"o":"m 739 889 b 515 1107 739 1025 639 1107 b 292 889 390 1107 292 1025 l 292 622 l 192 622 l 192 1088 l 64 1088 l 64 0 l 192 0 l 192 499 l 292 499 l 292 199 b 515 -19 292 63 390 -19 b 739 199 639 -19 739 63 z m 418 888 b 515 983 418 950 458 983 b 613 888 572 983 613 950 l 613 200 b 515 104 613 138 572 104 b 418 200 458 104 418 138 z "},"Я":{"ha":569,"x_min":0,"x_max":0,"o":"m 285 1088 b 69 872 151 1088 69 1007 l 69 715 b 174 513 69 619 107 549 l 18 0 l 151 0 l 296 488 l 381 488 l 381 0 l 506 0 l 506 1088 z m 194 857 b 294 967 194 928 226 967 l 381 967 l 381 597 l 294 597 b 194 710 226 597 194 638 z "},"а":{"ha":533,"x_min":0,"x_max":0,"o":"m 142 681 b 254 746 165 721 207 746 b 356 626 322 746 356 697 l 356 600 b 213 504 303 567 253 533 b 38 208 89 411 38 333 b 217 -11 38 47 124 -11 b 372 47 275 -11 331 13 l 394 0 l 472 0 l 472 629 b 271 860 472 764 406 860 b 74 765 190 860 114 825 z m 253 106 b 161 226 197 106 161 140 b 274 425 161 297 186 357 b 356 481 297 443 322 460 l 356 154 b 253 106 325 124 292 106 z "},"б":{"ha":536,"x_min":0,"x_max":0,"o":"m 258 1079 b 57 871 117 1079 57 1018 l 57 194 b 268 -11 57 67 150 -11 b 479 194 385 -11 479 67 l 479 617 b 268 822 479 744 385 822 b 146 789 222 822 179 810 l 146 856 b 267 957 146 940 182 957 l 360 957 b 503 1146 460 957 500 1010 l 503 1161 l 442 1161 l 442 1146 b 353 1079 442 1099 417 1079 z m 176 610 b 268 700 176 668 215 700 b 358 610 321 700 358 668 l 358 201 b 268 111 358 143 321 111 b 176 201 215 111 176 143 z "},"в":{"ha":551,"x_min":0,"x_max":0,"o":"m 64 849 l 64 0 l 294 0 b 508 175 426 0 508 63 l 508 310 b 418 440 508 385 475 422 b 496 564 469 457 496 493 l 496 681 b 283 849 496 786 415 849 z m 188 393 l 285 393 b 385 310 358 393 385 369 l 385 186 b 285 100 385 128 353 100 l 188 100 z m 188 747 l 274 747 b 374 665 344 747 374 718 l 374 560 b 276 483 374 503 347 483 l 188 483 z "},"г":{"ha":433,"x_min":0,"x_max":0,"o":"m 64 849 l 64 0 l 188 0 l 188 744 l 406 744 l 406 849 z "},"д":{"ha":751,"x_min":0,"x_max":0,"o":"m 267 849 b 214 324 267 661 244 453 b 53 104 168 128 100 104 l 28 104 l 28 -237 l 132 -237 l 132 0 l 619 0 l 619 -237 l 724 -237 l 724 104 l 588 104 l 588 849 z m 236 104 b 308 306 264 153 288 217 b 358 744 336 425 353 565 l 464 744 l 464 104 z "},"е":{"ha":521,"x_min":0,"x_max":0,"o":"m 335 381 b 471 636 429 458 471 532 b 263 860 471 806 363 860 b 57 654 147 860 57 782 l 57 194 b 261 -11 57 67 147 -11 b 468 194 376 -11 468 67 l 468 282 l 356 253 l 356 199 b 265 108 356 140 318 108 b 176 199 214 108 176 140 l 176 267 b 335 381 243 308 296 347 z m 176 649 b 261 746 176 710 208 746 b 351 628 310 746 351 715 b 272 458 351 560 329 511 b 176 386 250 438 217 413 z "},"ж":{"ha":792,"x_min":0,"x_max":0,"o":"m 335 849 l 335 532 l 161 849 l 35 849 l 229 501 l 18 0 l 146 0 l 335 460 l 335 0 l 458 0 l 458 457 l 646 0 l 774 0 l 563 501 l 757 849 l 631 849 l 458 533 l 458 849 z "},"з":{"ha":522,"x_min":0,"x_max":0,"o":"m 254 860 b 46 693 126 860 46 797 l 46 618 l 158 618 l 158 663 b 253 738 158 711 192 738 b 347 654 319 738 347 707 l 347 565 b 251 489 347 507 321 489 l 158 489 l 158 388 l 260 388 b 358 306 332 388 358 364 l 358 182 b 260 111 358 135 319 111 b 158 183 201 111 158 135 l 158 253 l 46 282 l 46 156 b 261 -11 46 50 136 -11 b 482 154 385 -11 482 50 l 482 310 b 393 440 482 385 450 422 b 471 563 444 457 471 493 l 471 679 b 254 860 471 785 396 860 z "},"и":{"ha":567,"x_min":0,"x_max":0,"o":"m 64 849 l 64 0 l 175 0 l 379 614 l 379 0 l 503 0 l 503 849 l 367 849 l 188 293 l 188 849 z "},"й":{"ha":567,"x_min":0,"x_max":0,"o":"m 107 1135 b 283 919 113 1025 163 919 b 458 1135 403 919 453 1024 l 368 1135 b 283 992 363 1029 331 992 b 199 1135 236 992 204 1029 z m 64 849 l 64 0 l 175 0 l 379 614 l 379 0 l 503 0 l 503 849 l 367 849 l 188 293 l 188 849 z "},"к":{"ha":521,"x_min":0,"x_max":0,"o":"m 360 849 l 188 533 l 188 849 l 64 849 l 64 0 l 188 0 l 188 457 l 375 0 l 503 0 l 292 501 l 486 849 z "},"л":{"ha":651,"x_min":0,"x_max":0,"o":"m 267 849 b 214 324 267 661 246 464 b 53 104 168 128 100 104 l 28 104 l 28 0 l 63 0 b 308 306 169 0 251 58 b 358 744 336 425 353 565 l 464 744 l 464 0 l 588 0 l 588 849 z "},"м":{"ha":747,"x_min":0,"x_max":0,"o":"m 64 849 l 64 0 l 178 0 l 178 557 l 315 0 l 433 0 l 569 551 l 569 0 l 683 0 l 683 849 l 554 849 l 375 176 l 203 849 z "},"н":{"ha":567,"x_min":0,"x_max":0,"o":"m 64 849 l 64 0 l 188 0 l 188 396 l 379 396 l 379 0 l 503 0 l 503 849 l 379 849 l 379 500 l 188 500 l 188 849 z "},"о":{"ha":536,"x_min":0,"x_max":0,"o":"m 479 654 b 268 860 479 782 385 860 b 57 654 150 860 57 782 l 57 194 b 268 -11 57 67 150 -11 b 479 194 385 -11 479 67 z m 176 647 b 268 738 176 706 215 738 b 358 647 321 738 358 706 l 358 201 b 268 111 358 143 321 111 b 176 201 215 111 176 143 z "},"п":{"ha":567,"x_min":0,"x_max":0,"o":"m 64 849 l 64 0 l 188 0 l 188 744 l 379 744 l 379 0 l 503 0 l 503 849 z "},"р":{"ha":556,"x_min":0,"x_max":0,"o":"m 64 849 l 64 -237 l 188 -237 l 188 38 b 324 -11 226 6 275 -11 b 499 194 417 -11 499 56 l 499 654 b 324 860 499 793 417 860 b 169 796 267 860 211 836 l 149 849 z m 289 738 b 375 628 349 738 375 697 l 375 221 b 289 111 375 151 349 111 b 188 160 250 111 218 128 l 188 689 b 289 738 218 721 250 738 z "},"с":{"ha":514,"x_min":0,"x_max":0,"o":"m 176 647 b 265 738 176 706 214 738 b 356 647 318 738 356 706 l 356 618 l 468 618 l 468 654 b 261 860 468 782 376 860 b 57 654 147 860 57 782 l 57 194 b 261 -11 57 67 147 -11 b 468 194 376 -11 468 67 l 468 282 l 356 253 l 356 201 b 265 111 356 143 318 111 b 176 201 214 111 176 143 z "},"т":{"ha":499,"x_min":0,"x_max":0,"o":"m 28 849 l 28 744 l 189 744 l 189 0 l 313 0 l 313 744 l 471 744 l 471 849 z "},"у":{"ha":539,"x_min":0,"x_max":0,"o":"m 26 849 l 196 54 l 124 -237 l 244 -237 l 513 849 l 394 849 l 256 294 l 146 849 z "},"ф":{"ha":772,"x_min":0,"x_max":0,"o":"m 325 1101 l 325 858 b 57 654 103 847 57 771 l 57 194 b 325 -10 57 76 103 1 l 325 -237 l 447 -237 l 447 -10 b 715 194 669 1 715 76 l 715 654 b 447 858 715 771 669 847 l 447 1132 z m 176 647 b 325 736 176 697 200 729 l 325 113 b 176 201 200 119 176 150 z m 594 647 l 594 201 b 447 113 594 150 572 119 l 447 736 b 594 647 572 729 594 697 z "},"х":{"ha":579,"x_min":0,"x_max":0,"o":"m 417 849 l 289 581 l 165 849 l 33 849 l 217 450 l 18 0 l 142 0 l 281 310 l 424 0 l 561 0 l 354 442 l 544 849 z "},"ц":{"ha":667,"x_min":0,"x_max":0,"o":"m 639 -237 l 639 104 l 503 104 l 503 849 l 379 849 l 379 104 l 188 104 l 188 849 l 64 849 l 64 0 l 535 0 l 535 -237 z "},"ч":{"ha":558,"x_min":0,"x_max":0,"o":"m 371 849 l 371 444 b 282 428 346 435 317 428 b 188 521 222 428 188 456 l 188 849 l 64 849 l 64 519 b 239 310 64 389 114 310 b 371 344 290 310 335 324 l 371 0 l 494 0 l 494 849 z "},"ш":{"ha":842,"x_min":0,"x_max":0,"o":"m 64 849 l 64 0 l 778 0 l 778 849 l 654 849 l 654 104 l 483 104 l 483 849 l 360 849 l 360 104 l 188 104 l 188 849 z "},"щ":{"ha":942,"x_min":0,"x_max":0,"o":"m 64 849 l 64 0 l 810 0 l 810 -237 l 914 -237 l 914 104 l 778 104 l 778 849 l 654 849 l 654 104 l 483 104 l 483 849 l 360 849 l 360 104 l 188 104 l 188 849 z "},"ъ":{"ha":674,"x_min":0,"x_max":0,"o":"m 28 849 l 28 744 l 192 744 l 192 0 l 407 0 b 615 210 535 0 615 68 l 615 300 b 407 508 615 442 535 508 l 315 508 l 315 849 z m 315 404 l 399 404 b 494 307 463 404 494 372 l 494 203 b 399 104 494 136 463 104 l 315 104 z "},"ы":{"ha":760,"x_min":0,"x_max":0,"o":"m 64 849 l 64 0 l 279 0 b 488 210 407 0 488 68 l 488 300 b 279 508 488 442 407 508 l 188 508 l 188 849 z m 188 404 l 271 404 b 367 307 335 404 367 372 l 367 203 b 271 104 367 136 335 104 l 188 104 z m 572 849 l 572 0 l 696 0 l 696 849 z "},"ь":{"ha":546,"x_min":0,"x_max":0,"o":"m 64 849 l 64 0 l 279 0 b 488 210 407 0 488 68 l 488 300 b 279 508 488 442 407 508 l 188 508 l 188 849 z m 188 404 l 271 404 b 367 307 335 404 367 372 l 367 203 b 271 104 367 136 335 104 l 188 104 z "},"э":{"ha":514,"x_min":0,"x_max":0,"o":"m 253 860 b 46 654 138 860 46 782 l 46 618 l 158 618 l 158 647 b 247 738 158 706 196 738 b 336 647 300 738 336 706 l 336 488 l 153 488 l 153 386 l 336 386 l 336 201 b 247 111 336 143 300 111 b 158 201 196 111 158 143 l 158 253 l 46 282 l 46 194 b 253 -11 46 67 138 -11 b 457 194 367 -11 457 67 l 457 654 b 253 860 457 782 367 860 z "},"ю":{"ha":760,"x_min":0,"x_max":0,"o":"m 64 849 l 64 0 l 188 0 l 188 375 l 281 375 l 281 194 b 492 -11 281 67 374 -11 b 703 194 608 -11 703 67 l 703 654 b 492 860 703 782 608 860 b 281 654 374 860 281 782 l 281 479 l 188 479 l 188 849 z m 400 647 b 492 738 400 706 439 738 b 582 647 544 738 582 706 l 582 201 b 492 111 582 143 544 111 b 400 201 439 111 400 143 z "},"я":{"ha":569,"x_min":0,"x_max":0,"o":"m 283 849 b 72 681 151 849 72 786 l 72 557 b 174 399 72 482 108 426 l 18 0 l 151 0 l 294 379 l 382 379 l 382 0 l 506 0 l 506 849 z m 194 665 b 293 747 194 719 226 747 l 382 747 l 382 469 l 293 469 b 194 556 226 469 194 499 z "},"ѐ":{"ha":521,"x_min":0,"x_max":0,"o":"m 335 381 b 471 636 429 458 471 532 b 263 860 471 806 363 860 b 57 654 147 860 57 782 l 57 194 b 261 -11 57 67 147 -11 b 468 194 376 -11 468 67 l 468 282 l 356 253 l 356 199 b 265 108 356 140 318 108 b 176 199 214 108 176 140 l 176 267 b 335 381 243 308 296 347 z m 176 649 b 261 746 176 710 208 746 b 351 628 310 746 351 715 b 272 458 351 560 329 511 b 176 386 250 438 217 413 z m 135 1135 l 282 915 l 392 915 l 269 1135 z "},"ё":{"ha":521,"x_min":0,"x_max":0,"o":"m 335 381 b 471 636 429 458 471 532 b 263 860 471 806 363 860 b 57 654 147 860 57 782 l 57 194 b 261 -11 57 67 147 -11 b 468 194 376 -11 468 67 l 468 282 l 356 253 l 356 199 b 265 108 356 140 318 108 b 176 199 214 108 176 140 l 176 267 b 335 381 243 308 296 347 z m 176 649 b 261 746 176 710 208 746 b 351 628 310 746 351 715 b 272 458 351 560 329 511 b 176 386 250 438 217 413 z m 376 1119 b 306 1044 329 1119 306 1086 b 376 967 306 1001 329 967 b 450 1044 426 967 450 1001 b 376 1119 450 1086 426 1119 z m 144 1119 b 74 1044 97 1119 74 1086 b 144 967 74 1001 97 967 b 218 1044 194 967 218 1001 b 144 1119 218 1086 194 1119 z "},"ђ":{"ha":560,"x_min":0,"x_max":0,"o":"m 64 1101 l 64 1026 l 8 1026 l 8 933 l 64 933 l 64 0 l 188 0 l 188 693 b 286 738 218 722 250 738 b 375 628 349 738 375 697 l 375 -36 b 290 -137 375 -99 344 -137 b 228 -114 271 -137 250 -131 l 194 -221 b 308 -254 225 -243 267 -254 b 499 -36 442 -254 499 -154 l 499 654 b 321 860 499 793 418 860 b 188 815 274 860 226 844 l 188 933 l 458 933 l 458 1026 l 188 1026 l 188 1132 z "},"ѓ":{"ha":433,"x_min":0,"x_max":0,"o":"m 247 1135 l 125 915 l 233 915 l 382 1135 z m 64 849 l 64 0 l 188 0 l 188 744 l 406 744 l 406 849 z "},"є":{"ha":514,"x_min":0,"x_max":0,"o":"m 176 647 b 265 738 176 706 214 738 b 356 647 318 738 356 706 l 356 618 l 468 618 l 468 654 b 261 860 468 782 376 860 b 57 654 147 860 57 782 l 57 194 b 261 -11 57 67 147 -11 b 468 194 376 -11 468 67 l 468 282 l 356 253 l 356 201 b 265 111 356 143 318 111 b 176 201 214 111 176 143 l 176 386 l 361 386 l 361 488 l 176 488 z "},"ѕ":{"ha":507,"x_min":0,"x_max":0,"o":"m 260 860 b 44 668 129 860 44 792 b 111 499 44 614 61 558 b 304 310 160 442 242 382 b 353 203 342 267 353 242 b 254 107 353 139 321 107 b 150 196 185 107 150 142 l 150 253 l 38 282 l 38 186 b 254 -11 38 63 119 -11 b 468 199 403 -11 468 75 b 408 369 468 254 454 313 b 215 558 360 431 267 501 b 164 661 174 603 164 632 b 258 743 164 711 194 743 b 351 657 319 743 351 713 l 351 618 l 464 618 l 464 674 b 260 860 464 776 401 860 z "},"і":{"ha":251,"x_min":0,"x_max":0,"o":"m 64 849 l 64 0 l 188 0 l 188 849 z m 126 1119 b 56 1044 79 1119 56 1086 b 126 967 56 1001 79 967 b 200 1044 176 967 200 1001 b 126 1119 200 1086 176 1119 z "},"ї":{"ha":365,"x_min":0,"x_max":0,"o":"m 297 1119 b 226 1044 250 1119 226 1086 b 297 967 226 1001 250 967 b 371 1044 347 967 371 1001 b 297 1119 371 1086 347 1119 z m 65 1119 b -6 1044 18 1119 -6 1086 b 65 967 -6 1001 18 967 b 139 1044 115 967 139 1001 b 65 1119 139 1086 115 1119 z m 122 849 l 122 0 l 246 0 l 246 849 z "},"ј":{"ha":269,"x_min":0,"x_max":0,"o":"m 86 849 l 86 -36 b -3 -137 86 -99 51 -137 b -65 -114 -22 -137 -43 -131 l -99 -221 b 15 -254 -68 -243 -26 -254 b 206 -36 149 -254 206 -154 l 206 849 z m 146 1119 b 75 1044 99 1119 75 1086 b 146 967 75 1001 99 967 b 219 1044 196 967 219 1001 b 146 1119 219 1086 196 1119 z "},"љ":{"ha":946,"x_min":0,"x_max":0,"o":"m 267 849 b 214 324 267 661 246 464 b 53 104 168 128 100 104 l 28 104 l 28 0 l 63 0 b 308 306 169 0 251 58 b 358 744 336 425 353 565 l 464 744 l 464 0 l 679 0 b 888 210 807 0 888 68 l 888 300 b 679 508 888 442 807 508 l 588 508 l 588 849 z m 588 404 l 671 404 b 767 307 735 404 767 372 l 767 203 b 671 104 767 136 735 104 l 588 104 z "},"њ":{"ha":861,"x_min":0,"x_max":0,"o":"m 64 849 l 64 0 l 188 0 l 188 396 l 379 396 l 379 0 l 594 0 b 803 210 722 0 803 68 l 803 300 b 594 500 803 442 722 500 l 503 500 l 503 849 l 379 849 l 379 500 l 188 500 l 188 849 z m 503 396 l 586 396 b 682 307 650 396 682 372 l 682 203 b 586 104 682 136 650 104 l 503 104 z "},"ћ":{"ha":560,"x_min":0,"x_max":0,"o":"m 64 1101 l 64 1026 l 8 1026 l 8 933 l 64 933 l 64 0 l 188 0 l 188 693 b 286 738 218 722 250 738 b 375 628 349 738 375 697 l 375 0 l 499 0 l 499 654 b 321 860 499 793 418 860 b 188 815 274 860 226 844 l 188 933 l 458 933 l 458 1026 l 188 1026 l 188 1132 z "},"ќ":{"ha":521,"x_min":0,"x_max":0,"o":"m 272 1135 l 150 915 l 258 915 l 407 1135 z m 360 849 l 188 533 l 188 849 l 64 849 l 64 0 l 188 0 l 188 457 l 375 0 l 503 0 l 292 501 l 486 849 z "},"ѝ":{"ha":567,"x_min":0,"x_max":0,"o":"m 144 1135 l 292 915 l 401 915 l 279 1135 z m 64 849 l 64 0 l 175 0 l 379 614 l 379 0 l 503 0 l 503 849 l 367 849 l 188 293 l 188 849 z "},"ў":{"ha":539,"x_min":0,"x_max":0,"o":"m 83 1135 b 260 919 89 1025 139 919 b 435 1135 379 919 429 1024 l 344 1135 b 260 992 339 1029 307 992 b 175 1135 213 992 181 1029 z m 26 849 l 196 54 l 124 -237 l 244 -237 l 513 849 l 394 849 l 256 294 l 146 849 z "},"џ":{"ha":567,"x_min":0,"x_max":0,"o":"m 503 0 l 503 849 l 379 849 l 379 104 l 188 104 l 188 849 l 64 849 l 64 0 l 232 0 l 232 -237 l 336 -237 l 336 0 z "},"Ґ":{"ha":424,"x_min":0,"x_max":0,"o":"m 64 1088 l 64 0 l 192 0 l 192 964 l 396 964 l 396 1325 l 285 1325 l 285 1088 z "},"ґ":{"ha":433,"x_min":0,"x_max":0,"o":"m 64 849 l 64 0 l 188 0 l 188 744 l 406 744 l 406 1086 l 301 1086 l 301 849 z "},"Ғ":{"ha":472,"x_min":0,"x_max":0,"o":"m 113 1088 l 113 626 l 8 626 l 8 533 l 113 533 l 113 0 l 240 0 l 240 533 l 458 533 l 458 626 l 240 626 l 240 964 l 444 964 l 444 1088 z "},"ғ":{"ha":482,"x_min":0,"x_max":0,"o":"m 113 849 l 113 471 l 8 471 l 8 378 l 113 378 l 113 0 l 236 0 l 236 378 l 458 378 l 458 471 l 236 471 l 236 744 l 454 744 l 454 849 z "},"Җ":{"ha":922,"x_min":0,"x_max":0,"o":"m 346 1088 l 346 683 l 165 1088 l 35 1088 l 238 643 l 18 0 l 151 0 l 346 588 l 346 0 l 474 0 l 474 588 l 668 0 l 783 0 l 783 -237 l 894 -237 l 894 124 l 758 124 l 582 643 l 785 1088 l 654 1088 l 474 683 l 474 1088 z "},"җ":{"ha":881,"x_min":0,"x_max":0,"o":"m 335 849 l 335 532 l 161 849 l 35 849 l 229 501 l 18 0 l 146 0 l 335 460 l 335 0 l 458 0 l 458 457 l 646 0 l 750 0 l 750 -237 l 854 -237 l 854 104 l 729 104 l 563 501 l 757 849 l 631 849 l 458 533 l 458 849 z "},"Қ":{"ha":638,"x_min":0,"x_max":0,"o":"m 372 1088 l 192 683 l 192 1088 l 64 1088 l 64 0 l 192 0 l 192 588 l 386 0 l 497 0 l 497 -237 l 608 -237 l 608 124 l 476 124 l 300 643 l 503 1088 z "},"қ":{"ha":611,"x_min":0,"x_max":0,"o":"m 360 849 l 188 533 l 188 849 l 64 849 l 64 0 l 188 0 l 188 457 l 375 0 l 479 0 l 479 -237 l 583 -237 l 583 104 l 458 104 l 292 501 l 486 849 z "},"Ң":{"ha":688,"x_min":0,"x_max":0,"o":"m 64 1088 l 64 0 l 192 0 l 192 492 l 385 492 l 385 0 l 549 0 l 549 -237 l 660 -237 l 660 124 l 513 124 l 513 1088 l 385 1088 l 385 614 l 192 614 l 192 1088 z "},"ң":{"ha":667,"x_min":0,"x_max":0,"o":"m 64 849 l 64 0 l 188 0 l 188 396 l 379 396 l 379 0 l 535 0 l 535 -237 l 639 -237 l 639 104 l 503 104 l 503 849 l 379 849 l 379 500 l 188 500 l 188 849 z "},"Ү":{"ha":572,"x_min":0,"x_max":0,"o":"m 18 1088 l 222 508 l 222 0 l 350 0 l 350 508 l 554 1088 l 431 1088 l 288 665 l 147 1088 z "},"ү":{"ha":525,"x_min":0,"x_max":0,"o":"m 26 849 l 200 0 l 200 -237 l 324 -237 l 324 0 l 500 849 l 382 849 l 261 219 l 146 849 z "},"Ұ":{"ha":572,"x_min":0,"x_max":0,"o":"m 61 507 l 61 414 l 222 414 l 222 0 l 350 0 l 350 414 l 511 414 l 511 507 l 350 507 l 350 508 l 554 1088 l 431 1088 l 288 665 l 147 1088 l 18 1088 l 222 508 l 222 507 z "},"ұ":{"ha":525,"x_min":0,"x_max":0,"o":"m 26 849 l 181 93 l 38 93 l 38 0 l 200 0 l 200 -237 l 324 -237 l 324 0 l 488 0 l 488 93 l 343 93 l 500 849 l 382 849 l 261 221 l 146 849 z "},"Ҳ":{"ha":665,"x_min":0,"x_max":0,"o":"m 408 1088 l 283 743 l 163 1088 l 33 1088 l 211 578 l 18 0 l 139 0 l 275 397 l 414 0 l 526 0 l 526 -237 l 638 -237 l 638 124 l 504 124 l 346 565 l 532 1088 z "},"ҳ":{"ha":657,"x_min":0,"x_max":0,"o":"m 417 849 l 289 581 l 165 849 l 33 849 l 217 450 l 18 0 l 142 0 l 281 310 l 424 0 l 525 0 l 525 -237 l 629 -237 l 629 104 l 513 104 l 354 442 l 544 849 z "},"Ҷ":{"ha":672,"x_min":0,"x_max":0,"o":"m 369 1088 l 369 550 b 281 536 346 542 317 536 b 181 632 208 536 181 569 l 181 1088 l 53 1088 l 53 631 b 236 413 53 494 106 413 b 369 446 289 413 335 426 l 369 0 l 533 0 l 533 -237 l 644 -237 l 644 124 l 497 124 l 497 1088 z "},"ҷ":{"ha":658,"x_min":0,"x_max":0,"o":"m 371 849 l 371 444 b 282 428 346 435 317 428 b 188 521 222 428 188 456 l 188 849 l 64 849 l 64 519 b 239 310 64 389 114 310 b 371 344 290 310 335 324 l 371 0 l 526 0 l 526 -237 l 631 -237 l 631 104 l 494 104 l 494 849 z "},"Һ":{"ha":558,"x_min":0,"x_max":0,"o":"m 181 0 l 181 536 b 269 551 203 546 232 551 b 369 456 342 551 369 518 l 369 0 l 497 0 l 497 457 b 314 675 497 593 444 675 b 181 642 260 675 215 661 l 181 1088 l 53 1088 l 53 0 z "},"һ":{"ha":558,"x_min":0,"x_max":0,"o":"m 188 0 l 188 403 b 276 421 213 414 242 421 b 371 328 336 421 371 393 l 371 0 l 494 0 l 494 329 b 319 539 494 460 444 539 b 188 503 267 539 222 524 l 188 849 l 64 849 l 64 0 z "},"Ӏ":{"ha":256,"x_min":0,"x_max":0,"o":"m 64 1088 l 64 0 l 192 0 l 192 1088 z "},"Ӄ":{"ha":538,"x_min":0,"x_max":0,"o":"m 372 1088 l 192 683 l 192 1088 l 64 1088 l 64 0 l 192 0 l 192 588 l 400 -42 b 311 -137 397 -100 364 -137 b 249 -114 292 -137 271 -131 l 215 -221 b 329 -254 246 -243 288 -254 b 519 0 463 -254 519 -154 l 300 643 l 503 1088 z "},"ӄ":{"ha":521,"x_min":0,"x_max":0,"o":"m 360 849 l 188 533 l 188 849 l 64 849 l 64 0 l 188 0 l 188 457 l 383 -18 b 294 -137 383 -99 349 -137 b 232 -114 275 -137 254 -131 l 199 -221 b 313 -254 229 -243 271 -254 b 503 0 446 -254 503 -154 l 292 501 l 486 849 z "},"Ӈ":{"ha":576,"x_min":0,"x_max":0,"o":"m 64 1088 l 64 0 l 192 0 l 192 492 l 385 492 l 385 -36 b 304 -137 385 -99 358 -137 b 242 -114 285 -137 264 -131 l 208 -221 b 322 -254 239 -243 281 -254 b 513 -36 456 -254 513 -154 l 513 1088 l 385 1088 l 385 614 l 192 614 l 192 1088 z "},"ӈ":{"ha":567,"x_min":0,"x_max":0,"o":"m 64 849 l 64 0 l 188 0 l 188 396 l 379 396 l 379 -36 b 294 -137 379 -99 349 -137 b 232 -114 275 -137 254 -131 l 199 -221 b 313 -254 229 -243 271 -254 b 503 -36 446 -254 503 -154 l 503 849 l 379 849 l 379 500 l 188 500 l 188 849 z "},"ӏ":{"ha":251,"x_min":0,"x_max":0,"o":"m 64 1101 l 64 0 l 188 0 l 188 1132 z "},"Ә":{"ha":561,"x_min":0,"x_max":0,"o":"m 283 1107 b 60 883 158 1107 60 1024 l 60 789 l 183 821 l 183 885 b 282 983 183 949 224 983 b 378 885 338 983 378 949 l 378 688 b 199 538 306 636 244 585 b 57 225 106 442 57 342 b 282 -19 57 43 174 -19 b 504 204 407 -19 504 64 l 504 883 b 283 1107 504 1024 407 1107 z m 286 103 b 183 236 232 103 183 138 b 267 454 183 315 213 392 b 378 556 292 483 329 518 l 378 208 b 286 103 378 142 343 103 z "},"ә":{"ha":521,"x_min":0,"x_max":0,"o":"m 57 207 b 265 -11 57 47 165 -11 b 471 194 381 -11 471 67 l 471 654 b 267 860 471 782 381 860 b 60 654 151 860 60 782 l 60 567 l 172 596 l 172 650 b 263 740 172 708 210 740 b 351 650 314 740 351 708 l 351 581 b 57 207 199 483 57 389 z m 351 200 b 267 103 351 139 319 103 b 176 218 218 103 176 135 b 351 463 176 335 258 400 z "},"Ө":{"ha":561,"x_min":0,"x_max":0,"o":"m 504 889 b 281 1107 504 1025 404 1107 b 57 889 156 1107 57 1025 l 57 199 b 281 -19 57 63 156 -19 b 504 199 404 -19 504 63 z m 281 104 b 183 200 224 104 183 138 l 183 499 l 378 499 l 378 200 b 281 104 378 138 338 104 z m 183 888 b 281 983 183 950 224 983 b 378 888 338 983 378 950 l 378 622 l 183 622 z "},"ө":{"ha":536,"x_min":0,"x_max":0,"o":"m 479 654 b 268 860 479 782 385 860 b 57 654 150 860 57 782 l 57 194 b 268 -11 57 67 150 -11 b 479 194 385 -11 479 67 z m 268 111 b 176 201 215 111 176 143 l 176 386 l 358 386 l 358 201 b 268 111 358 143 321 111 z m 176 647 b 268 738 176 706 215 738 b 358 647 321 738 358 706 l 358 479 l 176 479 z "},"Ӯ":{"ha":600,"x_min":0,"x_max":0,"o":"m 75 1321 l 75 1228 l 525 1228 l 525 1321 z m 28 1088 l 239 308 l 211 206 b 100 122 193 139 171 122 l 40 122 l 40 0 l 111 0 b 318 163 231 0 282 33 l 578 1088 l 454 1088 l 301 532 l 157 1088 z "},"ӯ":{"ha":539,"x_min":0,"x_max":0,"o":"m 35 1082 l 35 989 l 485 989 l 485 1082 z m 26 849 l 196 54 l 124 -237 l 244 -237 l 513 849 l 394 849 l 256 294 l 146 849 z "},"Ԓ":{"ha":675,"x_min":0,"x_max":0,"o":"m 276 1088 b 221 415 276 847 256 596 b 54 124 171 156 104 124 l 28 124 l 28 0 l 64 0 b 319 392 181 0 261 85 b 371 964 349 547 367 729 l 483 964 l 483 -36 b 404 -137 483 -100 454 -137 b 339 -114 382 -137 361 -131 l 306 -221 b 421 -254 336 -243 378 -254 b 611 -36 553 -254 611 -153 l 611 1088 z "},"ԓ":{"ha":651,"x_min":0,"x_max":0,"o":"m 267 849 b 214 324 267 661 246 464 b 53 104 168 128 100 104 l 28 104 l 28 0 l 63 0 b 308 306 169 0 251 58 b 358 744 336 425 353 565 l 464 744 l 464 -36 b 379 -137 464 -99 433 -137 b 317 -114 360 -137 339 -131 l 283 -221 b 397 -254 314 -243 356 -254 b 588 -36 531 -254 588 -154 l 588 849 z "},"Ṣ":{"ha":522,"x_min":0,"x_max":0,"o":"m 265 1107 b 44 872 132 1107 44 1017 b 126 629 44 803 64 728 b 306 388 178 549 264 450 b 360 225 346 325 360 275 b 256 97 360 144 325 97 b 153 194 190 97 153 143 l 153 221 l 35 251 l 35 193 b 264 -19 35 75 121 -19 b 482 242 413 -19 482 82 b 421 444 482 321 464 376 b 219 721 371 525 269 651 b 163 871 183 772 163 818 b 263 988 163 935 194 988 b 357 885 322 988 357 947 l 357 856 l 475 856 l 475 894 b 265 1107 475 1021 396 1107 z m 256 -79 b 185 -154 208 -79 185 -112 b 256 -232 185 -197 208 -232 b 329 -154 306 -232 329 -197 b 256 -79 329 -112 306 -79 z "},"ṣ":{"ha":507,"x_min":0,"x_max":0,"o":"m 260 860 b 44 668 129 860 44 792 b 111 499 44 614 61 558 b 304 310 160 442 242 382 b 353 203 342 267 353 242 b 254 107 353 139 321 107 b 150 196 185 107 150 142 l 150 253 l 38 282 l 38 186 b 254 -11 38 63 119 -11 b 468 199 403 -11 468 75 b 408 369 468 254 454 313 b 215 558 360 431 267 501 b 164 661 174 603 164 632 b 258 743 164 711 194 743 b 351 657 319 743 351 713 l 351 618 l 464 618 l 464 674 b 260 860 464 776 401 860 z m 247 -79 b 176 -154 200 -79 176 -112 b 247 -232 176 -197 200 -232 b 321 -154 297 -232 321 -197 b 247 -79 321 -112 297 -79 z "},"Ẁ":{"ha":801,"x_min":0,"x_max":0,"o":"m 31 1088 l 143 0 l 267 0 l 399 819 l 519 0 l 647 0 l 771 1088 l 647 1088 l 569 318 l 460 1088 l 338 1088 l 219 322 l 153 1088 z m 260 1374 l 407 1154 l 517 1154 l 394 1374 z "},"ẁ":{"ha":753,"x_min":0,"x_max":0,"o":"m 31 849 l 135 0 l 251 0 l 374 640 l 486 0 l 607 0 l 722 849 l 606 849 l 535 249 l 432 849 l 318 849 l 207 250 l 146 849 z m 235 1135 l 382 915 l 492 915 l 369 1135 z "},"Ẃ":{"ha":801,"x_min":0,"x_max":0,"o":"m 31 1088 l 143 0 l 267 0 l 399 819 l 519 0 l 647 0 l 771 1088 l 647 1088 l 569 318 l 460 1088 l 338 1088 l 219 322 l 153 1088 z m 407 1374 l 285 1154 l 393 1154 l 542 1374 z "},"ẃ":{"ha":753,"x_min":0,"x_max":0,"o":"m 31 849 l 135 0 l 251 0 l 374 640 l 486 0 l 607 0 l 722 849 l 606 849 l 535 249 l 432 849 l 318 849 l 207 250 l 146 849 z m 382 1135 l 260 915 l 368 915 l 517 1135 z "},"Ẅ":{"ha":801,"x_min":0,"x_max":0,"o":"m 31 1088 l 143 0 l 267 0 l 399 819 l 519 0 l 647 0 l 771 1088 l 647 1088 l 569 318 l 460 1088 l 338 1088 l 219 322 l 153 1088 z m 514 1358 b 443 1283 467 1358 443 1325 b 514 1206 443 1240 467 1206 b 588 1283 564 1206 588 1240 b 514 1358 588 1325 564 1358 z m 282 1358 b 211 1283 235 1358 211 1325 b 282 1206 211 1240 235 1206 b 356 1283 332 1206 356 1240 b 282 1358 356 1325 332 1358 z "},"ẅ":{"ha":753,"x_min":0,"x_max":0,"o":"m 31 849 l 135 0 l 251 0 l 374 640 l 486 0 l 607 0 l 722 849 l 606 849 l 535 249 l 432 849 l 318 849 l 207 250 l 146 849 z m 490 1119 b 419 1044 443 1119 419 1086 b 490 967 419 1001 443 967 b 564 1044 540 967 564 1001 b 490 1119 564 1086 540 1119 z m 258 1119 b 188 1044 211 1119 188 1086 b 258 967 188 1001 211 967 b 332 1044 308 967 332 1001 b 258 1119 332 1086 308 1119 z "},"Ạ":{"ha":549,"x_min":0,"x_max":0,"o":"m 208 1088 l 25 0 l 149 0 l 172 157 l 375 157 l 400 0 l 524 0 l 335 1088 z m 272 808 l 358 264 l 189 264 z m 272 -79 b 201 -154 225 -79 201 -112 b 272 -232 201 -197 225 -232 b 346 -154 322 -232 346 -197 b 272 -79 346 -112 322 -79 z "},"ạ":{"ha":533,"x_min":0,"x_max":0,"o":"m 142 681 b 254 746 165 721 207 746 b 356 626 322 746 356 697 l 356 600 b 213 504 303 567 253 533 b 38 208 89 411 38 333 b 217 -11 38 47 124 -11 b 372 47 275 -11 331 13 l 394 0 l 472 0 l 472 629 b 271 860 472 764 406 860 b 74 765 190 860 114 825 z m 253 106 b 161 226 197 106 161 140 b 274 425 161 297 186 357 b 356 481 297 443 322 460 l 356 154 b 253 106 325 124 292 106 z m 260 -79 b 189 -154 213 -79 189 -112 b 260 -232 189 -197 213 -232 b 333 -154 310 -232 333 -197 b 260 -79 333 -112 310 -79 z "},"Ả":{"ha":549,"x_min":0,"x_max":0,"o":"m 208 1088 l 25 0 l 149 0 l 172 157 l 375 157 l 400 0 l 524 0 l 335 1088 z m 272 808 l 358 264 l 189 264 z m 143 1268 l 217 1268 l 217 1290 b 269 1333 217 1319 229 1333 b 321 1297 307 1333 321 1321 b 301 1242 321 1275 313 1257 b 240 1139 278 1208 240 1183 b 243 1117 240 1132 240 1125 l 299 1117 b 363 1211 299 1154 332 1179 b 407 1308 386 1236 407 1265 b 278 1399 407 1364 365 1399 b 143 1290 188 1399 143 1363 z "},"ả":{"ha":533,"x_min":0,"x_max":0,"o":"m 142 681 b 254 746 165 721 207 746 b 356 626 322 746 356 697 l 356 600 b 213 504 303 567 253 533 b 38 208 89 411 38 333 b 217 -11 38 47 124 -11 b 372 47 275 -11 331 13 l 394 0 l 472 0 l 472 629 b 271 860 472 764 406 860 b 74 765 190 860 114 825 z m 253 106 b 161 226 197 106 161 140 b 274 425 161 297 186 357 b 356 481 297 443 322 460 l 356 154 b 253 106 325 124 292 106 z m 139 1029 l 213 1029 l 213 1051 b 265 1094 213 1081 225 1094 b 317 1058 303 1094 317 1082 b 297 1003 317 1036 308 1018 b 236 900 274 969 236 944 b 239 878 236 893 236 886 l 294 878 b 358 972 294 915 328 940 b 403 1069 382 997 403 1026 b 274 1160 403 1125 361 1160 b 139 1051 183 1160 139 1124 z "},"Ấ":{"ha":549,"x_min":0,"x_max":0,"o":"m 208 1088 l 25 0 l 149 0 l 172 157 l 375 157 l 400 0 l 524 0 l 335 1088 z m 272 808 l 358 264 l 189 264 z m 557 1513 l 435 1293 l 543 1293 l 692 1513 z m 207 1374 l 71 1154 l 174 1154 l 274 1314 l 374 1154 l 478 1154 l 340 1374 z "},"ấ":{"ha":533,"x_min":0,"x_max":0,"o":"m 142 681 b 254 746 165 721 207 746 b 356 626 322 746 356 697 l 356 600 b 213 504 303 567 253 533 b 38 208 89 411 38 333 b 217 -11 38 47 124 -11 b 372 47 275 -11 331 13 l 394 0 l 472 0 l 472 629 b 271 860 472 764 406 860 b 74 765 190 860 114 825 z m 253 106 b 161 226 197 106 161 140 b 274 425 161 297 186 357 b 356 481 297 443 322 460 l 356 154 b 253 106 325 124 292 106 z m 258 1374 l 136 1154 l 244 1154 l 393 1374 z m 199 1135 l 63 915 l 165 915 l 265 1075 l 365 915 l 469 915 l 332 1135 z "},"Ầ":{"ha":549,"x_min":0,"x_max":0,"o":"m 208 1088 l 25 0 l 149 0 l 172 157 l 375 157 l 400 0 l 524 0 l 335 1088 z m 272 808 l 358 264 l 189 264 z m -154 1513 l -7 1293 l 103 1293 l -19 1513 z m 207 1374 l 71 1154 l 174 1154 l 274 1314 l 374 1154 l 478 1154 l 340 1374 z "},"ầ":{"ha":533,"x_min":0,"x_max":0,"o":"m 142 681 b 254 746 165 721 207 746 b 356 626 322 746 356 697 l 356 600 b 213 504 303 567 253 533 b 38 208 89 411 38 333 b 217 -11 38 47 124 -11 b 372 47 275 -11 331 13 l 394 0 l 472 0 l 472 629 b 271 860 472 764 406 860 b 74 765 190 860 114 825 z m 253 106 b 161 226 197 106 161 140 b 274 425 161 297 186 357 b 356 481 297 443 322 460 l 356 154 b 253 106 325 124 292 106 z m 138 1374 l 285 1154 l 394 1154 l 272 1374 z m 199 1135 l 63 915 l 165 915 l 265 1075 l 365 915 l 469 915 l 332 1135 z "},"Ẩ":{"ha":549,"x_min":0,"x_max":0,"o":"m 208 1088 l 25 0 l 149 0 l 172 157 l 375 157 l 400 0 l 524 0 l 335 1088 z m 272 808 l 358 264 l 189 264 z m 207 1374 l 71 1154 l 174 1154 l 274 1314 l 374 1154 l 478 1154 l 340 1374 z m 413 1365 l 486 1365 l 486 1388 b 539 1431 486 1417 499 1431 b 590 1394 576 1431 590 1418 b 571 1339 590 1372 582 1354 b 510 1236 547 1306 510 1281 b 513 1214 510 1229 510 1222 l 568 1214 b 632 1308 568 1251 601 1276 b 676 1406 656 1333 676 1363 b 547 1496 676 1461 635 1496 b 413 1388 457 1496 413 1460 z "},"ẩ":{"ha":533,"x_min":0,"x_max":0,"o":"m 142 681 b 254 746 165 721 207 746 b 356 626 322 746 356 697 l 356 600 b 213 504 303 567 253 533 b 38 208 89 411 38 333 b 217 -11 38 47 124 -11 b 372 47 275 -11 331 13 l 394 0 l 472 0 l 472 629 b 271 860 472 764 406 860 b 74 765 190 860 114 825 z m 253 106 b 161 226 197 106 161 140 b 274 425 161 297 186 357 b 356 481 297 443 322 460 l 356 154 b 253 106 325 124 292 106 z m 199 1135 l 63 915 l 165 915 l 265 1075 l 365 915 l 469 915 l 332 1135 z m 304 1268 l 378 1268 l 378 1290 b 431 1333 378 1319 390 1333 b 482 1297 468 1333 482 1321 b 463 1242 482 1275 474 1257 b 401 1139 439 1208 401 1183 b 404 1117 401 1132 401 1125 l 460 1117 b 524 1211 460 1154 493 1179 b 568 1308 547 1236 568 1265 b 439 1399 568 1364 526 1399 b 304 1290 349 1399 304 1363 z "},"Ẫ":{"ha":549,"x_min":0,"x_max":0,"o":"m 208 1088 l 25 0 l 149 0 l 172 157 l 375 157 l 400 0 l 524 0 l 335 1088 z m 272 808 l 358 264 l 189 264 z m 88 1454 b 179 1521 113 1508 144 1521 b 372 1454 254 1521 289 1454 b 513 1561 433 1454 478 1490 l 463 1606 b 371 1538 438 1553 406 1538 b 182 1604 300 1538 271 1604 b 38 1499 114 1604 71 1567 z m 207 1374 l 71 1154 l 174 1154 l 274 1314 l 374 1154 l 478 1154 l 340 1374 z "},"ẫ":{"ha":533,"x_min":0,"x_max":0,"o":"m 142 681 b 254 746 165 721 207 746 b 356 626 322 746 356 697 l 356 600 b 213 504 303 567 253 533 b 38 208 89 411 38 333 b 217 -11 38 47 124 -11 b 372 47 275 -11 331 13 l 394 0 l 472 0 l 472 629 b 271 860 472 764 406 860 b 74 765 190 860 114 825 z m 253 106 b 161 226 197 106 161 140 b 274 425 161 297 186 357 b 356 481 297 443 322 460 l 356 154 b 253 106 325 124 292 106 z m 79 1204 b 171 1271 104 1258 136 1271 b 364 1204 246 1271 281 1204 b 504 1311 425 1204 469 1240 l 454 1356 b 363 1288 429 1303 397 1288 b 174 1354 292 1288 263 1354 b 29 1249 106 1354 63 1317 z m 199 1135 l 63 915 l 165 915 l 265 1075 l 365 915 l 469 915 l 332 1135 z "},"Ậ":{"ha":549,"x_min":0,"x_max":0,"o":"m 208 1088 l 25 0 l 149 0 l 172 157 l 375 157 l 400 0 l 524 0 l 335 1088 z m 272 808 l 358 264 l 189 264 z m 271 -79 b 200 -154 224 -79 200 -112 b 271 -232 200 -197 224 -232 b 344 -154 321 -232 344 -197 b 271 -79 344 -112 321 -79 z m 207 1374 l 71 1154 l 174 1154 l 274 1314 l 374 1154 l 478 1154 l 340 1374 z "},"ậ":{"ha":533,"x_min":0,"x_max":0,"o":"m 142 681 b 254 746 165 721 207 746 b 356 626 322 746 356 697 l 356 600 b 213 504 303 567 253 533 b 38 208 89 411 38 333 b 217 -11 38 47 124 -11 b 372 47 275 -11 331 13 l 394 0 l 472 0 l 472 629 b 271 860 472 764 406 860 b 74 765 190 860 114 825 z m 253 106 b 161 226 197 106 161 140 b 274 425 161 297 186 357 b 356 481 297 443 322 460 l 356 154 b 253 106 325 124 292 106 z m 264 -79 b 193 -154 217 -79 193 -112 b 264 -232 193 -197 217 -232 b 338 -154 314 -232 338 -197 b 264 -79 338 -112 314 -79 z m 199 1135 l 63 915 l 165 915 l 265 1075 l 365 915 l 469 915 l 332 1135 z "},"Ắ":{"ha":549,"x_min":0,"x_max":0,"o":"m 208 1088 l 25 0 l 149 0 l 172 157 l 375 157 l 400 0 l 524 0 l 335 1088 z m 272 808 l 358 264 l 189 264 z m 281 1651 l 158 1432 l 267 1432 l 415 1651 z m 97 1374 b 274 1158 103 1264 153 1158 b 449 1374 393 1158 443 1263 l 358 1374 b 274 1231 353 1268 321 1231 b 189 1374 226 1231 194 1268 z "},"ắ":{"ha":533,"x_min":0,"x_max":0,"o":"m 142 681 b 254 746 165 721 207 746 b 356 626 322 746 356 697 l 356 600 b 213 504 303 567 253 533 b 38 208 89 411 38 333 b 217 -11 38 47 124 -11 b 372 47 275 -11 331 13 l 394 0 l 472 0 l 472 629 b 271 860 472 764 406 860 b 74 765 190 860 114 825 z m 253 106 b 161 226 197 106 161 140 b 274 425 161 297 186 357 b 356 481 297 443 322 460 l 356 154 b 253 106 325 124 292 106 z m 272 1374 l 150 1154 l 258 1154 l 407 1374 z m 90 1135 b 267 919 96 1025 146 919 b 442 1135 386 919 436 1024 l 351 1135 b 267 992 346 1029 314 992 b 182 1135 219 992 188 1029 z "},"Ằ":{"ha":549,"x_min":0,"x_max":0,"o":"m 208 1088 l 25 0 l 149 0 l 172 157 l 375 157 l 400 0 l 524 0 l 335 1088 z m 272 808 l 358 264 l 189 264 z m 97 1374 b 274 1158 103 1264 153 1158 b 449 1374 393 1158 443 1263 l 358 1374 b 274 1231 353 1268 321 1231 b 189 1374 226 1231 194 1268 z m 135 1651 l 282 1432 l 392 1432 l 269 1651 z "},"ằ":{"ha":533,"x_min":0,"x_max":0,"o":"m 142 681 b 254 746 165 721 207 746 b 356 626 322 746 356 697 l 356 600 b 213 504 303 567 253 533 b 38 208 89 411 38 333 b 217 -11 38 47 124 -11 b 372 47 275 -11 331 13 l 394 0 l 472 0 l 472 629 b 271 860 472 764 406 860 b 74 765 190 860 114 825 z m 253 106 b 161 226 197 106 161 140 b 274 425 161 297 186 357 b 356 481 297 443 322 460 l 356 154 b 253 106 325 124 292 106 z m 90 1135 b 267 919 96 1025 146 919 b 442 1135 386 919 436 1024 l 351 1135 b 267 992 346 1029 314 992 b 182 1135 219 992 188 1029 z m 125 1374 l 272 1154 l 382 1154 l 260 1374 z "},"Ẳ":{"ha":549,"x_min":0,"x_max":0,"o":"m 208 1088 l 25 0 l 149 0 l 172 157 l 375 157 l 400 0 l 524 0 l 335 1088 z m 272 808 l 358 264 l 189 264 z m 97 1374 b 274 1158 103 1264 153 1158 b 449 1374 393 1158 443 1263 l 358 1374 b 274 1231 353 1268 321 1231 b 189 1374 226 1231 194 1268 z m 143 1546 l 217 1546 l 217 1568 b 269 1611 217 1597 229 1611 b 321 1575 307 1611 321 1599 b 301 1519 321 1553 313 1535 b 240 1417 278 1486 240 1461 b 243 1394 240 1410 240 1403 l 299 1394 b 363 1489 299 1432 332 1457 b 407 1586 386 1514 407 1543 b 278 1676 407 1642 365 1676 b 143 1568 188 1676 143 1640 z "},"ẳ":{"ha":533,"x_min":0,"x_max":0,"o":"m 142 681 b 254 746 165 721 207 746 b 356 626 322 746 356 697 l 356 600 b 213 504 303 567 253 533 b 38 208 89 411 38 333 b 217 -11 38 47 124 -11 b 372 47 275 -11 331 13 l 394 0 l 472 0 l 472 629 b 271 860 472 764 406 860 b 74 765 190 860 114 825 z m 253 106 b 161 226 197 106 161 140 b 274 425 161 297 186 357 b 356 481 297 443 322 460 l 356 154 b 253 106 325 124 292 106 z m 90 1135 b 267 919 96 1025 146 919 b 442 1135 386 919 436 1024 l 351 1135 b 267 992 346 1029 314 992 b 182 1135 219 992 188 1029 z m 136 1268 l 210 1268 l 210 1290 b 263 1333 210 1319 222 1333 b 314 1297 300 1333 314 1321 b 294 1242 314 1275 306 1257 b 233 1139 271 1208 233 1183 b 236 1117 233 1132 233 1125 l 292 1117 b 356 1211 292 1154 325 1179 b 400 1308 379 1236 400 1265 b 271 1399 400 1364 358 1399 b 136 1290 181 1399 136 1363 z "},"Ẵ":{"ha":549,"x_min":0,"x_max":0,"o":"m 208 1088 l 25 0 l 149 0 l 172 157 l 375 157 l 400 0 l 524 0 l 335 1088 z m 272 808 l 358 264 l 189 264 z m 97 1374 b 274 1158 103 1264 153 1158 b 449 1374 393 1158 443 1263 l 358 1374 b 274 1231 353 1268 321 1231 b 189 1374 226 1231 194 1268 z m 88 1482 b 179 1549 113 1536 144 1549 b 372 1482 254 1549 289 1482 b 513 1589 433 1482 478 1518 l 463 1633 b 371 1565 438 1581 406 1565 b 182 1632 300 1565 271 1632 b 38 1526 114 1632 71 1594 z "},"ẵ":{"ha":533,"x_min":0,"x_max":0,"o":"m 142 681 b 254 746 165 721 207 746 b 356 626 322 746 356 697 l 356 600 b 213 504 303 567 253 533 b 38 208 89 411 38 333 b 217 -11 38 47 124 -11 b 372 47 275 -11 331 13 l 394 0 l 472 0 l 472 629 b 271 860 472 764 406 860 b 74 765 190 860 114 825 z m 253 106 b 161 226 197 106 161 140 b 274 425 161 297 186 357 b 356 481 297 443 322 460 l 356 154 b 253 106 325 124 292 106 z m 90 1135 b 267 919 96 1025 146 919 b 442 1135 386 919 436 1024 l 351 1135 b 267 992 346 1029 314 992 b 182 1135 219 992 188 1029 z m 79 1204 b 171 1271 104 1258 136 1271 b 364 1204 246 1271 281 1204 b 504 1311 425 1204 469 1240 l 454 1356 b 363 1288 429 1303 397 1288 b 174 1354 292 1288 263 1354 b 29 1249 106 1354 63 1317 z "},"Ặ":{"ha":549,"x_min":0,"x_max":0,"o":"m 208 1088 l 25 0 l 149 0 l 172 157 l 375 157 l 400 0 l 524 0 l 335 1088 z m 272 808 l 358 264 l 189 264 z m 97 1374 b 274 1158 103 1264 153 1158 b 449 1374 393 1158 443 1263 l 358 1374 b 274 1231 353 1268 321 1231 b 189 1374 226 1231 194 1268 z m 272 -79 b 201 -154 225 -79 201 -112 b 272 -232 201 -197 225 -232 b 346 -154 322 -232 346 -197 b 272 -79 346 -112 322 -79 z "},"ặ":{"ha":533,"x_min":0,"x_max":0,"o":"m 142 681 b 254 746 165 721 207 746 b 356 626 322 746 356 697 l 356 600 b 213 504 303 567 253 533 b 38 208 89 411 38 333 b 217 -11 38 47 124 -11 b 372 47 275 -11 331 13 l 394 0 l 472 0 l 472 629 b 271 860 472 764 406 860 b 74 765 190 860 114 825 z m 253 106 b 161 226 197 106 161 140 b 274 425 161 297 186 357 b 356 481 297 443 322 460 l 356 154 b 253 106 325 124 292 106 z m 90 1135 b 267 919 96 1025 146 919 b 442 1135 386 919 436 1024 l 351 1135 b 267 992 346 1029 314 992 b 182 1135 219 992 188 1029 z m 264 -79 b 193 -154 217 -79 193 -112 b 264 -232 193 -197 217 -232 b 338 -154 314 -232 338 -197 b 264 -79 338 -112 314 -79 z "},"Ẹ":{"ha":464,"x_min":0,"x_max":0,"o":"m 64 1088 l 64 0 l 424 0 l 424 124 l 192 124 l 192 499 l 356 499 l 356 622 l 192 622 l 192 964 l 424 964 l 424 1088 z m 231 -79 b 160 -154 183 -79 160 -112 b 231 -232 160 -197 183 -232 b 304 -154 281 -232 304 -197 b 231 -79 304 -112 281 -79 z "},"ẹ":{"ha":521,"x_min":0,"x_max":0,"o":"m 335 381 b 471 636 429 458 471 532 b 263 860 471 806 363 860 b 57 654 147 860 57 782 l 57 194 b 261 -11 57 67 147 -11 b 468 194 376 -11 468 67 l 468 282 l 356 253 l 356 199 b 265 108 356 140 318 108 b 176 199 214 108 176 140 l 176 267 b 335 381 243 308 296 347 z m 176 649 b 261 746 176 710 208 746 b 351 628 310 746 351 715 b 272 458 351 560 329 511 b 176 386 250 438 217 413 z m 260 -79 b 189 -154 213 -79 189 -112 b 260 -232 189 -197 213 -232 b 333 -154 310 -232 333 -197 b 260 -79 333 -112 310 -79 z "},"Ẻ":{"ha":464,"x_min":0,"x_max":0,"o":"m 64 1088 l 64 0 l 424 0 l 424 124 l 192 124 l 192 499 l 356 499 l 356 622 l 192 622 l 192 964 l 424 964 l 424 1088 z m 111 1268 l 185 1268 l 185 1290 b 238 1333 185 1319 197 1333 b 289 1297 275 1333 289 1321 b 269 1242 289 1275 281 1257 b 208 1139 246 1208 208 1183 b 211 1117 208 1132 208 1125 l 267 1117 b 331 1211 267 1154 300 1179 b 375 1308 354 1236 375 1265 b 246 1399 375 1364 333 1399 b 111 1290 156 1399 111 1363 z "},"ẻ":{"ha":521,"x_min":0,"x_max":0,"o":"m 335 381 b 471 636 429 458 471 532 b 263 860 471 806 363 860 b 57 654 147 860 57 782 l 57 194 b 261 -11 57 67 147 -11 b 468 194 376 -11 468 67 l 468 282 l 356 253 l 356 199 b 265 108 356 140 318 108 b 176 199 214 108 176 140 l 176 267 b 335 381 243 308 296 347 z m 176 649 b 261 746 176 710 208 746 b 351 628 310 746 351 715 b 272 458 351 560 329 511 b 176 386 250 438 217 413 z m 131 1029 l 204 1029 l 204 1051 b 257 1094 204 1081 217 1094 b 308 1058 294 1094 308 1082 b 289 1003 308 1036 300 1018 b 228 900 265 969 228 944 b 231 878 228 893 228 886 l 286 878 b 350 972 286 915 319 940 b 394 1069 374 997 394 1026 b 265 1160 394 1125 353 1160 b 131 1051 175 1160 131 1124 z "},"Ế":{"ha":464,"x_min":0,"x_max":0,"o":"m 64 1088 l 64 0 l 424 0 l 424 124 l 192 124 l 192 499 l 356 499 l 356 622 l 192 622 l 192 964 l 424 964 l 424 1088 z m 540 1513 l 418 1293 l 526 1293 l 675 1513 z m 179 1374 l 43 1154 l 146 1154 l 246 1314 l 346 1154 l 450 1154 l 313 1374 z "},"ế":{"ha":521,"x_min":0,"x_max":0,"o":"m 335 381 b 471 636 429 458 471 532 b 263 860 471 806 363 860 b 57 654 147 860 57 782 l 57 194 b 261 -11 57 67 147 -11 b 468 194 376 -11 468 67 l 468 282 l 356 253 l 356 199 b 265 108 356 140 318 108 b 176 199 214 108 176 140 l 176 267 b 335 381 243 308 296 347 z m 176 649 b 261 746 176 710 208 746 b 351 628 310 746 351 715 b 272 458 351 560 329 511 b 176 386 250 438 217 413 z m 254 1374 l 132 1154 l 240 1154 l 389 1374 z m 193 1135 l 57 915 l 160 915 l 260 1075 l 360 915 l 464 915 l 326 1135 z "},"Ề":{"ha":464,"x_min":0,"x_max":0,"o":"m 64 1088 l 64 0 l 424 0 l 424 124 l 192 124 l 192 499 l 356 499 l 356 622 l 192 622 l 192 964 l 424 964 l 424 1088 z m -182 1513 l -35 1293 l 75 1293 l -47 1513 z m 179 1374 l 43 1154 l 146 1154 l 246 1314 l 346 1154 l 450 1154 l 313 1374 z "},"ề":{"ha":521,"x_min":0,"x_max":0,"o":"m 335 381 b 471 636 429 458 471 532 b 263 860 471 806 363 860 b 57 654 147 860 57 782 l 57 194 b 261 -11 57 67 147 -11 b 468 194 376 -11 468 67 l 468 282 l 356 253 l 356 199 b 265 108 356 140 318 108 b 176 199 214 108 176 140 l 176 267 b 335 381 243 308 296 347 z m 176 649 b 261 746 176 710 208 746 b 351 628 310 746 351 715 b 272 458 351 560 329 511 b 176 386 250 438 217 413 z m 132 1374 l 279 1154 l 389 1154 l 267 1374 z m 193 1135 l 57 915 l 160 915 l 260 1075 l 360 915 l 464 915 l 326 1135 z "},"Ể":{"ha":464,"x_min":0,"x_max":0,"o":"m 64 1088 l 64 0 l 424 0 l 424 124 l 192 124 l 192 499 l 356 499 l 356 622 l 192 622 l 192 964 l 424 964 l 424 1088 z m 179 1374 l 43 1154 l 146 1154 l 246 1314 l 346 1154 l 450 1154 l 313 1374 z m 383 1365 l 457 1365 l 457 1388 b 510 1431 457 1417 469 1431 b 561 1394 547 1431 561 1418 b 542 1339 561 1372 553 1354 b 481 1236 518 1306 481 1281 b 483 1214 481 1229 481 1222 l 539 1214 b 603 1308 539 1251 572 1276 b 647 1406 626 1333 647 1363 b 518 1496 647 1461 606 1496 b 383 1388 428 1496 383 1460 z "},"ể":{"ha":521,"x_min":0,"x_max":0,"o":"m 335 381 b 471 636 429 458 471 532 b 263 860 471 806 363 860 b 57 654 147 860 57 782 l 57 194 b 261 -11 57 67 147 -11 b 468 194 376 -11 468 67 l 468 282 l 356 253 l 356 199 b 265 108 356 140 318 108 b 176 199 214 108 176 140 l 176 267 b 335 381 243 308 296 347 z m 176 649 b 261 746 176 710 208 746 b 351 628 310 746 351 715 b 272 458 351 560 329 511 b 176 386 250 438 217 413 z m 193 1135 l 57 915 l 160 915 l 260 1075 l 360 915 l 464 915 l 326 1135 z m 300 1268 l 374 1268 l 374 1290 b 426 1333 374 1319 386 1333 b 478 1297 464 1333 478 1321 b 458 1242 478 1275 469 1257 b 397 1139 435 1208 397 1183 b 400 1117 397 1132 397 1125 l 456 1117 b 519 1211 456 1154 489 1179 b 564 1308 543 1236 564 1265 b 435 1399 564 1364 522 1399 b 300 1290 344 1399 300 1363 z "},"Ễ":{"ha":464,"x_min":0,"x_max":0,"o":"m 64 1088 l 64 0 l 424 0 l 424 124 l 192 124 l 192 499 l 356 499 l 356 622 l 192 622 l 192 964 l 424 964 l 424 1088 z m 44 1482 b 136 1549 69 1536 101 1549 b 329 1482 211 1549 246 1482 b 469 1589 390 1482 435 1518 l 419 1633 b 328 1565 394 1581 363 1565 b 139 1632 257 1565 228 1632 b -6 1526 71 1632 28 1594 z m 179 1374 l 43 1154 l 146 1154 l 246 1314 l 346 1154 l 450 1154 l 313 1374 z "},"ễ":{"ha":521,"x_min":0,"x_max":0,"o":"m 335 381 b 471 636 429 458 471 532 b 263 860 471 806 363 860 b 57 654 147 860 57 782 l 57 194 b 261 -11 57 67 147 -11 b 468 194 376 -11 468 67 l 468 282 l 356 253 l 356 199 b 265 108 356 140 318 108 b 176 199 214 108 176 140 l 176 267 b 335 381 243 308 296 347 z m 176 649 b 261 746 176 710 208 746 b 351 628 310 746 351 715 b 272 458 351 560 329 511 b 176 386 250 438 217 413 z m 74 1204 b 165 1271 99 1258 131 1271 b 358 1204 240 1271 275 1204 b 499 1311 419 1204 464 1240 l 449 1356 b 357 1288 424 1303 392 1288 b 168 1354 286 1288 257 1354 b 24 1249 100 1354 57 1317 z m 193 1135 l 57 915 l 160 915 l 260 1075 l 360 915 l 464 915 l 326 1135 z "},"Ệ":{"ha":464,"x_min":0,"x_max":0,"o":"m 64 1088 l 64 0 l 424 0 l 424 124 l 192 124 l 192 499 l 356 499 l 356 622 l 192 622 l 192 964 l 424 964 l 424 1088 z m 226 -79 b 156 -154 179 -79 156 -112 b 226 -232 156 -197 179 -232 b 300 -154 276 -232 300 -197 b 226 -79 300 -112 276 -79 z m 179 1374 l 43 1154 l 146 1154 l 246 1314 l 346 1154 l 450 1154 l 313 1374 z "},"ệ":{"ha":521,"x_min":0,"x_max":0,"o":"m 335 381 b 471 636 429 458 471 532 b 263 860 471 806 363 860 b 57 654 147 860 57 782 l 57 194 b 261 -11 57 67 147 -11 b 468 194 376 -11 468 67 l 468 282 l 356 253 l 356 199 b 265 108 356 140 318 108 b 176 199 214 108 176 140 l 176 267 b 335 381 243 308 296 347 z m 176 649 b 261 746 176 710 208 746 b 351 628 310 746 351 715 b 272 458 351 560 329 511 b 176 386 250 438 217 413 z m 240 -79 b 169 -154 193 -79 169 -112 b 240 -232 169 -197 193 -232 b 314 -154 290 -232 314 -197 b 240 -79 314 -112 290 -79 z m 193 1135 l 57 915 l 160 915 l 260 1075 l 360 915 l 464 915 l 326 1135 z "},"Ỉ":{"ha":256,"x_min":0,"x_max":0,"o":"m 64 1088 l 64 0 l 192 0 l 192 1088 z m -3 1268 l 71 1268 l 71 1290 b 124 1333 71 1319 83 1333 b 175 1297 161 1333 175 1321 b 156 1242 175 1275 167 1257 b 94 1139 132 1208 94 1183 b 97 1117 94 1132 94 1125 l 153 1117 b 217 1211 153 1154 186 1179 b 261 1308 240 1236 261 1265 b 132 1399 261 1364 219 1399 b -3 1290 42 1399 -3 1363 z "},"ỉ":{"ha":264,"x_min":0,"x_max":0,"o":"m 69 849 l 69 0 l 193 0 l 193 849 z m 1 1029 l 75 1029 l 75 1051 b 128 1094 75 1081 88 1094 b 179 1058 165 1094 179 1082 b 160 1003 179 1036 171 1018 b 99 900 136 969 99 944 b 101 878 99 893 99 886 l 157 878 b 221 972 157 915 190 940 b 265 1069 244 997 265 1026 b 136 1160 265 1125 224 1160 b 1 1051 46 1160 1 1124 z "},"Ị":{"ha":256,"x_min":0,"x_max":0,"o":"m 64 1088 l 64 0 l 192 0 l 192 1088 z m 126 -79 b 56 -154 79 -79 56 -112 b 126 -232 56 -197 79 -232 b 200 -154 176 -232 200 -197 b 126 -79 200 -112 176 -79 z "},"ị":{"ha":251,"x_min":0,"x_max":0,"o":"m 64 849 l 64 0 l 188 0 l 188 849 z m 125 -79 b 54 -154 78 -79 54 -112 b 125 -232 54 -197 78 -232 b 199 -154 175 -232 199 -197 b 125 -79 199 -112 175 -79 z m 125 1119 b 54 1044 78 1119 54 1086 b 125 967 54 1001 78 967 b 199 1044 175 967 199 1001 b 125 1119 199 1086 175 1119 z "},"Ọ":{"ha":561,"x_min":0,"x_max":0,"o":"m 504 889 b 281 1107 504 1025 404 1107 b 57 889 156 1107 57 1025 l 57 199 b 281 -19 57 63 156 -19 b 504 199 404 -19 504 63 z m 183 888 b 281 983 183 950 224 983 b 378 888 338 983 378 950 l 378 200 b 281 104 378 138 338 104 b 183 200 224 104 183 138 z m 279 -79 b 208 -154 232 -79 208 -112 b 279 -232 208 -197 232 -232 b 353 -154 329 -232 353 -197 b 279 -79 353 -112 329 -79 z "},"ọ":{"ha":536,"x_min":0,"x_max":0,"o":"m 479 654 b 268 860 479 782 385 860 b 57 654 150 860 57 782 l 57 194 b 268 -11 57 67 150 -11 b 479 194 385 -11 479 67 z m 176 647 b 268 738 176 706 215 738 b 358 647 321 738 358 706 l 358 201 b 268 111 358 143 321 111 b 176 201 215 111 176 143 z m 268 -79 b 197 -154 221 -79 197 -112 b 268 -232 197 -197 221 -232 b 342 -154 318 -232 342 -197 b 268 -79 342 -112 318 -79 z "},"Ỏ":{"ha":561,"x_min":0,"x_max":0,"o":"m 504 889 b 281 1107 504 1025 404 1107 b 57 889 156 1107 57 1025 l 57 199 b 281 -19 57 63 156 -19 b 504 199 404 -19 504 63 z m 183 888 b 281 983 183 950 224 983 b 378 888 338 983 378 950 l 378 200 b 281 104 378 138 338 104 b 183 200 224 104 183 138 z m 150 1268 l 224 1268 l 224 1290 b 276 1333 224 1319 236 1333 b 328 1297 314 1333 328 1321 b 308 1242 328 1275 319 1257 b 247 1139 285 1208 247 1183 b 250 1117 247 1132 247 1125 l 306 1117 b 369 1211 306 1154 339 1179 b 414 1308 393 1236 414 1265 b 285 1399 414 1364 372 1399 b 150 1290 194 1399 150 1363 z "},"ỏ":{"ha":536,"x_min":0,"x_max":0,"o":"m 479 654 b 268 860 479 782 385 860 b 57 654 150 860 57 782 l 57 194 b 268 -11 57 67 150 -11 b 479 194 385 -11 479 67 z m 176 647 b 268 738 176 706 215 738 b 358 647 321 738 358 706 l 358 201 b 268 111 358 143 321 111 b 176 201 215 111 176 143 z m 139 1029 l 213 1029 l 213 1051 b 265 1094 213 1081 225 1094 b 317 1058 303 1094 317 1082 b 297 1003 317 1036 308 1018 b 236 900 274 969 236 944 b 239 878 236 893 236 886 l 294 878 b 358 972 294 915 328 940 b 403 1069 382 997 403 1026 b 274 1160 403 1125 361 1160 b 139 1051 183 1160 139 1124 z "},"Ố":{"ha":561,"x_min":0,"x_max":0,"o":"m 504 889 b 281 1107 504 1025 404 1107 b 57 889 156 1107 57 1025 l 57 199 b 281 -19 57 63 156 -19 b 504 199 404 -19 504 63 z m 183 888 b 281 983 183 950 224 983 b 378 888 338 983 378 950 l 378 200 b 281 104 378 138 338 104 b 183 200 224 104 183 138 z m 575 1513 l 453 1293 l 561 1293 l 710 1513 z m 213 1374 l 76 1154 l 179 1154 l 279 1314 l 379 1154 l 483 1154 l 346 1374 z "},"ố":{"ha":536,"x_min":0,"x_max":0,"o":"m 479 654 b 268 860 479 782 385 860 b 57 654 150 860 57 782 l 57 194 b 268 -11 57 67 150 -11 b 479 194 385 -11 479 67 z m 176 647 b 268 738 176 706 215 738 b 358 647 321 738 358 706 l 358 201 b 268 111 358 143 321 111 b 176 201 215 111 176 143 z m 261 1374 l 139 1154 l 247 1154 l 396 1374 z m 200 1135 l 64 915 l 167 915 l 267 1075 l 367 915 l 471 915 l 333 1135 z "},"Ồ":{"ha":561,"x_min":0,"x_max":0,"o":"m 504 889 b 281 1107 504 1025 404 1107 b 57 889 156 1107 57 1025 l 57 199 b 281 -19 57 63 156 -19 b 504 199 404 -19 504 63 z m 183 888 b 281 983 183 950 224 983 b 378 888 338 983 378 950 l 378 200 b 281 104 378 138 338 104 b 183 200 224 104 183 138 z m -149 1513 l -1 1293 l 108 1293 l -14 1513 z m 213 1374 l 76 1154 l 179 1154 l 279 1314 l 379 1154 l 483 1154 l 346 1374 z "},"ồ":{"ha":536,"x_min":0,"x_max":0,"o":"m 479 654 b 268 860 479 782 385 860 b 57 654 150 860 57 782 l 57 194 b 268 -11 57 67 150 -11 b 479 194 385 -11 479 67 z m 176 647 b 268 738 176 706 215 738 b 358 647 321 738 358 706 l 358 201 b 268 111 358 143 321 111 b 176 201 215 111 176 143 z m 139 1374 l 286 1154 l 396 1154 l 274 1374 z m 200 1135 l 64 915 l 167 915 l 267 1075 l 367 915 l 471 915 l 333 1135 z "},"Ổ":{"ha":561,"x_min":0,"x_max":0,"o":"m 504 889 b 281 1107 504 1025 404 1107 b 57 889 156 1107 57 1025 l 57 199 b 281 -19 57 63 156 -19 b 504 199 404 -19 504 63 z m 183 888 b 281 983 183 950 224 983 b 378 888 338 983 378 950 l 378 200 b 281 104 378 138 338 104 b 183 200 224 104 183 138 z m 213 1374 l 76 1154 l 179 1154 l 279 1314 l 379 1154 l 483 1154 l 346 1374 z m 403 1365 l 476 1365 l 476 1388 b 529 1431 476 1417 489 1431 b 581 1394 567 1431 581 1418 b 561 1339 581 1372 572 1354 b 500 1236 538 1306 500 1281 b 503 1214 500 1229 500 1222 l 558 1214 b 622 1308 558 1251 592 1276 b 667 1406 646 1333 667 1363 b 538 1496 667 1461 625 1496 b 403 1388 447 1496 403 1460 z "},"ổ":{"ha":536,"x_min":0,"x_max":0,"o":"m 479 654 b 268 860 479 782 385 860 b 57 654 150 860 57 782 l 57 194 b 268 -11 57 67 150 -11 b 479 194 385 -11 479 67 z m 176 647 b 268 738 176 706 215 738 b 358 647 321 738 358 706 l 358 201 b 268 111 358 143 321 111 b 176 201 215 111 176 143 z m 200 1135 l 64 915 l 167 915 l 267 1075 l 367 915 l 471 915 l 333 1135 z m 303 1268 l 376 1268 l 376 1290 b 429 1333 376 1319 389 1333 b 481 1297 467 1333 481 1321 b 461 1242 481 1275 472 1257 b 400 1139 438 1208 400 1183 b 403 1117 400 1132 400 1125 l 458 1117 b 522 1211 458 1154 492 1179 b 567 1308 546 1236 567 1265 b 438 1399 567 1364 525 1399 b 303 1290 347 1399 303 1363 z "},"Ỗ":{"ha":561,"x_min":0,"x_max":0,"o":"m 504 889 b 281 1107 504 1025 404 1107 b 57 889 156 1107 57 1025 l 57 199 b 281 -19 57 63 156 -19 b 504 199 404 -19 504 63 z m 183 888 b 281 983 183 950 224 983 b 378 888 338 983 378 950 l 378 200 b 281 104 378 138 338 104 b 183 200 224 104 183 138 z m 93 1454 b 185 1521 118 1508 150 1521 b 378 1454 260 1521 294 1454 b 518 1561 439 1454 483 1490 l 468 1606 b 376 1538 443 1553 411 1538 b 188 1604 306 1538 276 1604 b 43 1499 119 1604 76 1567 z m 213 1374 l 76 1154 l 179 1154 l 279 1314 l 379 1154 l 483 1154 l 346 1374 z "},"ỗ":{"ha":536,"x_min":0,"x_max":0,"o":"m 479 654 b 268 860 479 782 385 860 b 57 654 150 860 57 782 l 57 194 b 268 -11 57 67 150 -11 b 479 194 385 -11 479 67 z m 176 647 b 268 738 176 706 215 738 b 358 647 321 738 358 706 l 358 201 b 268 111 358 143 321 111 b 176 201 215 111 176 143 z m 81 1204 b 172 1271 106 1258 138 1271 b 365 1204 247 1271 282 1204 b 506 1311 426 1204 471 1240 l 456 1356 b 364 1288 431 1303 399 1288 b 175 1354 293 1288 264 1354 b 31 1249 107 1354 64 1317 z m 200 1135 l 64 915 l 167 915 l 267 1075 l 367 915 l 471 915 l 333 1135 z "},"Ộ":{"ha":561,"x_min":0,"x_max":0,"o":"m 504 889 b 281 1107 504 1025 404 1107 b 57 889 156 1107 57 1025 l 57 199 b 281 -19 57 63 156 -19 b 504 199 404 -19 504 63 z m 183 888 b 281 983 183 950 224 983 b 378 888 338 983 378 950 l 378 200 b 281 104 378 138 338 104 b 183 200 224 104 183 138 z m 279 -79 b 208 -154 232 -79 208 -112 b 279 -232 208 -197 232 -232 b 353 -154 329 -232 353 -197 b 279 -79 353 -112 329 -79 z m 213 1374 l 76 1154 l 179 1154 l 279 1314 l 379 1154 l 483 1154 l 346 1374 z "},"ộ":{"ha":536,"x_min":0,"x_max":0,"o":"m 479 654 b 268 860 479 782 385 860 b 57 654 150 860 57 782 l 57 194 b 268 -11 57 67 150 -11 b 479 194 385 -11 479 67 z m 176 647 b 268 738 176 706 215 738 b 358 647 321 738 358 706 l 358 201 b 268 111 358 143 321 111 b 176 201 215 111 176 143 z m 267 -79 b 196 -154 219 -79 196 -112 b 267 -232 196 -197 219 -232 b 340 -154 317 -232 340 -197 b 267 -79 340 -112 317 -79 z m 200 1135 l 64 915 l 167 915 l 267 1075 l 367 915 l 471 915 l 333 1135 z "},"Ớ":{"ha":707,"x_min":0,"x_max":0,"o":"m 285 1374 l 163 1154 l 271 1154 l 419 1374 z m 504 889 b 500 935 504 904 503 919 b 526 933 508 933 517 933 b 699 1132 646 933 699 1025 l 699 1218 l 588 1218 l 588 1096 b 507 1007 588 1042 557 1007 b 468 1014 493 1007 481 1010 b 281 1107 428 1074 358 1107 b 57 889 156 1107 57 1025 l 57 199 b 281 -19 57 63 156 -19 b 504 199 404 -19 504 63 z m 183 888 b 281 983 183 950 224 983 b 378 888 338 983 378 950 l 378 200 b 281 104 378 138 338 104 b 183 200 224 104 183 138 z "},"ớ":{"ha":636,"x_min":0,"x_max":0,"o":"m 274 1135 l 151 915 l 260 915 l 408 1135 z m 479 654 b 465 733 479 683 474 710 b 628 932 578 738 628 828 l 628 1018 l 517 1018 l 517 896 b 436 807 517 842 486 807 b 411 810 428 807 419 807 b 268 860 374 842 324 860 b 57 654 150 860 57 782 l 57 194 b 268 -11 57 67 150 -11 b 479 194 385 -11 479 67 z m 176 647 b 268 738 176 706 215 738 b 358 647 321 738 358 706 l 358 201 b 268 111 358 143 321 111 b 176 201 215 111 176 143 z "},"Ờ":{"ha":707,"x_min":0,"x_max":0,"o":"m 142 1374 l 289 1154 l 399 1154 l 276 1374 z m 504 889 b 500 935 504 904 503 919 b 526 933 508 933 517 933 b 699 1132 646 933 699 1025 l 699 1218 l 588 1218 l 588 1096 b 507 1007 588 1042 557 1007 b 468 1014 493 1007 481 1010 b 281 1107 428 1074 358 1107 b 57 889 156 1107 57 1025 l 57 199 b 281 -19 57 63 156 -19 b 504 199 404 -19 504 63 z m 183 888 b 281 983 183 950 224 983 b 378 888 338 983 378 950 l 378 200 b 281 104 378 138 338 104 b 183 200 224 104 183 138 z "},"ờ":{"ha":636,"x_min":0,"x_max":0,"o":"m 129 1135 l 276 915 l 386 915 l 264 1135 z m 479 654 b 465 733 479 683 474 710 b 628 932 578 738 628 828 l 628 1018 l 517 1018 l 517 896 b 436 807 517 842 486 807 b 411 810 428 807 419 807 b 268 860 374 842 324 860 b 57 654 150 860 57 782 l 57 194 b 268 -11 57 67 150 -11 b 479 194 385 -11 479 67 z m 176 647 b 268 738 176 706 215 738 b 358 647 321 738 358 706 l 358 201 b 268 111 358 143 321 111 b 176 201 215 111 176 143 z "},"Ở":{"ha":707,"x_min":0,"x_max":0,"o":"m 504 889 b 500 935 504 904 503 919 b 526 933 508 933 517 933 b 699 1132 646 933 699 1025 l 699 1218 l 588 1218 l 588 1096 b 507 1007 588 1042 557 1007 b 468 1014 493 1007 481 1010 b 281 1107 428 1074 358 1107 b 57 889 156 1107 57 1025 l 57 199 b 281 -19 57 63 156 -19 b 504 199 404 -19 504 63 z m 183 888 b 281 983 183 950 224 983 b 378 888 338 983 378 950 l 378 200 b 281 104 378 138 338 104 b 183 200 224 104 183 138 z m 149 1268 l 222 1268 l 222 1290 b 275 1333 222 1319 235 1333 b 326 1297 313 1333 326 1321 b 307 1242 326 1275 318 1257 b 246 1139 283 1208 246 1183 b 249 1117 246 1132 246 1125 l 304 1117 b 368 1211 304 1154 338 1179 b 413 1308 392 1236 413 1265 b 283 1399 413 1364 371 1399 b 149 1290 193 1399 149 1363 z "},"ở":{"ha":636,"x_min":0,"x_max":0,"o":"m 479 654 b 465 733 479 683 474 710 b 628 932 578 738 628 828 l 628 1018 l 517 1018 l 517 896 b 436 807 517 842 486 807 b 411 810 428 807 419 807 b 268 860 374 842 324 860 b 57 654 150 860 57 782 l 57 194 b 268 -11 57 67 150 -11 b 479 194 385 -11 479 67 z m 176 647 b 268 738 176 706 215 738 b 358 647 321 738 358 706 l 358 201 b 268 111 358 143 321 111 b 176 201 215 111 176 143 z m 143 1029 l 217 1029 l 217 1051 b 269 1094 217 1081 229 1094 b 321 1058 307 1094 321 1082 b 301 1003 321 1036 313 1018 b 240 900 278 969 240 944 b 243 878 240 893 240 886 l 299 878 b 363 972 299 915 332 940 b 407 1069 386 997 407 1026 b 278 1160 407 1125 365 1160 b 143 1051 188 1160 143 1124 z "},"Ỡ":{"ha":707,"x_min":0,"x_max":0,"o":"m 92 1204 b 183 1271 117 1258 149 1271 b 376 1204 258 1271 293 1204 b 517 1311 438 1204 482 1240 l 467 1356 b 375 1288 442 1303 410 1288 b 186 1354 304 1288 275 1354 b 42 1249 118 1354 75 1317 z m 504 889 b 500 935 504 904 503 919 b 526 933 508 933 517 933 b 699 1132 646 933 699 1025 l 699 1218 l 588 1218 l 588 1096 b 507 1007 588 1042 557 1007 b 468 1014 493 1007 481 1010 b 281 1107 428 1074 358 1107 b 57 889 156 1107 57 1025 l 57 199 b 281 -19 57 63 156 -19 b 504 199 404 -19 504 63 z m 183 888 b 281 983 183 950 224 983 b 378 888 338 983 378 950 l 378 200 b 281 104 378 138 338 104 b 183 200 224 104 183 138 z "},"ỡ":{"ha":636,"x_min":0,"x_max":0,"o":"m 86 965 b 178 1032 111 1019 143 1032 b 371 965 253 1032 288 965 b 511 1072 432 965 476 1001 l 461 1117 b 369 1049 436 1064 404 1049 b 181 1115 299 1049 269 1115 b 36 1010 113 1115 69 1078 z m 479 654 b 465 733 479 683 474 710 b 628 932 578 738 628 828 l 628 1018 l 517 1018 l 517 896 b 436 807 517 842 486 807 b 411 810 428 807 419 807 b 268 860 374 842 324 860 b 57 654 150 860 57 782 l 57 194 b 268 -11 57 67 150 -11 b 479 194 385 -11 479 67 z m 176 647 b 268 738 176 706 215 738 b 358 647 321 738 358 706 l 358 201 b 268 111 358 143 321 111 b 176 201 215 111 176 143 z "},"Ợ":{"ha":707,"x_min":0,"x_max":0,"o":"m 504 889 b 500 935 504 904 503 919 b 526 933 508 933 517 933 b 699 1132 646 933 699 1025 l 699 1218 l 588 1218 l 588 1096 b 507 1007 588 1042 557 1007 b 468 1014 493 1007 481 1010 b 281 1107 428 1074 358 1107 b 57 889 156 1107 57 1025 l 57 199 b 281 -19 57 63 156 -19 b 504 199 404 -19 504 63 z m 183 888 b 281 983 183 950 224 983 b 378 888 338 983 378 950 l 378 200 b 281 104 378 138 338 104 b 183 200 224 104 183 138 z m 281 -79 b 210 -154 233 -79 210 -112 b 281 -232 210 -197 233 -232 b 354 -154 331 -232 354 -197 b 281 -79 354 -112 331 -79 z "},"ợ":{"ha":636,"x_min":0,"x_max":0,"o":"m 479 654 b 465 733 479 683 474 710 b 628 932 578 738 628 828 l 628 1018 l 517 1018 l 517 896 b 436 807 517 842 486 807 b 411 810 428 807 419 807 b 268 860 374 842 324 860 b 57 654 150 860 57 782 l 57 194 b 268 -11 57 67 150 -11 b 479 194 385 -11 479 67 z m 176 647 b 268 738 176 706 215 738 b 358 647 321 738 358 706 l 358 201 b 268 111 358 143 321 111 b 176 201 215 111 176 143 z m 265 -79 b 194 -154 218 -79 194 -112 b 265 -232 194 -197 218 -232 b 339 -154 315 -232 339 -197 b 265 -79 339 -112 315 -79 z "},"Ụ":{"ha":569,"x_min":0,"x_max":0,"o":"m 61 1088 l 61 199 b 283 -19 61 63 158 -19 b 508 199 410 -19 508 63 l 508 1088 l 383 1088 l 383 200 b 285 104 383 138 343 104 b 189 200 229 104 189 138 l 189 1088 z m 283 -79 b 213 -154 236 -79 213 -112 b 283 -232 213 -197 236 -232 b 357 -154 333 -232 357 -197 b 283 -79 357 -112 333 -79 z "},"ụ":{"ha":554,"x_min":0,"x_max":0,"o":"m 367 849 l 367 154 b 272 111 336 125 304 111 b 185 221 215 111 185 147 l 185 849 l 61 849 l 61 194 b 238 -11 61 56 142 -11 b 385 47 292 -11 343 8 l 406 0 l 490 0 l 490 849 z m 275 -79 b 204 -154 228 -79 204 -112 b 275 -232 204 -197 228 -232 b 349 -154 325 -232 349 -197 b 275 -79 349 -112 325 -79 z "},"Ủ":{"ha":569,"x_min":0,"x_max":0,"o":"m 61 1088 l 61 199 b 283 -19 61 63 158 -19 b 508 199 410 -19 508 63 l 508 1088 l 383 1088 l 383 200 b 285 104 383 138 343 104 b 189 200 229 104 189 138 l 189 1088 z m 154 1268 l 228 1268 l 228 1290 b 281 1333 228 1319 240 1333 b 332 1297 318 1333 332 1321 b 313 1242 332 1275 324 1257 b 251 1139 289 1208 251 1183 b 254 1117 251 1132 251 1125 l 310 1117 b 374 1211 310 1154 343 1179 b 418 1308 397 1236 418 1265 b 289 1399 418 1364 376 1399 b 154 1290 199 1399 154 1363 z "},"ủ":{"ha":554,"x_min":0,"x_max":0,"o":"m 367 849 l 367 154 b 272 111 336 125 304 111 b 185 221 215 111 185 147 l 185 849 l 61 849 l 61 194 b 238 -11 61 56 142 -11 b 385 47 292 -11 343 8 l 406 0 l 490 0 l 490 849 z m 149 1029 l 222 1029 l 222 1051 b 275 1094 222 1081 235 1094 b 326 1058 313 1094 326 1082 b 307 1003 326 1036 318 1018 b 246 900 283 969 246 944 b 249 878 246 893 246 886 l 304 878 b 368 972 304 915 338 940 b 413 1069 392 997 413 1026 b 283 1160 413 1125 371 1160 b 149 1051 193 1160 149 1124 z "},"Ứ":{"ha":739,"x_min":0,"x_max":0,"o":"m 294 1374 l 172 1154 l 281 1154 l 429 1374 z m 61 1088 l 61 199 b 283 -19 61 63 158 -19 b 508 199 410 -19 508 63 l 508 979 b 558 972 524 975 540 972 b 731 1171 678 972 731 1064 l 731 1257 l 619 1257 l 619 1135 b 539 1046 619 1081 589 1046 b 508 1050 528 1046 518 1047 l 508 1088 l 383 1088 l 383 200 b 285 104 383 138 343 104 b 189 200 229 104 189 138 l 189 1088 z "},"ứ":{"ha":700,"x_min":0,"x_max":0,"o":"m 286 1135 l 164 915 l 272 915 l 421 1135 z m 367 849 l 367 154 b 272 111 336 125 304 111 b 185 221 215 111 185 147 l 185 849 l 61 849 l 61 194 b 238 -11 61 56 142 -11 b 385 47 292 -11 343 8 l 406 0 l 490 0 l 490 735 b 519 733 500 733 510 733 b 692 932 639 733 692 825 l 692 1018 l 581 1018 l 581 896 b 490 807 581 842 550 807 l 490 849 z "},"Ừ":{"ha":739,"x_min":0,"x_max":0,"o":"m 149 1374 l 296 1154 l 406 1154 l 283 1374 z m 61 1088 l 61 199 b 283 -19 61 63 158 -19 b 508 199 410 -19 508 63 l 508 979 b 558 972 524 975 540 972 b 731 1171 678 972 731 1064 l 731 1257 l 619 1257 l 619 1135 b 539 1046 619 1081 589 1046 b 508 1050 528 1046 518 1047 l 508 1088 l 383 1088 l 383 200 b 285 104 383 138 343 104 b 189 200 229 104 189 138 l 189 1088 z "},"ừ":{"ha":700,"x_min":0,"x_max":0,"o":"m 139 1135 l 286 915 l 396 915 l 274 1135 z m 367 849 l 367 154 b 272 111 336 125 304 111 b 185 221 215 111 185 147 l 185 849 l 61 849 l 61 194 b 238 -11 61 56 142 -11 b 385 47 292 -11 343 8 l 406 0 l 490 0 l 490 735 b 519 733 500 733 510 733 b 692 932 639 733 692 825 l 692 1018 l 581 1018 l 581 896 b 490 807 581 842 550 807 l 490 849 z "},"Ử":{"ha":739,"x_min":0,"x_max":0,"o":"m 61 1088 l 61 199 b 283 -19 61 63 158 -19 b 508 199 410 -19 508 63 l 508 979 b 558 972 524 975 540 972 b 731 1171 678 972 731 1064 l 731 1257 l 619 1257 l 619 1135 b 539 1046 619 1081 589 1046 b 508 1050 528 1046 518 1047 l 508 1088 l 383 1088 l 383 200 b 285 104 383 138 343 104 b 189 200 229 104 189 138 l 189 1088 z m 160 1268 l 233 1268 l 233 1290 b 286 1333 233 1319 246 1333 b 338 1297 324 1333 338 1321 b 318 1242 338 1275 329 1257 b 257 1139 294 1208 257 1183 b 260 1117 257 1132 257 1125 l 315 1117 b 379 1211 315 1154 349 1179 b 424 1308 403 1236 424 1265 b 294 1399 424 1364 382 1399 b 160 1290 204 1399 160 1363 z "},"ử":{"ha":700,"x_min":0,"x_max":0,"o":"m 367 849 l 367 154 b 272 111 336 125 304 111 b 185 221 215 111 185 147 l 185 849 l 61 849 l 61 194 b 238 -11 61 56 142 -11 b 385 47 292 -11 343 8 l 406 0 l 490 0 l 490 735 b 519 733 500 733 510 733 b 692 932 639 733 692 825 l 692 1018 l 581 1018 l 581 896 b 490 807 581 842 550 807 l 490 849 z m 150 1029 l 224 1029 l 224 1051 b 276 1094 224 1081 236 1094 b 328 1058 314 1094 328 1082 b 308 1003 328 1036 319 1018 b 247 900 285 969 247 944 b 250 878 247 893 247 886 l 306 878 b 369 972 306 915 339 940 b 414 1069 393 997 414 1026 b 285 1160 414 1125 372 1160 b 150 1051 194 1160 150 1124 z "}}}
